<?xml version="1.0" encoding="UTF-8"?>
<!DOCTYPE svg PUBLIC "-//W3C//DTD SVG 1.1//EN" "http://www.w3.org/Graphics/SVG/1.1/DTD/svg11.dtd">
<!-- Creator: CorelDRAW 2019 (64-Bit) -->
<svg xmlns="http://www.w3.org/2000/svg" xml:space="preserve" width="6.1in" height="6.3in" version="1.1" style="shape-rendering:geometricPrecision; text-rendering:geometricPrecision; image-rendering:optimizeQuality; fill-rule:evenodd; clip-rule:evenodd"
viewBox="0 0 6100 6300"
 xmlns:xlink="http://www.w3.org/1999/xlink">
 <defs>
  <style type="text/css">
   <![CDATA[
    .fil0 {fill:#3396D9}
    .fil4 {fill:#6BB3E4}
    .fil3 {fill:#95C9EC}
    .fil2 {fill:#D1E6F4}
    .fil1 {fill:#FDFDFD}
   ]]>
  </style>
 </defs>
 <g id="Layer_x0020_1">
  <metadata id="CorelCorpID_0Corel-Layer"/>
  <g id="_1904141288000">
   <path class="fil0" d="M1375.46 4326.76c1.26,-1.99 3.08,-7.31 3.79,-5.95 0.69,1.33 2.84,-4.5 3.81,-5.8 19.05,-25.58 145.72,-125.88 184.84,-164.35 17.02,-16.74 27.57,-20.03 46.7,-42.1 27.82,-32.1 28.09,-14.65 52.18,-40.81 18.98,-20.63 -4.15,-4.48 23.38,-24.18 45.99,-32.91 43.46,-46.48 89.59,-60.12 18.18,-4.13 24.84,-16.82 41.89,-30.05 25.98,-20.13 23.62,-13.26 37.51,-40.82 1.08,-2.53 2.72,-8.91 3.49,-7.47l118.87 -107.96c19.22,-15.97 11.83,-20.5 23.51,-30.35 15.02,-12.67 14.04,0.23 39.58,-24.35 18.05,-17.37 2.39,-6.66 29.15,-26.46l190.69 -164.78c40.6,-42.31 18.34,-9.84 61.24,-56.67 18.69,-20.39 20.69,-16.31 49.07,-21.26 21.82,-21.18 54.07,-40.45 77.13,-66.65 21.86,-24.83 10.78,-14.87 35.94,-33.81 17.76,-13.38 21.91,-20.48 37.87,-33.73 15.04,-51.45 34.11,-46.45 89.96,-41.24 7.1,3.55 13.56,27.25 47.46,46.8 23.7,13.67 8.93,-0.4 22.92,15.03 56.8,62.63 90.37,70.3 107.37,90l123.76 121.63 13.78 10.03 30.05 1.87 22.04 40.65 26.04 -1.15c15.58,20.58 9.92,19.65 37.88,28.96l16.41 -11.91c53.43,-43.19 31.11,3.69 68.93,-56.79l24.65 0.16c16.56,-38.06 50.05,-51.9 79.15,-78.73 18.58,-17.13 19.35,-16.97 45.59,-35.5 32.08,-22.64 -1.83,-26.24 51.65,-35.14 7.42,-0.33 4.46,1.95 8.06,-4.07l10.13 -32.17c63.15,-29.5 22.63,-5.76 54.36,-39.26l8.26 -7.51c16.96,-12.47 14.95,0.04 33.99,-21.56 8.1,-9.18 11.76,-21.91 20.45,-33.01l83.89 1.17c15.56,39.52 44.35,63.13 77.73,90.51 69.25,56.81 83.49,53.87 89.15,91.53l316.38 269.28 44.28 18.7c21.1,16.29 7.35,14.91 25.3,29.89 19.98,16.68 14.24,1.26 34.6,20.77 21.06,20.18 -2.71,8.48 31.74,31.52l121.73 111.43c6.83,15.37 67.91,62.94 84.57,73.04 65.86,31.5 22.02,19.2 59.2,46.42 23.02,16.87 11.98,-1.06 33.43,22.58l83.37 74.87c26.32,21.29 37.18,29.94 60.97,56.63 12.82,20.69 26.96,27.37 44.81,43.3 26.2,23.39 38.24,32.33 43.33,50.81l39.41 0.5c75.51,111.55 -116.92,73.63 -194.82,73.64l-3056.67 0c-34.96,0.07 -77.22,2.7 -111.16,0.75 -43.57,-2.5 -47.08,-13.98 -43.35,-58.38 11.87,-9.12 19.02,-15.14 39,-18.37zm892.39 -953.11c-11.52,26.06 -33.43,41.68 -57.93,60.88l-89.08 82.82c-30.42,16.16 -73.91,51.4 -92.78,85.96l-28.69 -0.33c-5.37,12.49 -3.6,16.04 -26,36.52l-145.73 122.97c-23.59,18.61 -6.55,18.47 -34.39,35.52 -13.91,8.51 -7.45,-0.12 -21.13,11.12 -15.53,12.76 -6.5,10.96 -17.17,22.71 -11.41,12.59 -31.65,20.17 -46.75,28.35 -34.22,31.61 -67.06,57.05 -104.51,89.14 -37.28,31.94 -60.78,58.01 -103.57,93.09l-75.15 67.75c-17.57,15.71 -13.24,3.26 -32.97,22.92 -9.69,9.66 -13.78,20.15 -20.54,25.85l-81.68 63.17 -10.56 35.5c-21.59,4.4 -36.78,7.47 -53.57,16.3 -1.72,0.91 -3.6,2.27 -5.25,3.19l-18.98 10.76c-30.22,6.88 -15.16,-0.11 -21.19,-6.5 -20.19,-20.73 -9.43,-470.81 -9.43,-531.69 0,-223.56 -9.91,-1630.39 6.72,-1650.76 16.72,-11.46 34.66,-20.62 62.17,-8.72l303.13 265.04c38.62,25.65 25.8,1.31 45.57,57.2 0.28,0.27 29.84,24.81 34.75,28.57 14.86,11.39 30.91,15.33 38.03,21.85l25.77 15.56c7.79,5.42 6.77,5.11 13.75,10.87 61.22,50.57 112.33,106.48 182.73,156.96 28.84,20.69 4.73,9.74 26.89,28.72 18.65,15.98 13.8,5.04 30.44,17.09l412.27 361.98c78.15,64.86 125.85,91.37 124.04,158.05 -32.83,30.07 -20.82,14.37 -42.98,27.72 -32.16,19.36 -11.25,20.65 -32.83,37.21 -8.51,6.53 -11.57,1.37 -30.98,17.55l-50.83 43.69c-29.17,25.02 -16.9,27.15 -51.6,35.43zm2542.5 856.98c-14.09,-19.04 -20.16,-17.17 -34.58,-29.78l-252.68 -221.35c-8.04,-6.91 -15.29,-13.19 -20.64,-18.75l-17.17 -21.55c-44.06,-3.26 -85.5,-65.82 -122.23,-91.63l-125.04 -104.44c-27.14,-24.26 -52.69,-47.56 -78.78,-70.26l-160.85 -140.21c-24.3,-22.58 -17.42,-5.43 -40.47,-30.57l-79.52 -70.06c-7.66,-5.48 -11.91,-5.74 -21.94,-17.82 -21.89,-26.3 -7.16,-4.32 -17.96,-31.44 -3.54,-4.99 2.75,-2.7 -8.67,-4.39 -47.97,-14.99 -70.49,-61.66 -132.38,-98.66 -64.76,-38.72 23.89,-4.93 -47.52,-40.91 -64.08,-32.27 -19,-61.77 -12.07,-115.3 54.93,-9.11 97.37,-71.51 138.74,-104.74l87.64 -71.8c34.57,-42.88 5.59,-7.81 42.83,-35l250.72 -223.02c15.62,-9.88 8.44,-0.12 25.4,-14.37 16.57,-13.93 3.21,-6.48 18.42,-21.3l23.14 -16.76c16.14,-11.85 7.41,-6.01 20.5,-18.63 20.33,-19.59 27.09,-19.24 44.17,-35 17.21,-15.88 15.83,-23.75 46.67,-32.08 5.57,-14.5 0,-6.1 11.55,-20.25l110.7 -95.26c54.62,-56.29 26.79,-16.6 60.06,-58.31 28.63,-35.92 -9.54,16.69 61.37,-48.73l191.87 -163.77c33.15,-26.82 27.31,-47.63 64.12,-46.66 0.01,-0.02 -6.26,-30.18 36.03,-32.56 21.24,-1.19 39.11,4.17 47.44,20.44 2.28,4.46 -9.64,1818.4 -1.54,2094.34 2.1,71.4 3.58,86.99 -61.19,69.35 -36.02,-9.81 -34.42,-5.39 -46.16,-38.78zm-152.14 -2148.89c2.89,46.86 11.37,5.33 -53.38,66.59l-124.76 104.26c-13.23,10.84 -18.49,14.54 -30.44,26.25 -28.86,28.27 -12.3,16.56 -33.57,20.02 -6.82,31.93 6.74,-3.19 -6.76,17.1l-122.5 107.01c-21.99,29.26 -13.98,17.24 -55.06,30.88l-235.97 214.69c-10.82,9.04 -15.28,9.2 -28.11,19.39l-111.56 94.6c-19.2,16.72 -31.12,39.47 -62.52,39.81l-0.55 -2.47c-10.14,48.61 -111.22,113.85 -151.99,150 -41.14,36.48 -13.55,31.76 -58.15,36.17 -1.28,25.96 9.74,6.05 -12.21,27.7 -6.61,6.52 -14.63,9.12 -23.15,16.27 -21.48,18.05 -22.17,34.26 -52.9,27.41 -7.46,33.96 5.22,-2.56 -44.45,48.58l-138.28 123.25c-6.35,57.07 -11.99,21.4 -42.37,51.72 -24.67,24.63 -0.14,27.79 -58.4,37.9l-11.01 3.54c-10.8,28.23 2.54,7.99 -40.44,46.37 -44.43,39.67 -91.41,100.56 -144.33,75.7l-412.3 -361.61c-17.46,-13.6 -13.24,-6.5 -25.4,-14.6 -27.92,-18.57 -3.84,-12.71 -41.91,-37.39l-202.69 -183.87c-52.28,-23.33 -36.06,-32.42 -71.84,-53.52 -53.55,-31.6 -7.61,-35.22 -72.08,-47.41l-1.02 -19.51 0.8 -4.84c-85.28,-42.21 -36.69,-24.71 -70.98,-52.81 -13.29,-10.91 -16.7,-7.02 -32.74,-23.25l-21.23 -33.15c-25.61,-5.03 -101.73,-71.69 -118.68,-101.52l-112.78 -94.59c-16.97,-12.71 -13.56,-13.31 -27.99,-27.04 -14.81,-14.09 -17.78,-12.47 -31.37,-23.83l-226.8 -199.81c-58.39,-51.61 -42.58,-32.13 -47.62,-55.22 -27.85,-3.48 0.56,8.8 -32.66,-13.98l-114.19 -100.02c-21.3,-24.28 -29.24,-45.58 -5.38,-54.43 1.34,-0.49 3.96,-1.97 5.69,-2.52 1.79,-0.56 4.05,-1.54 6.14,-2.06l3363.75 -2.74c52.51,4.53 44.02,18.13 41.63,30.34 -2.83,14.46 -54.4,77.47 -105.46,96.64zm-3159.31 -1502.35c-11.94,4.07 -56.07,27.67 -68.28,37.45 -24.96,20.02 -29.15,39.32 -58.18,42.4l-35.18 52.89c-70.94,3.92 -4.98,-3.19 -92.2,50.95 -41.74,25.91 -15.93,43.56 -91.7,58.04l0.23 -0.1 -2.83 28.99c-56.13,14 -18.96,17.14 -75.17,51.43 -47.09,28.72 9.76,19.64 -71.45,55.68 -13.32,6.31 -26.54,14.97 -34.52,28.13 -17.8,54.68 -16.25,26.09 -65.75,84.36 -16.05,18.89 -11.07,8.64 -24.6,22.49 -18.35,18.83 -6.54,11.91 -19.86,28.04l-66.26 67.84c-24.13,25.12 -10.67,25.15 -39.84,53.87 -24.12,23.73 -107.59,127.5 -118.04,153.46l-74.96 104.26c-23.61,29.52 -13.4,36.96 -33.2,62.4 -56.13,72.08 -75.05,133.76 -101.45,166.43 -29.22,36.19 -13.71,32.38 -28.3,68.29 -10.71,26.37 -25.17,26.08 -35.29,51.09 -10.5,25.96 -5.08,54.31 -20.05,74.05 -18.68,24.63 -21.63,-4.54 -33.81,54.07 -10.91,52.41 5.51,34.55 -23.45,70.11 -17.8,21.84 -20.22,28.41 -24.41,61.06 -9.01,70.43 1.58,31.16 -26.89,69.11 -14.41,19.19 -17.74,38.28 -21.12,65.32 -12.96,103.46 -28.96,57.95 -42.72,140.75 -17.85,107.42 16.14,37.68 -31.5,148.52 -33.94,78.95 -2.06,395.07 -62.99,481.28l0.98 195.83c16.06,33.38 39.71,226.36 43.44,282.04 4.8,71.79 -7.5,172.45 18.54,238.95 10.35,26.41 20.94,30.41 25.27,60.41 8.07,55.86 -0.01,91.69 25.67,141.8 27.51,53.68 16.07,74.76 37.15,130.41 6.14,16.22 17.62,37.2 23.71,55 8.41,24.59 8.79,45.11 18.05,68.88 14.82,38.04 57.76,78.07 39.17,130.3 26.14,13.96 30.83,34.81 42.55,71.37l154.67 294.25c5.69,7.71 3.02,2.33 11,12.25 8,9.93 6.49,7.11 13.33,19.63 9.14,16.74 10.09,22.61 18.83,35.89 20.37,30.93 73.46,116.07 97.07,130.35l67.49 75.37c11.71,14.84 20.11,25.48 31.11,39.55l101.63 128.02c39.89,38.1 59.69,53.02 69.44,87.69l1.16 0.61c32.2,8.08 18.35,-1.06 40.09,22.85 48.96,53.87 91.48,81.01 98.31,89.76 21.6,27.72 0.25,9.34 32.33,31.82 26.11,18.3 13.17,16.42 32.84,31.1 21.89,16.36 19.52,2.56 38.98,23 23.54,24.73 -11.35,4.72 31.37,32.25 26.42,17.02 8.73,0.63 31.33,24.17 20.46,21.31 9.06,14.06 36.07,27.38 43.69,21.53 5.35,-4.03 33.72,28.13 16.54,18.76 115.91,74.57 116.04,74.66 19.08,13.97 9.38,15.75 32.21,29.94 48.42,30.07 40.86,-10.91 54.51,41.11 14.76,1.61 35.73,6.72 51.67,12.92 35.57,13.81 12.06,8.91 33.69,27.76 32.59,28.36 21.93,-2.65 82.09,43.94 44.74,34.64 53,9.11 87.5,39.07 20.53,17.83 0.57,24.5 98.23,33.38 15.35,31.04 0.72,26.23 37.87,37.04 26.25,7.63 40.38,0.4 63.01,15.48 17.73,11.82 8.26,20.67 50.29,30.71 27.31,6.52 57.52,4.22 85.78,5.02 50.2,60.26 35.44,31.13 54.14,50.47 48.12,-9.93 65.88,-0.64 99.67,17.44 34.99,18.73 59.8,22.15 106.58,24.7 95.52,5.22 104.83,43.44 205.17,46.57 102.54,3.21 245.55,-5.48 311.3,25.91 1.56,0.75 3.48,1.93 5.11,2.63 13.22,5.61 11.72,5.01 24.49,6.99 32.41,5.01 90.5,3.78 125.54,4.67 275.31,7.06 164.41,-27.25 347.88,-33.35 203.15,-6.76 163.71,-3.61 338.37,-43.58 34.45,-7.88 73.35,-6.44 109.31,-15.86 53.54,-14.01 41.64,-26.11 93.58,-35.27 35.72,-6.3 60.13,-4.39 91.19,-24.59 74,-48.12 46.82,-5.15 141.72,-50.94 56.95,-27.47 35.36,-1.25 132.91,-55.78 12.85,-7.19 6.13,-4.45 23.23,-10.48l185.33 -96.54c14.97,-7.68 32.98,-12.91 44.14,-19.78 9.09,-5.6 25.6,-18.53 37.44,-25.35l114 -73.92c39.98,-38.56 18.13,2.91 73.9,-52.48 25.9,-25.71 13.67,-6.12 40.93,-21.24 28.77,-15.95 8.28,-12.8 32.51,-31.5 14.51,-11.2 18.75,-5.67 38.86,-25.07 55.37,-53.41 41.34,-28.74 68.79,-57.4 25.37,-26.48 6.11,-8.57 35.62,-26.13l129.33 -124.27c11.92,-11.17 14.96,-2.1 38.57,-24.59 0.4,-0.38 11.78,-14.03 15.72,-17.29 15.68,-12.98 1.66,-4.6 22.57,-13.46 29.14,-27.56 49.17,-55.31 81.37,-86.61 41.63,-40.45 81.5,-97.23 116.8,-144l78.89 -94.69c10.39,-15.59 20.06,-39.07 34.41,-53.49 21.49,-62.93 57.95,-85.38 66.97,-106.98 19.37,-46.35 -4.82,-15.13 29.7,-56.19 18.96,-22.55 23.65,-29.13 24.11,-68.06 38.84,-16.8 20.85,5.53 39.14,-33.18 17.22,-36.43 66.67,-137.53 86.71,-152.16 32.02,-164.41 26.74,-51.22 52.72,-129.86 11.14,-33.72 0.67,-49.01 18.76,-75.05 15.15,-21.81 24.91,-15.99 31.63,-60.52 19.65,-130 15.75,-39.33 40.54,-104.28 6.08,-15.94 5.78,-21.83 7.91,-38.12 15.54,-118.85 28.25,-44.19 44.03,-147.48 4.22,-27.56 2.56,-60.92 6.91,-88.19 10.4,-65.24 36.41,14.07 41.74,-245.65 1.02,-49.56 5.5,-132.22 11.91,-175.25l33.35 -152.64 -1.06 -140.94 -18.94 -103.03c-27.19,-105.73 -23.09,-218.1 -26.44,-328.32 -2.8,-91.78 -36.6,-123.4 -44.12,-197.48 -15.84,-156.19 -31.69,-85.34 -48.56,-189.21 -13.12,-80.8 -17.87,-53.83 -33.98,-89.98 -12.83,-28.8 -8.61,-68.72 -24.85,-93.66 -31.33,-48.11 -12.54,16.82 -36.13,-81.34 -13.66,-56.84 -26.4,-27.4 -41.3,-76.78 -28.28,-93.76 5.89,-14.91 -36.55,-83.62 -17.77,-28.78 -20.91,-65.01 -33.84,-86.81 -10.58,-17.81 -9.97,-9.09 -24.46,-38.06 -28.2,-56.41 -49.54,-38.47 -58.36,-122.16l5.26 3.11c-45.26,-9.43 -26.95,-8.69 -46.59,-48.97l-207.74 -280.44c-1.17,-1.24 -10.22,-10.11 -11.74,-11.91 -81.68,-96.8 -64.13,-89.26 -178.84,-200.87l-84.37 -82.13c-46.19,-32.93 -13.66,-14.87 -39.71,-38 -31.57,-28.02 -26.1,3.89 -40.98,-44.55 -13.5,-12.83 -19.71,-11.25 -33.51,-23.21 -15.14,-13.13 -9.28,-14.56 -26.78,-28.69 -14.35,-11.59 -17,-8.92 -33.41,-22.18l-155.68 -120.05c-47.01,-6.72 -37.79,-6.76 -63.83,-31.35 -30.28,-28.58 -30.48,-11.44 -53.98,-26.31 -23.11,-14.63 -0.84,-19.29 -48.35,-38.13 -41.57,-16.48 -19.91,-2.59 -49.49,-28.72 -32.33,-28.57 -26.52,-9.62 -62.25,-25.68 -28.39,-12.76 -13.24,-20.51 -46.01,-33.83 -28.83,-11.72 -40.7,-0.58 -62.91,-22.14 -24.52,-23.83 5.45,-20.91 -51.21,-30.33 -117.14,-19.48 0.99,-29.45 -115.51,-48.61 -63.15,-10.37 -38.54,-40.72 -117.02,-48.1 -55.83,-5.24 -33.05,4.92 -65.27,-21.77 -13.55,-11.21 -0.03,-5.86 -24.94,-15.67 -9.39,-3.69 -140.47,-22.07 -150.12,-52.22 -1.12,-3.5 -4,-3.34 -5.63,-5.35 -48.11,-3.33 -97.08,-6.14 -134.44,-21.91 -104.15,-43.98 -183.9,-15.48 -293.43,-38.64 -37.99,-8.02 -28.65,-13.02 -61.03,-17.02 -27.19,-3.36 -27.11,2.98 -59.19,-6.63l-11.08 -5.73 -458.44 3.6c-18.07,14.31 1.95,3.88 -29.5,14.77 -3,1.04 -18.7,4.19 -20.28,4.48l-250.3 27.03c-46.72,1.49 -38.77,14.47 -66.46,27.69 -50.64,24.16 -128.06,2.59 -183.26,32.12 -45.44,24.31 -5.31,22.83 -81.85,29.45 -34.2,2.97 -53.59,5.46 -77.35,23.39 -42.3,31.94 -25.91,16.2 -88.61,26.72 -48.76,8.17 -32.51,19.69 -68.57,32.7 -42.88,15.48 -49.13,-5.26 -79.06,27.54 -31.57,34.6 -24.59,19.68 -71.41,32.89 -43.78,12.34 -27.63,28.18 -68.34,40.71 -53.17,16.36 -28.32,-1.04 -70.86,32.86 -35.69,28.44 -45.86,13.19 -71.76,38.75 -16.97,16.74 6.89,12.08 -28.91,24.02 -10.64,3.55 -33.21,6.38 -46.62,7.82z"/>
   <path class="fil1" d="M1679.04 2269.86l243.04 203.54c13.11,12.78 8.17,13.17 26.27,28.91l63.57 49.43c52.38,25.67 -4.34,8.69 82.52,80.85 61.94,51.47 163.72,126.98 213.81,180.84l94.13 80.6c6.54,6.41 7.88,9.49 11.06,13.11l225.15 194.18c63.48,20.94 25.69,8.67 58.62,41.92 19,19.18 15.26,8.4 29.25,19.04 16.85,12.83 -4.04,-6 11.39,11.62 10.5,12.01 -4.47,-0.77 10.36,13.54l209.54 177.56c25.04,26.27 79.21,80.62 107.6,63.15 7.68,-4.72 33.98,-33.08 49.33,-45.87l100.45 -88.6c33.47,-24.15 28.22,-28.23 54.81,-46.63 1.98,-1.37 13.94,-8.62 14.66,-9.19 35.58,-28.3 2.07,-14.77 35.39,-35.46 51.28,-31.85 86.33,-79.54 105.58,-92.08 25.14,-16.4 34.07,-29.13 55.43,-32.7l13.64 -0.2c7.48,-22 -3.89,-5.97 16.11,-25.18 6.85,-6.59 11.88,-9.48 20.96,-18.42 19.11,-18.83 19.55,-26.09 51.19,-27.77 -4.22,-29.74 22.24,-32.7 43.39,-51.63 18.89,-16.9 32.35,-26.2 51.35,-43.29 27.15,-24.43 80.79,-78.79 115.41,-91.25l0.55 2.47c23,-55.59 294.5,-266.14 349.03,-316.4l173.9 -165.26c20.81,-26.73 82.09,-64.19 104.58,-83.93l209.56 -184.91c24.93,-16.3 54.65,-42.74 60.5,-67.76l-2465.63 -0.43c-270.95,0.27 -556,-9.39 -824.56,-2.87 8.22,38.38 3.99,17.26 32.59,44.89l108.4 88.9c40.07,35.8 116.58,95.76 137.09,135.28z"/>
   <path class="fil1" d="M2241.1 3604.52l-12.96 14.39 -3.38 28.2 -153.03 122.81c-22.54,24.37 -13.1,15.7 -37.23,33.63l-179.49 151.61c-28.44,30.13 -15.61,12.49 -40.18,31.65 -28.08,21.91 -7.66,15.83 -28.28,34.54 -11.03,10.01 -27.09,15.59 -41.28,30.05 -38.83,39.57 -80.31,84.13 -116.83,78.46 -17.55,47.01 -18.43,24.19 -47.89,49.07 -23.14,19.56 -15.91,32.44 -57.96,38.08l1.13 -1.33c-7.64,27.09 -8.21,22.17 -27.18,36.89 -15.6,12.1 -13.32,16.44 -37.14,20.13l-19.59 27.31c-4.97,31.55 15.1,5.04 -23.81,29.88 -9.45,6.03 -16.43,9.32 -30.89,14.83l-9.11 31.19 3339.7 -0.42c-1.89,-23.96 -7.73,-30.02 -12.66,-46.87 -31.88,-2.57 -48.16,-23.49 -68.59,-42.28l-106.33 -90.36c-52.12,-44.49 -23.54,-5.56 -71.84,-55.01 -47.2,-48.31 -197.77,-166.55 -221.09,-202.78 -63.23,1.82 -28.56,-13.42 -66.52,-39.4 -13.62,-9.32 -16.8,-5.33 -28.79,-17.73 -17.14,-17.72 -12.54,-19.49 -17.87,-36.42l-1.58 -0.26c-62.7,-12.26 -115.73,-102.97 -160.17,-128.93 -6.84,-3.98 -18.05,-7.74 -27.57,-14.22l-56.76 -47.33c-19.75,-13.7 -8.41,-16.03 -34.81,-35.01 -71.6,-51.52 -91.28,-78.46 -149.4,-134.24 -6.94,-6.66 -30.2,-16.63 -42.98,-28.27l-74.2 -68.21c-84.67,-71.83 -67.58,-66.17 -163.72,23.56l-67.59 57.16c-58.12,39.43 -18.93,20.14 -57.38,47.65l-41.1 35.63c-14.01,10.87 -15.5,6.01 -30.6,17.25 -18.88,14.07 -9.81,14.28 -25.87,29.13l-83.76 66.75c-22.16,21.18 -13.96,40.07 -65.28,36.37 -49.22,-3.56 -24.53,-17.3 -60.11,-42.68l-312.17 -255.95c-111.49,-106.47 -90.44,-62.56 -133.36,-31.65 -31.75,22.87 -13.37,5.13 -37.58,32.53 -18.63,21.1 -23,16.41 -42.56,36.42 -29.24,29.94 -0.16,9.48 -42.98,31.66 -37.39,19.37 -5.02,12.47 -45.78,46.55 -28.24,23.6 -90.9,84 -123.61,85.98z"/>
   <path class="fil1" d="M4767.47 2208.4c-0.95,1.66 -2.49,3.79 -3.11,4.84 -0.63,1.05 -2.29,3.61 -3.04,4.93l-13.92 33.05c-63.24,13.2 -8.59,1.03 -80.35,54.36 -29.9,22.21 -41.2,63.38 -81.18,53.94 -8.57,24 -38.77,47.16 -69.78,50.56l3.28 -3.14c-10.9,40.31 4.1,12.37 -23.99,36.07 -37.22,31.38 -134.4,118.88 -160.99,130.27 -0.73,13 -2.02,13.22 -4.16,18.58l-280.82 249.33c-47.63,47.71 -119.95,93.67 -162.72,145.25 -12.28,14.81 -26.42,18.15 -44.93,34.26l-55.25 46.42c-1.28,1.17 -2.85,2.92 -4.06,4.15 -1.2,1.21 -2.57,3.15 -3.71,4.39 -22.73,24.54 -83.08,70.52 -114.53,81.85l-8.29 38.74 36.72 26.09 5.97 24.89c21.49,2.79 51.94,36.34 73.85,52.23 51.86,8.98 -0.34,-2.64 69.95,43.3 37.44,24.47 -15.5,1.48 52.04,43.39 3.89,2.41 71.49,72.27 102.19,91.37 26.92,16.75 12.75,7.31 30.64,26.27l176.46 154.53c18.47,14.59 14.74,8.06 31.48,24.67 13.82,13.69 5.45,9.52 24,23.22l309.61 267.17c31.01,30.16 44.37,10.62 49.85,52.75 9.12,15.82 82.91,70.34 105.26,92.06 34.11,33.17 73.95,63.92 102.19,95.95l36.35 1.14c-20.99,-321.75 -7.54,-693.93 -7.54,-1026.42 0,-123.96 12.85,-991.19 -1.31,-1032.03 -35.3,5.86 -44.96,26.46 -60.97,53.02l-25.19 -1.44z"/>
   <path class="fil1" d="M1297.58 4181.98l9.81 -8.64 5.39 -25.67c32.2,-17.92 22.27,-2.74 50.69,-35.95l252.84 -213.46c11.96,-8.89 67.97,-76.46 106.75,-90.19 20.19,-7.7 20.34,-11.84 36.19,-26.82 16.86,-15.94 -0.02,-5.97 21.71,-18.39 22.1,-12.64 7.72,-6.41 29.23,-9.89 -4.08,-30.12 0.31,-8.28 54,-64.67l70.58 -55.8c36.01,-29.94 104.06,-103.74 140.71,-113.61l51.86 -66.42c1.62,-1.06 3.65,-2.18 5.3,-3.2 1.64,-1.01 3.72,-2.05 5.35,-3.03l14.94 -8.71c38.54,-26.56 108.37,-100.6 138.64,-127.54 25.39,-22.61 18.65,-5.21 47.87,-39.52 20.54,-24.11 64.45,-59.68 91.5,-73.71 -0.94,-39.08 -62.53,-74.02 -99.74,-104.42 -17.57,-14.36 -10.2,-14.11 -28.13,-28.92l-59.55 -50.11c-13.69,-10.36 -26.06,-15.42 -32.95,-22.61l-168.88 -154.67c-25.09,-26.27 -8.61,-5.24 -33.67,-21.94 -21.93,-14.63 -16.02,-7.85 -19.22,-35.95 -51.44,-4.79 -93.56,-74.99 -131.49,-98.06 -44.46,-27.04 -13.73,0.51 -36.88,-32.35 -24.14,-34.29 -41.9,-11.24 -49.68,-56.18 -6.87,-16.37 -0.3,-5.59 -10.42,-10.91 -30.43,-5.41 -60.5,-32.62 -82.15,-52.38 -16.74,-15.27 -5.63,-14.89 -31.45,-31.65 -40.89,-26.55 -145.12,-115.81 -164.63,-151.86 -32.53,-3.3 -31.73,-19.04 -66.4,-45.09l-82.2 -75.39c-21.8,-18.66 -13.43,-2.04 -33.89,-21.61 -27.88,-26.66 -7.04,-39.78 -64.11,-42.62 -6.56,53.25 3.1,197.39 3.1,262.67l-0.02 774.04c0,325.17 16.35,705.84 -7.51,1019.06 51.31,-2.89 9.17,-16.35 66.51,-33.83z"/>
   <path class="fil2" d="M456.29 1629.68c10.88,-12.75 18.43,-24.6 26.26,-40.09l139.61 -217.1c76.26,-98.14 178.57,-230.98 262.74,-314.68 52.46,-52.17 41.18,-57.38 84.74,-72.57 7.98,-13.15 21.2,-21.81 34.52,-28.13 13.12,-40.75 18.87,-38.75 65.27,-78.35 26.33,-22.49 43.98,-46.6 84.18,-57.74l-0.23 0.1c17.98,-32.17 68.15,-66.09 100.43,-89.94 20.96,-15.48 30.04,-24.83 47.26,-37.73 42.59,-31.91 44.17,-30.02 71.39,-34.21 29.03,-3.08 33.21,-22.38 58.18,-42.4 12.2,-9.78 56.33,-33.38 68.28,-37.45l9.45 -9.98c38.2,-35.33 82.24,-48.65 108.39,-66.82l255.86 -136.72c34.41,-10.96 41.53,-9.39 71.3,-24.51 32.22,-16.36 39,-10.97 82.07,-23.24 28.16,-8.04 23.87,-19.54 62.4,-30.46 22.53,-6.38 62.3,-7.46 86.94,-17.44 174.74,-70.74 246.89,-62.63 394.52,-93.49l76.91 -20.78c1.46,-0.69 4.09,-1.91 5.78,-3.37 -67.44,-14.7 -77.94,6.85 -127.61,11.65 -51.58,4.98 -92.49,2.77 -141.44,3.93 -30.49,14.85 -16.43,17.67 -58.54,30.17 -26.1,7.74 -79.83,11.8 -116.76,27.07 -23.15,9.58 -13.44,9.13 -28.26,18.01 -23.69,14.18 -49.9,16.25 -83.73,17.21 -2.21,-33.51 -6.72,-80.67 4.48,-106.29l-153.16 -1.61 -2.23 155.59 -155.75 2.96 -4 89.55c-53.24,-13.83 -62.06,27.62 -96.6,40.8 -18.36,7.01 -36.81,5.99 -52.78,15.27 -27.93,16.25 -5.66,16.34 -45.82,35.64l-43.7 25.35c-15.83,11.09 -25.96,14.13 -48.15,22.52 -113.86,43.08 -110.22,76.12 -132.46,88.37l-44.07 29.05c-18.74,13.5 -26.83,7 -52.61,25.93l-36.5 32.37c-12.6,6.53 -13.11,2.3 -24.21,9.49 -27.57,17.86 -1.11,1.87 -18.67,22.81 -16.43,19.59 -18.82,8 -42.94,27.39 -18.88,15.17 -13.52,18.04 -35.24,34.97 -80.26,62.54 -48.67,37.41 -116.49,104.7l-93.98 87.54c-17.82,14.94 -4.93,1.83 -20.11,21.07l-140.06 152.51c-14.32,19.26 -18.26,19.11 -33.8,35.69 -30.96,32.99 -11.63,28.23 -24.01,49.39 -10.39,17.78 -20.24,3.18 -36.37,25.81l-79.07 126.73c-0.91,1.42 -2.43,3.07 -3.35,4.51l-17.04 36.54c-1.38,1.81 -5.94,6.39 -8.06,7.83 -24.61,16.72 0.42,2.21 -23.72,9.28 -0.91,-29.73 -4.37,-31.32 5.38,-55.81l-153.28 0.04 -1.9 145.22c15.07,7.28 53.87,2.79 94.82,3.79 -1.72,25.38 -11.48,44.13 -4.46,64.1z"/>
   <path class="fil3" d="M4703.06 4328.61c4.93,16.85 10.77,22.91 12.66,46.87l-3339.7 0.42 9.11 -31.19 9.18 -17.25 -18.85 -0.7c-19.98,3.23 -27.14,9.24 -39,18.37 -3.73,44.41 -0.21,55.88 43.35,58.38 33.94,1.95 76.2,-0.68 111.16,-0.75l3056.67 0c77.91,-0.01 270.33,37.91 194.82,-73.64l-39.41 -0.5z"/>
   <path class="fil2" d="M1498.71 2130.51c35.39,3.55 23.7,8.98 48.83,30.48 24.62,21.04 20.48,14.24 42.38,36.31l41.12 37.7c16.09,14.97 29.32,25.01 48,34.87 -20.52,-39.52 -97.02,-99.48 -137.09,-135.28l-108.4 -88.9c-28.59,-27.63 -24.37,-6.51 -32.59,-44.89 268.57,-6.52 553.61,3.14 824.56,2.87l2465.63 0.43c-5.86,25.01 -35.58,51.46 -60.5,67.76l-209.56 184.91c-22.49,19.74 -83.77,57.2 -104.58,83.93l-173.9 165.26c42.83,-23.23 58,-52.4 104.95,-82.17 51.89,-20.37 119.09,-122.58 168.5,-124.92 5.61,-36.63 85.7,-91.01 112.78,-116.28l106.19 -91.25c20.39,-11.39 8.12,-4.09 23.19,-9.59 2.94,-27.84 22.37,-30.39 38.94,-46.89 14.2,-14.11 20.9,-25.22 21.35,-50.69 -53.08,-10.42 -719.68,-2.63 -834.34,-2.66l-1674.46 0.02c-79.02,0.06 -809.31,-8.24 -823.15,5.31 -4.76,8.74 -4.47,1.59 -4.66,17.97 -0.03,2.63 -7.25,8.32 13.9,30.75 33.81,35.87 83.02,50.09 102.9,94.97z"/>
   <path class="fil3" d="M1498.71 2130.51c-19.88,-44.87 -69.09,-59.1 -102.9,-94.97 -21.15,-22.43 -13.93,-28.12 -13.9,-30.75 0.19,-16.38 -0.09,-9.22 4.66,-17.97 13.83,-13.54 744.13,-5.25 823.15,-5.31l1674.46 -0.02c114.66,0.03 781.26,-7.76 834.34,2.66 -0.46,25.47 -7.15,36.58 -21.35,50.69 -16.57,16.49 -36,19.05 -38.94,46.89 51.06,-19.17 102.63,-82.18 105.46,-96.64 2.39,-12.21 10.88,-25.81 -41.63,-30.34l-3363.75 2.74c-2.09,0.52 -4.35,1.5 -6.14,2.06 -1.72,0.55 -4.35,2.03 -5.69,2.52 -23.86,8.85 -15.91,30.15 5.38,54.43l114.19 100.02c33.22,22.78 4.81,10.5 32.66,13.98z"/>
   <path class="fil4" d="M1289.81 4222.08l-23.54 13.52c-34.12,20.76 -36.57,25.34 -54.59,6.24 -20.09,-21.28 -10.24,-957.26 -10.24,-1060.9l-1.72 -1034.35c5.11,-54.47 64.03,-30.33 81.54,3.02 11.33,21.1 77.01,70.17 104.42,94.5 18.21,16.15 36.59,32.38 53.72,48.41 22.67,21.22 39.2,19.36 42.7,52.2 40.93,2.98 48.32,34.04 92.13,60.9l14.19 6.76c-19.77,-55.9 -6.95,-31.56 -45.57,-57.2l-303.13 -265.04c-27.51,-11.89 -45.45,-2.74 -62.17,8.72 -16.63,20.36 -6.72,1427.19 -6.72,1650.76 0,60.88 -10.76,510.96 9.43,531.69 6.03,6.39 -9.04,13.38 21.19,6.5l18.98 -10.76c1.65,-0.92 3.53,-2.28 5.25,-3.19 16.79,-8.83 31.99,-11.89 53.57,-16.3l10.56 -35.5z"/>
   <path class="fil2" d="M2732.02 6094.98l3.6 47.85 74.34 3.26c33.31,-0.25 49.4,-2.6 77.02,6.34l-1.38 -53.07 164.91 0.68 2.65 52.22c33.92,-14.83 113.95,-10.92 150.07,0.23l-2.12 -53.35 165.74 -0.65 0.59 44.34c18.75,9.01 -15.02,0.82 13.17,3.56 3.86,0.37 16.52,0.16 21.01,0.15 13.31,-0.04 26.85,-0.32 40.21,-0.41 33.5,-0.24 49.19,-2.57 76.8,6.3l-1.03 -61.23 165.44 -9.21 2.16 70.25c33.56,-14.65 113.9,-10.89 153.11,0.03 -9.47,-33.83 -9.52,-77.12 -1.17,-112.11 99.65,-40.32 78.61,-44.56 161.63,-46.3l2.31 158.41c33.62,-14.69 113.98,-10.96 153.16,0 -12.48,-44.63 -11.81,-113.76 -1.53,-159.5l-115.25 2.82 19.08 -50.17c-58.78,11.95 -34.31,19.03 -150.46,44.8 -39.93,8.86 -38.78,12.07 -71.7,24.08l-148.08 34.03c-29.47,4.26 -51.4,7.74 -77.46,11.89 -26.44,4.2 -55.43,3.76 -82.19,10.99 -26.5,7.16 -34.81,12.56 -67.91,16.27 -233.42,26.23 -542.72,-6.63 -726.72,7.51z"/>
   <path class="fil4" d="M2137.5 5962.63c1.79,1.14 4.38,2.23 5.73,2.8 112.11,47.22 326.67,94.36 437.44,100.25 38.08,2.02 105.77,9.69 140.04,23.4l11.31 5.91c184,-14.14 493.31,18.72 726.72,-7.51 33.1,-3.72 41.42,-9.11 67.91,-16.27 26.75,-7.23 55.75,-6.78 82.19,-10.99 26.06,-4.14 48,-7.63 77.46,-11.89l148.08 -34.03c32.92,-12 31.77,-15.22 71.7,-24.08 116.15,-25.78 91.68,-32.85 150.46,-44.8l33.02 -2.36c26.71,-35.04 136.36,-57.89 149.44,-63.61 23.54,-10.28 37.71,-27.96 62.48,-38.01 24.96,-10.14 58.55,-19.67 80.24,-25.36 22.38,-19.89 -5,-1.76 28.73,-15.83l156.17 -96.24c17.59,-9.11 40.22,-25.5 58.69,-27.2 21.06,-34.93 88.36,-62.89 134.88,-104.02 18.56,-16.42 44.87,-23.67 67.84,-42.15 28.52,-22.94 23.83,-31.15 67.67,-49.25l-0.49 -3.69c7.68,-38.69 2.49,-21.97 37.69,-41.81l106.52 -88.56c2.9,-2.75 17.54,-17.42 19.63,-19.35l82.25 -76.19c23.54,-19.63 19.62,-9.51 29.96,-39.1 -20.91,8.86 -6.89,0.48 -22.57,13.46 -3.94,3.26 -15.32,16.91 -15.72,17.29 -23.6,22.49 -26.65,13.43 -38.57,24.59l-129.33 124.27c-29.51,17.56 -10.25,-0.35 -35.62,26.13 -27.45,28.66 -13.42,3.99 -68.79,57.4 -20.11,19.39 -24.35,13.87 -38.86,25.07 -24.24,18.7 -3.74,15.55 -32.51,31.5 -27.27,15.12 -15.04,-4.47 -40.93,21.24 -55.78,55.39 -33.92,13.93 -73.9,52.48l-114 73.92c-11.84,6.82 -28.35,19.75 -37.44,25.35 -11.16,6.87 -29.17,12.1 -44.14,19.78l-185.33 96.54c-17.1,6.02 -10.37,3.29 -23.23,10.48 -97.54,54.53 -75.96,28.3 -132.91,55.78 -94.9,45.79 -67.72,2.82 -141.72,50.94 -31.06,20.2 -55.47,18.29 -91.19,24.59 -51.94,9.16 -40.04,21.26 -93.58,35.27 -35.97,9.41 -74.86,7.98 -109.31,15.86 -174.66,39.97 -135.22,36.82 -338.37,43.58 -183.47,6.1 -72.57,40.41 -347.88,33.35 -35.04,-0.89 -93.13,0.34 -125.54,-4.67 -12.76,-1.98 -11.27,-1.38 -24.49,-6.99 -1.63,-0.7 -3.56,-1.88 -5.11,-2.63 -65.75,-31.38 -208.76,-22.7 -311.3,-25.91 -100.33,-3.13 -109.65,-41.35 -205.17,-46.57 -46.78,-2.56 -71.59,-5.97 -106.58,-24.7 -33.79,-18.08 -51.55,-27.36 -99.67,-17.44z"/>
   <path class="fil2" d="M1297.58 4181.98c-57.34,17.48 -15.2,30.93 -66.51,33.83 23.85,-313.22 7.51,-693.89 7.51,-1019.06l0.02 -774.04c0,-65.28 -9.66,-209.43 -3.1,-262.67 57.07,2.84 36.22,15.96 64.11,42.62 20.46,19.56 12.09,2.95 33.89,21.61l82.2 75.39c34.67,26.05 33.87,41.78 66.4,45.09 -3.5,-32.85 -20.03,-30.99 -42.7,-52.2 -17.14,-16.04 -35.52,-32.27 -53.72,-48.41 -27.41,-24.33 -93.08,-73.4 -104.42,-94.5 -21.65,-7.51 -33.7,-18.2 -63.14,-15.87 -12.28,94.05 -2.21,1670.72 -2.35,1971.31 0,9.38 -23.11,197.69 63.24,104.2l18.57 -27.29z"/>
   <path class="fil2" d="M73.19 2774.32c33.39,-27.16 32.28,-206.3 45.29,-270.91 8.62,-42.76 22.99,-75.54 32.19,-122.26 8.5,-43.15 21.81,-78.19 34.26,-117.71 7.13,-95.78 4.72,-67.98 35.84,-132.26l20.37 -72.07c8.02,-60.39 20.66,-25.31 37.36,-86.43 13.43,-49.15 20.57,-45.27 34.88,-86.09l-103.52 4.75 -1.81 157.07 -156.14 0.04 -1.9 145.22c15.73,7.57 108.48,3.44 130.95,4.75 -17.59,86.3 -20.15,34.8 -48.5,159.46 -34.1,10.28 -47.35,3.87 -80.55,8l6.68 145.86 31.03 13.67c-0.58,79.98 -31.27,185.62 -16.43,248.93z"/>
   <path class="fil4" d="M4835.78 2117.83c75.72,1.57 58.02,-5.77 55.62,75.65 -10.88,368.9 23.02,1978.26 -9.83,2055.41 -24.26,3.81 -18.67,5.09 -51.48,-9.36 -16.1,-7.1 5.26,0.72 -19.71,-8.91 11.74,33.39 10.14,28.96 46.16,38.78 64.77,17.64 63.29,2.05 61.19,-69.35 -8.1,-275.94 3.81,-2089.88 1.54,-2094.34 -8.33,-16.27 -26.2,-21.63 -47.44,-20.44 -42.29,2.38 -36.02,32.54 -36.03,32.56z"/>
   <path class="fil2" d="M4310.69 305.95l4.18 89.87c-61.59,-14.55 -8.96,-29.83 -83.11,-42.48 -46.73,-7.96 -56.3,-5.24 -76.07,-50.25 50.09,-2.07 107.19,-7.93 155,2.86zm-246.59 -3.6c1.82,1.66 4.47,3.12 6.21,4 1.72,0.88 4.18,2.7 6.34,3.69l13.59 5.52c9.62,3.11 17.28,2.54 27.26,5.31 29.65,8.28 20.7,23.67 70.51,39.8 11.21,3.63 28.82,5.59 36.89,10.87 62.68,15.97 36.15,35.81 133.18,37.04 25.34,48.87 7.53,24.68 54.85,42.59l173.52 99.7c25.34,11.14 15.6,8.83 40.54,21.7 -2.36,-36.48 -11.73,-72.73 1.14,-102.29l-160.26 -2.68c-3.89,-40.55 2.64,-137.13 -7.11,-157.08l-150.06 -4.57c-9.02,-39.94 -13.04,-118.29 1.52,-151.63l-153.16 -1.61 -2.32 154.42 -92.63 -4.79z"/>
   <path class="fil2" d="M3341.39 3429.67c-3.6,6.02 -0.64,3.74 -8.06,4.07 -19.85,48.07 -88.39,85.45 -126.98,120.04 -5.14,4.61 -14.43,13.81 -21.34,18.72 -16.18,11.52 -8.66,8.01 -28.06,10.6 3.48,26.76 -97.59,101.8 -129.36,89.85l-44.54 -49.13c-27.46,-3.68 -40.09,-14.26 -52.08,-42.51l-13.78 -10.03c-32.51,-10.07 -161.98,-120.77 -188.47,-143.04 -27.59,-23.18 -55.7,-44.71 -85.28,-72.78 -52.61,-49.93 -62.37,-38.61 -102.28,-22.42 -2.09,0.85 -6.09,5.11 -7.62,3 -1.57,-2.15 -5.16,2.17 -7.81,3.02 -15.96,13.26 -20.11,20.35 -37.87,33.73 -25.17,18.94 -14.09,8.98 -35.94,33.81 -23.06,26.2 -55.31,45.47 -77.13,66.65 -12.94,28.19 -33.83,38.49 -69.7,65.31 -12.21,9.13 -18.3,18.02 -31.33,29.81 -29.35,26.57 -17.71,6.96 -32.62,36.12 32.72,-1.98 95.38,-62.38 123.61,-85.98 40.76,-34.08 8.39,-27.19 45.78,-46.55 42.83,-22.19 13.74,-1.72 42.98,-31.66 19.56,-20.01 23.93,-15.32 42.56,-36.42 24.21,-27.4 5.83,-9.66 37.58,-32.53 42.92,-30.91 21.87,-74.82 133.36,31.65l312.17 255.95c35.58,25.38 10.89,39.13 60.11,42.68 51.33,3.7 43.13,-15.19 65.28,-36.37l83.76 -66.75c16.06,-14.85 6.99,-15.06 25.87,-29.13 15.09,-11.24 16.59,-6.38 30.6,-17.25l41.1 -35.63c38.45,-27.5 -0.74,-8.22 57.38,-47.65l67.59 -57.16c96.14,-89.73 79.05,-95.39 163.72,-23.56l74.2 68.21c12.78,11.63 36.04,21.61 42.98,28.27 58.12,55.78 77.8,82.72 149.4,134.24 26.39,18.98 15.06,21.31 34.81,35.01l56.76 47.33c9.52,6.48 20.74,10.24 27.57,14.22 44.43,25.95 97.47,116.67 160.17,128.93 -27.41,-53.35 -59.83,-40.5 -84.71,-95.72l-316.38 -269.28c-24.43,-10.15 -5.15,-0.61 -19.67,-9.07 -35.8,-20.86 -161.35,-160.02 -202.52,-154.37 -29.22,4.01 -87.89,90.59 -155.77,113.74z"/>
   <path class="fil3" d="M1945.28 2531.02l118.68 101.52 17.62 -1.28c12.16,46.74 84.97,76.56 97.76,90.46 15.2,16.51 0.01,-9.37 9.57,20.03l-0.8 4.84c48.41,7.91 42.91,27.76 70.85,53.08 22.33,20.24 35.06,34.66 67.09,43.35l7 24 202.69 183.87c38.07,24.68 13.99,18.81 41.91,37.39 12.17,8.09 7.94,1 25.4,14.6l412.3 361.61c52.92,24.86 99.9,-36.03 144.33,-75.7 42.98,-38.38 29.64,-18.13 40.44,-46.37 -34.92,6.61 -40.42,18.85 -80.52,52.65 -66.19,55.79 -57.07,92.29 -179.75,-28.22l-102.3 -87.74c-46,-44.53 -164.07,-121.23 -198.98,-177.79l-225.15 -194.18c-3.17,-3.63 -4.52,-6.7 -11.06,-13.11l-94.13 -80.6c-50.09,-53.86 -151.87,-129.37 -213.81,-180.84 -86.85,-72.16 -30.13,-55.18 -82.52,-80.85l-63.57 -49.43c-18.09,-15.75 -13.15,-16.13 -26.27,-28.91l-243.04 -203.54c-18.69,-9.86 -31.91,-19.9 -48,-34.87l-41.12 -37.7c-21.9,-22.06 -17.76,-15.27 -42.38,-36.31 -25.13,-21.49 -13.43,-26.93 -48.83,-30.48 5.04,23.1 -10.76,3.61 47.62,55.22l226.8 199.81c13.59,11.36 16.56,9.74 31.37,23.83 14.43,13.72 11.02,14.33 27.99,27.04l112.78 94.59z"/>
   <path class="fil2" d="M4798.84 2166.07l-2.04 2.43 -29.34 39.9 25.19 1.44c16.02,-26.57 25.67,-47.17 60.97,-53.02 14.17,40.84 1.31,908.07 1.31,1032.03 0,332.49 -13.45,704.67 7.54,1026.42l-36.35 -1.14c17.28,16.57 -26.14,14.82 30.05,14.91 31.02,0.05 23.35,-16 21.46,-84.43 -8.93,-324.14 17.31,-1980.77 -6.57,-2005.5 -9.14,-5.24 1.54,-4.86 -15.82,-4.5 -25.2,0.52 -30.26,17.76 -56.41,31.46z"/>
   <path class="fil2" d="M5595.53 1572l-5.26 -3.11c39.35,6.01 4.16,-2.96 53.36,65.88 38.54,53.9 69.7,144.04 79.63,157.78 20.79,28.78 29.39,38.46 40.31,77.29l72.63 165.05c24.73,30.35 18.93,46.39 32.39,83.33 11.33,31.06 20.54,68.36 38.11,83.09 7.94,-38.87 -20.68,-82.2 -21.03,-149.82 -20.71,-11.39 -49.06,-50.31 -57.91,-71.24 -6.72,-15.87 -5.45,-26.63 -12.79,-47.61 -7.15,-20.43 -15.89,-24.98 -25.26,-47.2 38.15,-5.34 66.09,-8.38 102.18,1.7 -10.93,-39.2 -14.69,-119.5 0,-153.14l-163.98 -1.94c0.35,-41.19 7.54,-135.38 -3.41,-157.79 -91.06,0 -70.78,14.09 -121.7,-41.22 -21.01,-22.82 -18.47,-9.24 -27.74,-52.96 -7.26,-34.18 -1.35,-49.21 -8.52,-63.72 -86.28,-4.44 -66.3,-72.92 -126.31,-99.02 2.83,31.96 19.08,40.48 37.24,64.78 39.37,52.67 33.88,32.7 48.05,53.55 8.56,12.6 21.36,47.87 35.69,68.93 9.59,14.1 8.92,10.84 17.7,28.65 8.71,17.64 10.74,24.81 16.62,38.75z"/>
   <path class="fil4" d="M456.29 1629.68c-2.37,9.63 -4.24,12.12 -7.42,20.03 -28.71,71.6 -38.16,61.63 -52.15,91.59 -7.75,16.59 -8.68,31.48 -13.7,42.33l-74.25 144.02c-10.38,22.87 -15.94,56.24 -27.19,81.65 -22.78,51.47 -9.15,-4.69 -32.45,80.48l-64.21 173.67c-12.44,39.52 -25.76,74.56 -34.26,117.71 -9.2,46.72 -23.57,79.5 -32.19,122.26 -13.01,64.61 -11.9,243.75 -45.29,270.91l1.95 237.74c60.93,-86.22 29.05,-402.33 62.99,-481.28 47.65,-110.84 13.65,-41.1 31.5,-148.52 13.76,-82.8 29.75,-37.29 42.72,-140.75 3.39,-27.04 6.72,-46.13 21.12,-65.32 28.47,-37.95 17.88,1.32 26.89,-69.11 4.18,-32.66 6.61,-39.22 24.41,-61.06 28.96,-35.56 12.55,-17.7 23.45,-70.11 12.18,-58.61 15.14,-29.44 33.81,-54.07 14.96,-19.74 9.54,-48.09 20.05,-74.05 10.12,-25.01 24.58,-24.72 35.29,-51.09 14.59,-35.91 -0.92,-32.1 28.3,-68.29 26.4,-32.68 45.32,-94.35 101.45,-166.43 19.8,-25.44 9.59,-32.89 33.2,-62.4l74.96 -104.26c10.45,-25.97 93.92,-129.73 118.04,-153.46 29.18,-28.72 15.71,-28.74 39.84,-53.87l66.26 -67.84c13.32,-16.13 1.51,-9.22 19.86,-28.04 13.53,-13.85 8.56,-3.6 24.6,-22.49 49.5,-58.27 47.95,-29.68 65.75,-84.36 -43.57,15.19 -32.28,20.4 -84.74,72.57 -84.17,83.7 -186.48,216.54 -262.74,314.68l-139.61 217.1c-7.83,15.48 -15.38,27.33 -26.26,40.09z"/>
   <path class="fil2" d="M508.23 4730.47c-13.05,-46.82 -11.13,-20.67 -29.05,-47.09l-172.06 -367.7 -12.8 -16.46c-36.37,-75.2 0.59,-32.13 -29.04,-42.93 2.63,25.16 7.36,58.86 20.45,82.47 20.54,37.03 26.18,15.72 34.17,78.64l-111.63 2.03 1.59 153.15c37.42,-16.33 109.67,-5.93 156.29,-6.33l-0.07 154.88 142.15 9.34z"/>
   <path class="fil3" d="M1289.81 4222.08l81.68 -63.17c6.76,-5.7 10.85,-16.19 20.54,-25.85 19.73,-19.66 15.39,-7.21 32.97,-22.92l75.15 -67.75c42.79,-35.08 66.29,-61.15 103.57,-93.09 37.45,-32.09 70.28,-57.53 104.51,-89.14l68.76 -71.13c25.73,-23.8 19.56,-3.69 33.2,-36.07 -21.51,3.48 -7.13,-2.75 -29.23,9.89 -21.72,12.43 -4.85,2.45 -21.71,18.39 -15.85,14.98 -16,19.13 -36.19,26.82 -9.11,25.29 -0.97,18.19 -25.39,38.04 -9.94,8.07 -16.54,10.24 -28.45,19.11l-253.61 219.84c-50.8,36.09 -78.6,75.86 -108.2,88.28l-9.81 8.64 -18.57 27.29c-86.35,93.48 -63.24,-94.83 -63.24,-104.2 0.14,-300.59 -9.93,-1877.26 2.35,-1971.31 29.44,-2.33 41.49,8.36 63.14,15.87 -17.51,-33.35 -76.43,-57.49 -81.54,-3.02l1.72 1034.35c0,103.65 -9.85,1039.62 10.24,1060.9 18.02,19.09 20.47,14.51 54.59,-6.24l23.54 -13.52z"/>
   <path class="fil4" d="M6017.79 3059.34l-2.59 -369.89c-4.05,-6.61 -4.26,-7.99 -8.88,-20.97l-11.2 -43.17c-4.24,-23.57 -3.15,-44.26 -5.53,-67.67 -3.47,-34.04 -22.76,-83.42 -31.45,-119.27 -9.35,-38.58 -5.93,-99.61 -20.2,-128.44 -15.65,-31.59 -37.75,-60.37 -31.23,-108.63 -17.57,-14.73 -26.78,-52.04 -38.11,-83.09 -13.46,-36.94 -7.66,-52.99 -32.39,-83.33l-72.63 -165.05c-10.91,-38.82 -19.52,-48.51 -40.31,-77.29 -9.93,-13.74 -41.09,-103.88 -79.63,-157.78 -49.2,-68.83 -14.01,-59.87 -53.36,-65.88 8.83,83.69 30.16,65.75 58.36,122.16 14.49,28.97 13.88,20.25 24.46,38.06 12.93,21.8 16.07,58.03 33.84,86.81 42.44,68.71 8.28,-10.14 36.55,83.62 14.9,49.39 27.64,19.94 41.3,76.78 23.59,98.16 4.8,33.23 36.13,81.34 16.24,24.94 12.02,64.86 24.85,93.66 16.11,36.16 20.86,9.19 33.98,89.98 16.87,103.87 32.72,33.02 48.56,189.21 7.52,74.08 41.32,105.7 44.12,197.48 3.35,110.22 -0.76,222.59 26.44,328.32l18.94 103.03z"/>
   <path class="fil3" d="M4798.84 2166.07c26.15,-13.69 31.2,-30.93 56.41,-31.46 17.36,-0.36 6.68,-0.74 15.82,4.5 23.88,24.72 -2.36,1681.36 6.57,2005.5 1.89,68.43 9.55,84.48 -21.46,84.43 -56.19,-0.08 -12.76,1.66 -30.05,-14.91 -28.24,-32.03 -68.07,-62.78 -102.19,-95.95 -22.35,-21.72 -96.13,-76.24 -105.26,-92.06 -41.27,-18.68 -36.22,-27.63 -67.66,-50.83 -13.83,-10.22 -20.46,-17.98 -30.56,-25.47 -27.67,-20.5 1.93,-23.2 -35.16,-10.63l17.17 21.55c5.35,5.56 12.59,11.84 20.64,18.75l252.68 221.35c14.43,12.6 20.5,10.74 34.58,29.78 24.97,9.63 3.61,1.81 19.71,8.91 32.82,14.45 27.23,13.17 51.48,9.36 32.86,-77.15 -1.04,-1686.52 9.83,-2055.41 2.4,-81.41 20.1,-74.08 -55.62,-75.65l-18.45 21.2c-13.15,15.35 -7.92,6.01 -18.48,27.04z"/>
   <path class="fil2" d="M265.28 4256.29c3.52,-31.83 -45.85,-150.87 -58.59,-186.73 -34.56,-97.24 -82.91,-291.13 -99.36,-382.54 -6.44,-35.7 -3.91,-70.47 -9.43,-109.02 -3.19,-22.23 -8.38,-77.05 -23.68,-95.73 -10.36,40.83 1.18,90.02 6.15,133.09l-30.2 15.79 -0.03 142.17c9.62,4.71 -1.57,1.06 19.34,4.42 10.91,1.75 19.41,2.22 31.98,4.93 27.96,51.54 34.96,87.22 35.41,160.76l-86.41 2.07 -0.31 143.74c12.09,5.92 -8.29,3.34 26.44,3.86 154.74,2.34 119.19,-12.62 133.29,163.62 23.87,-9.15 26.72,-2.98 55.41,-0.44z"/>
   <path class="fil3" d="M5482.71 4833.89c-14.35,14.43 -24.02,37.91 -34.41,53.49l-78.89 94.69c-35.3,46.76 -75.17,103.55 -116.8,144 -32.19,31.3 -52.22,59.05 -81.37,86.61 -10.35,29.59 -6.43,19.47 -29.96,39.1l-82.25 76.19c-2.09,1.93 -16.72,16.6 -19.63,19.35l-106.52 88.56c-35.2,19.84 -30.01,3.13 -37.69,41.81 59.05,-4.85 81.52,-56.27 126.03,-85.79 30.63,-20.3 18.56,3.24 35.91,-26.09 50.01,-84.54 71.6,-51.72 101.66,-95.98 35.99,-53 25.58,-7.82 49.88,-52.53 37.28,-68.59 118.36,-113.37 142.11,-159.22 14.59,-28.17 0.46,-15.22 24.27,-38.83 39.96,-39.65 12.93,-34.67 46.23,-49.72 2.87,-1.3 16.85,-4.97 23.01,-6.91 2.98,-53.64 10.61,-33.04 30.66,-64.34 10.94,-17.07 16.25,-37.96 31.28,-55.96 18.03,-21.62 7.62,-0.54 21.67,-25.69 46.07,-82.43 37.78,-47.26 56.02,-77.58 9.3,-15.45 1.63,-12.8 15.07,-32.36 9.54,-13.91 20.35,-20.95 22.35,-24.34 11.7,-19.77 3.77,-31.3 26.91,-61.18 37.17,-47.97 27.38,-58.7 70.82,-97.88l15.67 -82.61c-35.55,33.39 -118.02,199.93 -150.81,251.28 -32.78,51.33 -39.04,83.48 -101.25,141.94z"/>
   <path class="fil2" d="M2421.09 6078.34l-7.93 -26.46c-52.35,-9.67 -84.8,-22.15 -140.51,-28.19 -61.07,-6.62 -74.2,-28.63 -123.8,-40.84 -21.63,-5.31 -44.77,-6.35 -66.07,-14.04 -21.4,-7.71 -38.89,-19.84 -59.1,-25.64 -31.46,-9.03 -46.42,-3.87 -68.82,-20.55 -8.34,-6.22 -13.94,-27.02 -58.24,-26.74l20.33 17.73c30.14,23.94 28.46,27.29 28.78,71.25l157.3 8.3 2.46 159.09c33.65,-14.69 113.93,-10.93 153.16,0 -9.91,-35.34 -6.76,-76.81 -4.82,-114.96 152.4,4.39 80.14,33.83 167.27,41.04z"/>
   <path class="fil4" d="M1498.91 579.39c13.41,-1.44 35.98,-4.27 46.62,-7.82 35.8,-11.94 11.94,-7.28 28.91,-24.02 25.91,-25.56 36.07,-10.31 71.76,-38.75 42.54,-33.9 17.69,-16.5 70.86,-32.86 40.71,-12.53 24.56,-28.37 68.34,-40.71 46.82,-13.21 39.84,1.7 71.41,-32.89 29.93,-32.8 36.18,-12.06 79.06,-27.54 36.06,-13.01 19.81,-24.52 68.57,-32.7 62.7,-10.52 46.31,5.22 88.61,-26.72 23.75,-17.93 43.15,-20.42 77.35,-23.39 76.54,-6.62 36.41,-5.14 81.85,-29.45 55.21,-29.54 132.63,-7.96 183.26,-32.12 27.69,-13.22 19.74,-26.19 66.46,-27.69l250.3 -27.03c1.57,-0.29 17.28,-3.43 20.28,-4.48 31.45,-10.89 11.43,-0.46 29.5,-14.77l-149.52 -3.9c-1.69,1.45 -4.32,2.68 -5.78,3.37l-76.91 20.78c-147.63,30.86 -219.78,22.75 -394.52,93.49 -24.64,9.97 -64.41,11.06 -86.94,17.44 -38.53,10.93 -34.24,22.43 -62.4,30.46 -43.07,12.28 -49.85,6.88 -82.07,23.24 -29.77,15.12 -36.9,13.55 -71.3,24.51l-255.86 136.72c-26.16,18.17 -70.19,31.49 -108.39,66.82l-9.45 9.98z"/>
   <path class="fil2" d="M5163.76 1002.67c26.76,45.94 58.63,57.86 82.09,99.21 25.65,14.3 123.8,138.98 143.11,164.06 41.52,53.94 24.86,44.59 51.25,51.39l1.58 -25.96c-28.7,-16.78 -85.3,-108.3 -115.76,-136.18 -29.73,-27.21 -29.02,-10.5 -34.69,-63.46 41.63,-0.89 88.04,-5.22 126.64,5.58 -8.79,-31.42 -6.37,-47.07 -6.13,-80.55 0.09,-13.37 0.38,-26.9 0.43,-40.22l-3.72 -34.16 -143.74 0.32 -3.26 138.04 -24.35 -18.78c-13.83,-10.55 -11.91,-5.57 -22.48,-17.23 -26,-28.66 1.29,-26.39 -50.98,-42.06z"/>
   <path class="fil4" d="M1760.33 2580.63c10.12,5.32 3.54,-5.47 10.42,10.91l41.2 23.28c36.52,31.93 166.64,125.1 176.84,163.3 27.53,4.85 326.22,266.79 364.08,299.33 143.28,123.17 122.34,103.42 4.54,203.68 -32.51,27.67 -82.62,60.61 -89.55,92.51 34.7,-8.28 22.43,-10.41 51.6,-35.43l50.83 -43.69c19.41,-16.17 22.47,-11.02 30.98,-17.55 21.58,-16.57 0.67,-17.85 32.83,-37.21 22.17,-13.35 10.16,2.35 42.98,-27.72 1.81,-66.68 -45.9,-93.19 -124.04,-158.05l-412.27 -361.98c-16.64,-12.05 -11.79,-1.11 -30.44,-17.09 -22.15,-18.98 1.95,-8.04 -26.89,-28.72 -70.4,-50.48 -121.52,-106.39 -182.73,-156.96 -6.98,-5.76 -5.96,-5.45 -13.75,-10.87l-25.77 -15.56c10.32,45.63 19.43,33.26 50.8,62.68 32.77,30.74 36.4,25.8 48.33,55.14z"/>
   <path class="fil4" d="M76.09 3309.39l3.53 152.9 -5.39 19.99c15.3,18.69 20.49,73.5 23.68,95.73 5.52,38.55 3,73.31 9.43,109.02 16.45,91.41 64.8,285.3 99.36,382.54 12.74,35.86 62.11,154.9 58.59,186.73 29.64,10.8 -7.32,-32.27 29.04,42.93l12.8 16.46c18.59,-52.22 -24.35,-92.26 -39.17,-130.3 -9.26,-23.77 -9.64,-44.29 -18.05,-68.88 -6.09,-17.8 -17.57,-38.78 -23.71,-55 -21.07,-55.65 -9.64,-76.74 -37.15,-130.41 -25.68,-50.11 -17.6,-85.94 -25.67,-141.8 -4.33,-30 -14.93,-34 -25.27,-60.41 -26.04,-66.5 -13.75,-167.16 -18.54,-238.95 -3.72,-55.68 -27.38,-248.67 -43.44,-282.04l-0.03 101.5z"/>
   <path class="fil3" d="M1451.44 5673.1l15.76 5.23 25.63 18.63c26.78,14.05 20.8,-1.68 64.63,31.48 56.27,42.58 49,8.93 83.23,52.04 13.79,10.14 42.92,19.25 64.45,22.76 17.02,8.62 14.86,7.72 28.79,17.77 48.97,35.37 27.72,12.5 73.23,29.83l83.64 41.86c0.97,-1.72 3.99,1.91 5.81,3.17 44.3,-0.28 49.9,20.52 58.24,26.74 22.4,16.68 37.35,11.52 68.82,20.55 20.2,5.8 37.7,17.93 59.1,25.64 21.31,7.69 44.45,8.72 66.07,14.04 49.6,12.21 62.74,34.22 123.8,40.84 55.71,6.05 88.16,18.53 140.51,28.19l7.93 26.46 310.93 16.64 -11.31 -5.91c-34.27,-13.7 -101.96,-21.38 -140.04,-23.4 -110.78,-5.89 -325.33,-53.02 -437.44,-100.25 -1.35,-0.57 -3.94,-1.66 -5.73,-2.8 -30.59,1.11 -156.22,-43.09 -180,-58.25 -36.46,-23.25 -37.42,-19.07 -82.13,-32.8l-382.15 -204.73c-46.63,-19.94 -120.45,-76.49 -151.99,-82.85 14.22,31.26 -2.08,9.72 25.33,27.59l84.89 61.51z"/>
   <path class="fil4" d="M3829.84 3378.37c-10.41,-29.41 0.7,-15.67 -25.26,-38.9 -8.66,-7.75 -10.68,-6.41 -17.44,-14.61 -11.8,-14.32 -5.48,-1.84 -14.67,-25.39 -21.91,-15.89 -52.36,-49.44 -73.85,-52.23l-19.65 0.54c-10.28,-13.94 -23.96,-25.12 -40.36,-35.22 -9,-44.3 -0.05,-67.36 58.41,-98.98 26.65,-9.13 267.46,-226.78 315.74,-270.11 57.54,-51.67 100.83,-82.93 163.57,-136.5 40.37,-34.47 117.01,-111.96 158.06,-133.68 -2.77,-19.17 -10.4,3.81 1.7,-22.46 -30.84,8.33 -29.46,16.2 -46.67,32.08 -17.08,15.76 -23.85,15.41 -44.17,35 -13.09,12.62 -4.35,6.78 -20.5,18.63l-23.14 16.76c-15.21,14.81 -1.85,7.37 -18.42,21.3 -16.96,14.25 -9.78,4.49 -25.4,14.37l-250.72 223.02c-37.24,27.19 -8.26,-7.88 -42.83,35l-87.64 71.8c-41.36,33.23 -83.81,95.63 -138.74,104.74 -6.93,53.54 -52.01,83.04 12.07,115.3 71.41,35.97 -17.24,2.18 47.52,40.91 61.89,37 84.41,83.67 132.38,98.66z"/>
   <path class="fil2" d="M1625.37 5834.69l4.46 150.18c24.66,12.06 112.13,-2.55 154.92,9.42 -11.75,-41.99 -6.56,-93.56 -5.5,-138.72 56.53,12.86 33.58,52.3 117.38,40.31 -1.82,-1.26 -4.84,-4.89 -5.81,-3.17l-83.64 -41.86c-45.52,-17.33 -24.26,5.53 -73.23,-29.83 -13.93,-10.06 -11.76,-9.15 -28.79,-17.77 6.69,15.65 6.1,17.72 12.07,36.53l-91.85 -5.09z"/>
   <path class="fil4" d="M5729.34 4417.31c20.14,-18.69 66.63,-123.87 77.3,-158.92l47.23 -133.61c34.05,-75.14 16.52,-0.39 47.2,-140.14 9.97,-45.42 18.52,-38.04 30.11,-83.06l30.2 -149.81c10.78,-50.02 17.85,-38.13 24.07,-41.63 -5.63,-78.83 20.93,-166.22 28.67,-242.08l4.72 -267.78 -33.35 152.64c-6.42,43.04 -10.9,125.7 -11.91,175.25 -5.33,259.72 -31.33,180.41 -41.74,245.65 -4.35,27.27 -2.69,60.63 -6.91,88.19 -15.78,103.29 -28.49,28.63 -44.03,147.48 -2.13,16.29 -1.83,22.17 -7.91,38.12 -24.79,64.94 -20.89,-25.72 -40.54,104.28 -6.72,44.54 -16.48,38.71 -31.63,60.52 -18.09,26.04 -7.62,41.33 -18.76,75.05 -25.99,78.63 -20.7,-34.56 -52.72,129.86z"/>
   <path class="fil2" d="M6015.19 2689.45c34.07,-110.6 -51.23,-246.65 -54.67,-333.21 35.37,-2 56.12,-4.47 89.33,4.8 -10.31,-36.87 -5.85,-80.48 -5.71,-120.76 0.02,-4.33 0.23,-17.32 -0.13,-21 -2.78,-28.52 5.76,5.97 -3.59,-13.15l-133.73 -4.82c-6.52,48.26 15.58,77.04 31.23,108.63 14.27,28.82 10.85,89.85 20.2,128.44 8.69,35.85 27.98,85.23 31.45,119.27 2.38,23.42 1.29,44.1 5.53,67.67l11.2 43.17c4.61,12.98 4.83,14.35 8.88,20.97z"/>
   <path class="fil3" d="M4736.18 671.01l155.68 120.05c16.41,13.26 19.05,10.59 33.41,22.18 17.49,14.12 11.63,15.56 26.78,28.69 13.8,11.96 20.01,10.38 33.51,23.21 42.91,17.11 190.79,171.55 222.62,209.72 20.26,24.3 0.35,17.25 37.68,27.03 -23.46,-41.35 -55.34,-53.28 -82.09,-99.21 -15.41,-22.67 -38.65,-32.96 -53.66,-58.21l-91.35 -82.92c-51.06,-48.85 -55.92,-41.6 -70.12,-56.19 -58.72,-60.29 -19.83,1.43 -63.96,-53.33l-143.02 -111.19c-17.61,-11.17 -103.56,-52.76 -114.66,-68.26 -24.94,-12.87 -15.2,-10.56 -40.54,-21.7l-173.52 -99.7c-47.32,-17.91 -29.52,6.28 -54.85,-42.59 -97.03,-1.23 -70.5,-21.07 -133.18,-37.04 1.06,2.1 2.81,4.55 3.85,5.89 16.74,21.53 30.45,29.7 59.88,39.7l139.57 63.35c21.02,13.75 39.36,22.2 62.81,33.19 105.16,49.24 119.17,79.18 187.93,110.96l57.24 46.39z"/>
   <path class="fil2" d="M2075.45 3518.89c5.21,-2.67 84.93,-61.78 93.11,-70.52 23.94,-25.58 20.39,-19.13 46.59,-41.38 20.61,-17.5 22.52,-30.05 52.71,-33.34 6.93,-31.91 57.04,-64.84 89.55,-92.51 117.8,-100.26 138.75,-80.51 -4.54,-203.68 -37.87,-32.54 -336.56,-294.48 -364.08,-299.33 3.21,28.1 -2.7,21.32 19.22,35.95 25.06,16.7 8.57,-4.33 33.67,21.94l168.88 154.67c6.89,7.19 19.26,12.25 32.95,22.61l59.55 50.11c17.93,14.81 10.55,14.56 28.13,28.92 37.2,30.4 98.79,65.34 99.74,104.42 -27.05,14.03 -70.96,49.6 -91.5,73.71 -29.22,34.31 -22.47,16.91 -47.87,39.52 -30.27,26.94 -100.11,100.98 -138.64,127.54l-14.94 8.71c-1.63,0.98 -3.71,2.02 -5.35,3.03 -1.65,1.02 -3.68,2.14 -5.3,3.2l-51.86 66.42z"/>
   <path class="fil2" d="M3829.84 3378.37c11.43,1.7 5.14,-0.6 8.67,4.39 48.96,13.43 65.51,54.03 111.25,85.96 91.29,63.72 224.08,202.96 305.33,258.47 16.23,11.08 27.12,22.25 42.66,35.94 39.16,34.52 174.07,143.14 187.54,176.06 37.09,-12.57 7.49,-9.87 35.16,10.63 10.1,7.49 16.74,15.25 30.56,25.47 31.44,23.2 26.39,32.16 67.66,50.83 -5.48,-42.13 -18.83,-22.59 -49.85,-52.75l-309.61 -267.17c-18.55,-13.7 -10.18,-9.53 -24,-23.22 -16.74,-16.61 -13.01,-10.07 -31.48,-24.67l-176.46 -154.53c-17.89,-18.96 -3.72,-9.52 -30.64,-26.27 -30.7,-19.09 -98.3,-88.96 -102.19,-91.37 -67.54,-41.91 -14.61,-18.92 -52.04,-43.39 -70.29,-45.94 -18.09,-34.31 -69.95,-43.3 9.19,23.56 2.87,11.07 14.67,25.39 6.76,8.2 8.79,6.85 17.44,14.61 25.96,23.23 14.85,9.5 25.26,38.9z"/>
   <path class="fil3" d="M3819.67 242.8l193.33 51.28c-5.81,-10.78 -8.13,-24.56 -29,-32.03 -7.58,-2.71 -36.31,-5.7 -46.3,-8.14 -41.75,-10.22 -28.75,-22.56 -79.16,-32.74 -56.28,-11.37 -75.33,2.48 -145.46,-21.19l-39.58 -15.68c-45.98,-17.74 -346.62,-41.91 -413,-31.45l11.08 5.73c32.07,9.61 32,3.28 59.19,6.63 32.38,4 23.04,9 61.03,17.02 109.53,23.17 189.28,-5.33 293.43,38.64 37.36,15.78 86.33,18.58 134.44,21.91z"/>
   <path class="fil2" d="M4089.57 5943.06l67.34 -2.27 -4.2 51.98c45.73,-10.28 114.89,-10.96 159.5,1.52 -11,-39.31 -10.42,-95.18 -1.54,-135.8 15.23,-5.82 31.28,-7.13 42.75,-11.7 31.72,-12.61 26.19,3.61 28.3,-30.72 -21.7,5.69 -55.28,15.22 -80.24,25.36 -24.77,10.06 -38.94,27.73 -62.48,38.01 -13.08,5.72 -122.73,28.57 -149.44,63.61z"/>
   <path class="fil2" d="M2638.58 3101.33c34.92,56.56 152.98,133.26 198.98,177.79l102.3 87.74c122.68,120.51 113.56,84.01 179.75,28.22 40.09,-33.8 45.6,-46.05 80.52,-52.65l11.01 -3.54c11.67,-23.83 -14.26,-14.57 13.24,-20.87 18.81,-20.92 52.42,-57.09 87.54,-68.75l138.28 -123.25c49.67,-51.14 37,-14.63 44.45,-48.58l-13.64 0.2c-21.36,3.57 -30.29,16.3 -55.43,32.7 -19.25,12.55 -54.3,60.24 -105.58,92.08 -33.32,20.69 0.19,7.16 -35.39,35.46 -0.72,0.57 -12.68,7.82 -14.66,9.19 -26.59,18.4 -21.33,22.47 -54.81,46.63l-100.45 88.6c-15.35,12.79 -41.65,41.15 -49.33,45.87 -28.39,17.46 -82.56,-36.89 -107.6,-63.15l-209.54 -177.56c-14.83,-14.3 0.14,-1.52 -10.36,-13.54 -15.43,-17.62 5.46,1.21 -11.39,-11.62 -13.98,-10.64 -10.24,0.14 -29.25,-19.04 -32.94,-33.25 4.86,-20.98 -58.62,-41.92z"/>
   <path class="fil4" d="M4736.18 671.01l-57.24 -46.39c-68.76,-31.78 -82.76,-61.72 -187.93,-110.96 -23.45,-10.98 -41.8,-19.43 -62.81,-33.19l-139.57 -63.35c-29.43,-10 -43.13,-18.17 -59.88,-39.7 -1.04,-1.33 -2.79,-3.79 -3.85,-5.89 -8.07,-5.27 -25.67,-7.24 -36.89,-10.87 -49.81,-16.13 -40.86,-31.52 -70.51,-39.8 -9.98,-2.78 -17.64,-2.2 -27.26,-5.31l-13.59 -5.52c-2.16,-0.99 -4.62,-2.81 -6.34,-3.69 -1.74,-0.89 -4.39,-2.34 -6.21,-4 -46.53,1.15 1.52,-14.25 -51.1,-8.26l-193.33 -51.28c1.62,2.02 4.51,1.85 5.63,5.35 9.65,30.15 140.73,48.53 150.12,52.22 24.91,9.81 11.39,4.45 24.94,15.67 32.22,26.69 9.44,16.53 65.27,21.77 78.48,7.38 53.87,37.73 117.02,48.1 116.5,19.15 -1.63,29.13 115.51,48.61 56.66,9.42 26.69,6.5 51.21,30.33 22.2,21.56 34.08,10.42 62.91,22.14 32.76,13.32 17.61,21.06 46.01,33.83 35.73,16.06 29.92,-2.89 62.25,25.68 29.58,26.14 7.92,12.24 49.49,28.72 47.51,18.84 25.24,23.51 48.35,38.13 23.5,14.86 23.7,-2.28 53.98,26.31 26.04,24.59 16.82,24.63 63.83,31.35z"/>
   <path class="fil4" d="M5595.53 1572c-5.89,-13.94 -7.91,-21.11 -16.62,-38.75 -8.79,-17.81 -8.12,-14.55 -17.7,-28.65 -14.33,-21.06 -27.14,-56.33 -35.69,-68.93 -14.17,-20.85 -8.69,-0.88 -48.05,-53.55 -18.17,-24.3 -34.42,-32.82 -37.24,-64.78 -26.39,-6.8 -9.73,2.55 -51.25,-51.39 -19.31,-25.08 -117.46,-149.76 -143.11,-164.06 -37.33,-9.78 -17.42,-2.73 -37.68,-27.03 -31.83,-38.17 -179.71,-192.61 -222.62,-209.72 14.88,48.44 9.41,16.53 40.98,44.55 26.06,23.13 -6.47,5.06 39.71,38l84.37 82.13c114.72,111.61 97.16,104.07 178.84,200.87 1.52,1.8 10.57,10.67 11.74,11.91l207.74 280.44c19.65,40.28 1.33,39.54 46.59,48.97z"/>
   <path class="fil3" d="M5729.34 4417.31l5.43 23.36 33.08 -31.43c16.42,-23.66 3.25,-20.43 19.09,-44.2 27.07,-40.63 26.27,-5.54 37.71,-78.25 14.65,-93.09 21.24,-34.73 33.56,-93.48 2.81,-13.44 3.72,-36.39 11.85,-53.41 14.55,-30.47 8.41,1.1 23.05,-31.3 10.52,-23.28 13.51,-73.84 23.51,-102.05l39.56 -78.54c8.69,-28.35 0.95,-76.46 13.19,-116.54 9.46,-30.95 18.86,-65.26 16.09,-101.35 -6.22,3.5 -13.29,-8.4 -24.07,41.63l-30.2 149.81c-11.59,45.03 -20.14,37.64 -30.11,83.06 -30.68,139.75 -13.15,65 -47.2,140.14l-47.23 133.61c-10.66,35.05 -57.16,140.23 -77.3,158.92z"/>
   <path class="fil4" d="M4485.3 3939.19c-13.48,-32.92 -148.38,-141.54 -187.54,-176.06 -15.54,-13.7 -26.43,-24.86 -42.66,-35.94 -81.25,-55.51 -214.04,-194.75 -305.33,-258.47 -45.74,-31.93 -62.29,-72.52 -111.25,-85.96 10.8,27.12 -3.93,5.14 17.96,31.44 10.04,12.07 14.28,12.34 21.94,17.82l79.52 70.06c23.05,25.14 16.17,7.99 40.47,30.57l160.85 140.21c26.09,22.7 51.64,46.01 78.78,70.26l125.04 104.44c36.74,25.8 78.17,88.37 122.23,91.63z"/>
   <path class="fil2" d="M1859.15 3912.56c-13.89,27.57 -11.53,20.69 -37.51,40.82 -17.05,13.23 -23.71,25.93 -41.89,30.05 -28.94,61.48 -120.09,96.77 -151.3,146.43 36.52,5.67 78,-38.89 116.83,-78.46 14.19,-14.46 30.25,-20.04 41.28,-30.05 20.62,-18.7 0.2,-12.62 28.28,-34.54 24.56,-19.16 11.74,-1.52 40.18,-31.65l179.49 -151.61c24.13,-17.93 14.69,-9.26 37.23,-33.63l153.03 -122.81 3.38 -28.2c-33.64,9.33 -73.29,51.06 -97.78,74.81l-174.57 149.5c-24.63,21.64 -60.21,59.97 -96.65,69.35z"/>
   <path class="fil2" d="M3697.02 3113.57l-32.81 43.94c31.45,-11.33 91.8,-57.31 114.53,-81.85 1.15,-1.23 2.51,-3.17 3.71,-4.39 1.2,-1.23 2.78,-2.98 4.06,-4.15l55.25 -46.42c18.51,-16.1 32.65,-19.45 44.93,-34.26 42.77,-51.58 115.1,-97.54 162.72,-145.25l280.82 -249.33c2.15,-5.37 3.43,-5.58 4.16,-18.58 -41.05,21.72 -117.69,99.21 -158.06,133.68 -62.74,53.57 -106.03,84.83 -163.57,136.5 -48.28,43.33 -289.09,260.97 -315.74,270.11z"/>
   <path class="fil2" d="M1625.37 5834.69c-2.21,-11.35 -8.1,-12.3 -2.55,-31.45 6.91,-23.85 -1.72,-10.18 17.87,-22.75 -34.23,-43.11 -26.96,-9.46 -83.23,-52.04 -43.83,-33.16 -37.85,-17.43 -64.63,-31.48l-25.63 -18.63 6.41 158c33.45,-14.61 111.56,-10.43 151.75,-1.64z"/>
   <path class="fil4" d="M922.52 5239.72c13.01,7.44 40.61,40.34 53.15,52.98l180.66 149.75c40.81,16.37 30.82,12.94 57.69,39.46 21.15,20.89 27.89,16.69 42.27,40.59 34.72,19.28 55.37,43.39 84.93,61.5 31.54,6.36 105.36,62.91 151.99,82.85 -13.65,-52.02 -6.09,-11.04 -54.51,-41.11 -22.83,-14.19 -13.13,-15.97 -32.21,-29.94 -0.13,-0.09 -99.5,-55.9 -116.04,-74.66 -28.37,-32.17 9.96,-6.6 -33.72,-28.13 -27.02,-13.32 -15.61,-6.07 -36.07,-27.38 -22.59,-23.54 -4.91,-7.15 -31.33,-24.17 -42.72,-27.53 -7.83,-7.52 -31.37,-32.25 -19.45,-20.45 -17.08,-6.64 -38.98,-23 -19.67,-14.68 -6.72,-12.81 -32.84,-31.1 -32.08,-22.48 -10.73,-4.1 -32.33,-31.82 -6.82,-8.75 -49.35,-35.9 -98.31,-89.76 -21.75,-23.92 -7.89,-14.78 -40.09,-22.85l7.11 29.06z"/>
   <path class="fil3" d="M4142.62 2505.95c-54.53,50.26 -326.03,260.81 -349.03,316.4 31.4,-0.34 43.32,-23.09 62.52,-39.81l111.56 -94.6c12.83,-10.2 17.29,-10.35 28.11,-19.39l235.97 -214.69c1.21,-2.51 2.4,-5.4 3.5,-7.6 1.11,-2.23 2.64,-5.37 3.77,-7.59 1.06,-2.08 7.14,-12.66 8.56,-14.87 -46.95,29.77 -62.12,58.94 -104.95,82.17z"/>
   <path class="fil3" d="M508.23 4730.47c9.05,22.26 3.75,-0.68 10.74,23.92l95.05 131.37c9.88,17.51 20.2,28.88 39.72,40.15 2.04,-45.63 3.48,5.09 -1.39,-19.87 -5.08,-26.06 1.52,8.18 -7.78,-26.61 -23.61,-14.28 -76.7,-99.43 -97.07,-130.35 -8.74,-13.28 -9.69,-19.15 -18.83,-35.89 -6.84,-12.53 -5.33,-9.71 -13.33,-19.63 -7.98,-9.93 -5.31,-4.54 -11,-12.25l-154.67 -294.25c-11.72,-36.56 -16.41,-57.42 -42.55,-71.37l172.06 367.7c17.92,26.43 16,0.27 29.05,47.09z"/>
   <path class="fil4" d="M1859.15 3912.56c36.44,-9.37 72.02,-47.7 96.65,-69.35l174.57 -149.5c24.49,-23.75 64.13,-65.48 97.78,-74.81l12.96 -14.39c14.91,-29.16 3.28,-9.56 32.62,-36.12 13.02,-11.79 19.11,-20.68 31.33,-29.81 35.87,-26.82 56.77,-37.12 69.7,-65.31 -28.38,4.95 -30.38,0.87 -49.07,21.26 -42.9,46.82 -20.64,14.36 -61.24,56.67l-190.69 164.78c-26.76,19.8 -11.1,9.09 -29.15,26.46 -25.54,24.58 -24.56,11.68 -39.58,24.35 -11.68,9.85 -4.29,14.38 -23.51,30.35l-118.87 107.96c-0.77,-1.44 -2.41,4.94 -3.49,7.47z"/>
   <path class="fil3" d="M4703.06 4328.61c-5.09,-18.48 -17.13,-27.43 -43.33,-50.81 -17.85,-15.93 -31.99,-22.61 -44.81,-43.3 -42.96,-0.5 -49.39,-31.46 -74.96,-50.42 -23.81,-17.67 -19.75,-24.88 -76.73,-67.62 -31.13,-23.34 -70.12,-49.24 -85.29,-82.46 -16.65,-10.1 -77.74,-57.67 -84.57,-73.04 -18.39,-9.69 -20.65,-18.6 -45.05,-23.4 -1.37,-0.27 -5.42,2.38 -6.44,0.1 -1.05,-2.37 -4.47,0.17 -6.68,0.52 23.32,36.23 173.89,154.46 221.09,202.78 48.3,49.45 19.72,10.52 71.84,55.01l106.33 90.36c20.43,18.79 36.71,39.7 68.59,42.28z"/>
   <path class="fil4" d="M4336.09 2550.82l91.05 -67.16c51.22,-44.15 51.61,-60.38 92.22,-76.71l-3.28 3.14c11.61,-17.29 17.7,-24.71 30.97,-36.72 18,-16.31 16.33,-21.95 38.81,-13.84l18.09 -22.65c7.74,-8.15 11.46,-11.58 20.24,-20.52 17.19,-17.47 26.09,-22.35 41.8,-35.63 26.74,-22.62 55.13,-45.59 79.14,-72.11 22.81,-31.72 18.67,-25.56 51.67,-40.13l2.04 -2.43c10.56,-21.03 5.33,-11.69 18.48,-27.04l18.45 -21.2c-36.81,-0.97 -30.96,19.84 -64.12,46.66l-191.87 163.77c-70.91,65.42 -32.74,12.81 -61.37,48.73 -33.27,41.72 -5.44,2.02 -60.06,58.31l-110.7 95.26c-11.55,14.15 -5.98,5.76 -11.55,20.25z"/>
   <path class="fil4" d="M2525.7 3339.07c2.66,-0.85 6.25,-5.17 7.81,-3.02 1.53,2.1 5.54,-2.15 7.62,-3 39.91,-16.19 49.68,-27.51 102.28,22.42 29.58,28.07 57.7,49.6 85.28,72.78 26.48,22.27 155.96,132.97 188.47,143.04l-123.76 -121.63c-17.01,-19.7 -50.58,-27.37 -107.37,-90 -13.99,-15.43 0.78,-1.36 -22.92,-15.03 -33.91,-19.56 -40.37,-43.26 -47.46,-46.8 -55.85,-5.2 -74.92,-10.2 -89.96,41.24z"/>
   <path class="fil4" d="M3341.39 3429.67c67.89,-23.14 126.56,-109.72 155.77,-113.74 41.17,-5.65 166.72,133.5 202.52,154.37 14.52,8.46 -4.76,-1.07 19.67,9.07 -5.65,-37.66 -19.9,-34.72 -89.15,-91.53 -33.38,-27.38 -62.17,-50.99 -77.73,-90.51l-83.89 -1.17c-8.69,11.1 -12.35,23.83 -20.45,33.01 -19.04,21.59 -17.03,9.09 -33.99,21.56l-8.26 7.51c-31.74,33.5 8.79,9.77 -54.36,39.26l-10.13 32.17z"/>
   <path class="fil3" d="M313.37 1886.58c-14.31,40.82 -21.46,36.94 -34.88,86.09 -16.7,61.12 -29.34,26.04 -37.36,86.43l-20.37 72.07c-31.12,64.28 -28.71,36.48 -35.84,132.26l64.21 -173.67c23.3,-85.17 9.67,-29.01 32.45,-80.48 11.25,-25.4 16.81,-58.77 27.19,-81.65l74.25 -144.02c5.02,-10.86 5.94,-25.74 13.7,-42.33 13.98,-29.96 23.43,-19.99 52.15,-91.59 3.17,-7.91 5.05,-10.39 7.42,-20.03 -11.31,7.04 -6.16,2.18 -15.72,10.87l-127.2 246.04z"/>
   <path class="fil4" d="M2137.5 5962.63c-18.7,-19.34 -3.94,9.8 -54.14,-50.47 -28.26,-0.79 -58.47,1.5 -85.78,-5.02 -42.03,-10.05 -32.56,-18.89 -50.29,-30.71 -22.63,-15.08 -36.76,-7.85 -63.01,-15.48 -37.15,-10.8 -22.52,-6 -37.87,-37.04 -97.66,-8.87 -77.7,-15.55 -98.23,-33.38 -34.51,-29.96 -42.76,-4.43 -87.5,-39.07 -60.16,-46.59 -49.51,-15.58 -82.09,-43.94 -21.62,-18.85 1.89,-13.95 -33.69,-27.76 -15.94,-6.19 -36.91,-11.3 -51.67,-12.92l382.15 204.73c44.71,13.73 45.68,9.55 82.13,32.8 23.78,15.16 149.41,59.36 180,58.25z"/>
   <path class="fil2" d="M1451.44 5673.1l-84.89 -61.51c-27.41,-17.87 -11.1,3.67 -25.33,-27.59 -29.56,-18.11 -50.21,-42.21 -84.93,-61.5l-22.43 -5.46c7.96,12.05 4.11,6.42 12.43,16.8 23.17,28.9 30.22,34.09 66.04,45.18l1.55 89.9c18.82,9.2 113.32,3.67 137.56,4.17z"/>
   <path class="fil4" d="M1375.46 4326.76l18.85 0.7c19.18,-15.52 19.74,-19.05 45.52,-27.46l19.59 -27.31c18.09,-33.59 24.8,-42.22 64.32,-57.02l-1.13 1.33c11.25,-35.78 54.37,-65.07 86.84,-83.45 2.96,-20.61 -2.99,-4.98 19,-3.7 31.2,-49.66 122.36,-84.94 151.3,-146.43 -46.13,13.65 -43.6,27.21 -89.59,60.12 -27.53,19.7 -4.39,3.56 -23.38,24.18 -24.09,26.17 -24.36,8.71 -52.18,40.81 -19.13,22.07 -29.67,25.36 -46.7,42.1 -39.13,38.47 -165.79,138.78 -184.84,164.35 -0.97,1.31 -3.11,7.14 -3.81,5.8 -0.71,-1.36 -2.53,3.96 -3.79,5.95z"/>
   <path class="fil1" d="M4310.69 305.95c-47.81,-10.79 -104.91,-4.93 -155,-2.86 19.77,45.01 29.34,42.29 76.07,50.25 74.15,12.64 21.52,27.93 83.11,42.48l-4.18 -89.87z"/>
   <path class="fil2" d="M1760.33 2580.63c-11.93,-29.34 -15.56,-24.41 -48.33,-55.14 -31.36,-29.43 -40.48,-17.06 -50.8,-62.68 -7.13,-6.52 -23.17,-10.46 -38.03,-21.85 -4.91,-3.76 -34.47,-28.3 -34.75,-28.57l-14.19 -6.76c-43.81,-26.85 -51.2,-57.92 -92.13,-60.9 19.52,36.05 123.74,125.31 164.63,151.86 25.82,16.76 14.71,16.38 31.45,31.65 21.65,19.76 51.72,46.97 82.15,52.38z"/>
   <path class="fil4" d="M653.74 4925.91c11.84,6.25 12.59,0.4 21.69,19.73l17.03 14c1.6,1.42 3.27,3.07 4.8,4.49 5.73,5.28 10.1,8.5 14.58,14.61 9.86,13.45 11.36,25.69 16.75,41.72 25.12,17.37 61.66,68.92 84.7,93.93 32.19,34.94 57.1,79.66 100.96,95.66 -9.76,-34.67 -29.56,-49.59 -69.44,-87.69l-101.63 -128.02c-11,-14.07 -19.41,-24.7 -31.11,-39.55l-67.49 -75.37c9.3,34.79 2.7,0.54 7.78,26.61 4.87,24.96 3.43,-25.76 1.39,19.87z"/>
   <path class="fil2" d="M5985.45 3710.15c16.45,-11.88 6.73,7.96 15.69,-22.96l7.65 -56.06c12.08,-9.43 32.82,-14.41 35.07,-15.76 -0.2,-43.46 -9.18,-109.29 6.13,-144.15l-35.88 -3.15c-7.74,75.86 -34.3,163.25 -28.67,242.08z"/>
   <path class="fil2" d="M4625.31 5676.8c51.48,-10.01 74.21,-34.51 120.36,-62.42 23.33,-14.11 8.39,-14.18 29.09,-26.19 9.96,-5.78 23.56,-5.59 39.6,-13.43 39.09,-19.11 7.86,-2.19 31.17,-27.1 31.34,-33.5 39.94,-7.52 50.16,-66.28 -43.84,18.1 -39.15,26.31 -67.67,49.25 -22.97,18.48 -49.28,25.74 -67.84,42.15 -46.52,41.13 -113.82,69.09 -134.88,104.02z"/>
   <path class="fil2" d="M1221.33 5518.79c-9.8,-23.39 -5.59,-27.02 -29.72,-41.07 -34.37,-20.01 -24.43,2.73 -35.28,-35.26l-180.66 -149.75 23.85 69.91c33.44,-12.47 63.4,26.04 94.22,55.8 33.69,32.53 58.44,18.14 62.23,92.56l65.36 7.83z"/>
   <path class="fil2" d="M922.52 5239.72l-7.11 -29.06 -1.16 -0.61c-43.85,-16 -68.76,-60.71 -100.96,-95.66 -23.04,-25.01 -59.58,-76.56 -84.7,-93.93 -24.07,-11.49 -9.91,-4.2 -23.83,-18.66l-19.38 -18.41 5.55 40.96c87.52,59.09 64.89,63.77 123.09,120.38 26.44,25.71 20.36,17.7 27.3,60.14 65.45,-18.47 25.92,39.25 81.2,34.84z"/>
   <path class="fil4" d="M4416.06 2298.86c21.28,-3.46 4.71,8.25 33.57,-20.02 11.95,-11.71 17.21,-15.41 30.44,-26.25l124.76 -104.26c64.75,-61.26 56.27,-19.73 53.38,-66.59 -15.07,5.5 -2.8,-1.8 -23.19,9.59l-106.19 91.25c-27.08,25.26 -107.18,79.65 -112.78,116.28z"/>
   <path class="fil3" d="M1810.17 3752.96c29.11,-2.67 30.33,-9.14 49.43,-29.66 6.85,-7.36 15.19,-15.44 19.92,-19.17 1.16,-0.91 3.08,-2.19 4.26,-3.08 46.2,-34.81 84.3,-85.67 115.59,-98.08 13.76,-19.43 27.63,-27.36 41.52,-38.04 2.85,-2.19 22.25,-16.71 22.48,-16.95 17.48,-18.04 13.52,0.89 12.07,-29.1 -36.65,9.88 -104.7,83.67 -140.71,113.61l-70.58 55.8c-53.69,56.39 -58.07,34.55 -54,64.67z"/>
   <path class="fil2" d="M1307.39 4173.34c29.61,-12.42 57.41,-52.19 108.2,-88.28l253.61 -219.84c11.91,-8.87 18.51,-11.04 28.45,-19.11 24.43,-19.85 16.29,-12.75 25.39,-38.04 -38.78,13.73 -94.79,81.3 -106.75,90.19l-252.84 213.46c-28.42,33.21 -18.48,18.03 -50.69,35.95l-5.39 25.67z"/>
   <path class="fil4" d="M5482.71 4833.89c62.21,-58.46 68.47,-90.61 101.25,-141.94 32.79,-51.35 115.26,-217.89 150.81,-251.28l-5.43 -23.36c-20.05,14.63 -69.49,115.73 -86.71,152.16 -18.3,38.71 -0.3,16.38 -39.14,33.18 -0.46,38.93 -5.14,45.52 -24.11,68.06 -34.53,41.06 -10.34,9.83 -29.7,56.19 -9.02,21.6 -45.48,44.05 -66.97,106.98z"/>
   <path class="fil3" d="M3582.9 3006.05c44.6,-4.41 17.01,0.31 58.15,-36.17 40.78,-36.15 141.85,-101.39 151.99,-150 -34.62,12.46 -88.26,66.82 -115.41,91.25 -18.99,17.09 -32.46,26.39 -51.35,43.29 -21.15,18.93 -47.61,21.89 -43.39,51.63z"/>
   <path class="fil4" d="M2075.45 3518.89c1.45,29.99 5.41,11.06 -12.07,29.1 -0.24,0.24 -19.63,14.76 -22.48,16.95 -13.89,10.68 -27.76,18.61 -41.52,38.04l28.69 0.33c18.88,-34.56 62.36,-69.8 92.78,-85.96l89.08 -82.82c24.5,-19.2 46.41,-34.83 57.93,-60.88 -30.19,3.3 -32.1,15.84 -52.71,33.34 -26.19,22.26 -22.65,15.8 -46.59,41.38 -8.18,8.74 -87.9,67.85 -93.11,70.52z"/>
   <path class="fil2" d="M1988.79 2778.13c-10.2,-38.2 -140.31,-131.37 -176.84,-163.3l-41.2 -23.28c7.78,44.94 25.54,21.89 49.68,56.18 23.15,32.87 -7.58,5.32 36.88,32.35 37.93,23.07 80.05,93.27 131.49,98.06z"/>
   <path class="fil4" d="M4120.44 3844.38l1.58 0.26c34.38,11.92 6.39,-1.93 34.05,19.97 10.91,8.64 16.67,12.16 26.94,21 20.78,17.87 41.55,28.64 52.19,52.58 2.21,-0.35 5.63,-2.89 6.68,-0.52 1.02,2.28 5.06,-0.37 6.44,-0.1 24.4,4.8 26.66,13.71 45.05,23.4l-121.73 -111.43c-34.45,-23.04 -10.68,-11.34 -31.74,-31.52 -20.36,-19.52 -14.62,-4.09 -34.6,-20.77 -17.95,-14.98 -4.2,-13.6 -25.3,-29.89l-44.28 -18.7c24.88,55.23 57.31,42.37 84.71,95.72z"/>
   <path class="fil4" d="M1153.39 821.12c75.78,-14.48 49.96,-32.13 91.7,-58.04 87.22,-54.15 21.25,-47.04 92.2,-50.95l35.18 -52.89c-27.22,4.19 -28.81,2.3 -71.39,34.21 -17.22,12.9 -26.3,22.25 -47.26,37.73 -32.28,23.85 -82.45,57.77 -100.43,89.94z"/>
   <path class="fil2" d="M614.02 4885.76l-95.05 -131.37 6.95 134.02c25.26,-10.85 55.97,-6.04 88.1,-2.65z"/>
   <polygon class="fil1" points="4152.72,5992.77 4156.92,5940.79 4089.57,5943.06 4056.55,5945.42 4037.47,5995.59 "/>
   <path class="fil2" d="M4585.87 2359.52c39.97,9.44 51.28,-31.73 81.18,-53.94 71.76,-53.33 17.11,-41.16 80.35,-54.36l13.92 -33.05c0.76,-1.32 2.41,-3.88 3.04,-4.93 0.62,-1.06 2.16,-3.18 3.11,-4.84l-22.33 0.22c-24.01,26.52 -52.41,49.49 -79.14,72.11 -15.7,13.28 -24.6,18.15 -41.8,35.63 -8.79,8.94 -12.5,12.36 -20.24,20.52l-18.09 22.65z"/>
   <path class="fil4" d="M4247.57 2423.78c-1.42,2.21 -7.5,12.79 -8.56,14.87 -1.13,2.22 -2.66,5.37 -3.77,7.59 -1.1,2.2 -2.29,5.09 -3.5,7.6 41.08,-13.64 33.07,-1.62 55.06,-30.88l122.5 -107.01c13.49,-20.29 -0.06,14.83 6.76,-17.1 -49.41,2.34 -116.61,104.56 -168.5,124.92z"/>
   <path class="fil4" d="M1810.17 3752.96c-13.64,32.39 -7.47,12.28 -33.2,36.07l-68.76 71.13c15.09,-8.18 35.34,-15.76 46.75,-28.35 10.66,-11.75 1.63,-9.95 17.17,-22.71 13.68,-11.24 7.22,-2.61 21.13,-11.12 27.84,-17.04 10.79,-16.9 34.39,-35.52l145.73 -122.97c22.4,-20.48 20.63,-24.03 26,-36.52 -31.29,12.42 -69.39,63.27 -115.59,98.08 -1.19,0.89 -3.11,2.17 -4.26,3.08 -4.73,3.73 -13.07,11.81 -19.92,19.17 -19.11,20.52 -20.32,26.99 -49.43,29.66z"/>
   <path class="fil4" d="M2983.03 3623.83l44.54 49.13c31.78,11.95 132.84,-63.09 129.36,-89.85l-24.65 -0.16c-37.82,60.48 -15.5,13.6 -68.93,56.79l-16.41 11.91c-27.96,-9.32 -22.3,-8.39 -37.88,-28.96l-26.04 1.15z"/>
   <path class="fil4" d="M4614.91 4234.51c-23.8,-26.69 -34.65,-35.34 -60.97,-56.63l-83.37 -74.87c-21.46,-23.65 -10.41,-5.72 -33.43,-22.58 -37.18,-27.22 6.66,-14.92 -59.2,-46.42 15.17,33.22 54.16,59.12 85.29,82.46 56.98,42.74 52.91,49.95 76.73,67.62 25.57,18.96 32,49.92 74.96,50.42z"/>
   <path class="fil4" d="M3156.94 3583.11c19.41,-2.59 11.89,0.92 28.06,-10.6 6.91,-4.92 16.2,-14.11 21.34,-18.72 38.59,-34.59 107.13,-71.97 126.98,-120.04 -53.48,8.9 -19.57,12.5 -51.65,35.14 -26.24,18.53 -27.01,18.37 -45.59,35.5 -29.09,26.83 -62.59,40.67 -79.15,78.73z"/>
   <path class="fil4" d="M1004.17 957.12c81.22,-36.04 24.36,-26.95 71.45,-55.68 56.21,-34.29 19.04,-37.43 75.17,-51.43l2.83 -28.99c-40.2,11.15 -57.85,35.25 -84.18,57.74 -46.4,39.6 -52.15,37.61 -65.27,78.35z"/>
   <path class="fil2" d="M79.61 3462.29l-3.53 -152.9 -25.63 4.15 -0.31 143.85c10.12,5.45 -2.17,4.66 29.47,4.9z"/>
   <path class="fil3" d="M4336.09 2550.82c-12.11,26.28 -4.48,3.29 -1.7,22.46 26.59,-11.39 123.76,-98.89 160.99,-130.27 28.09,-23.7 13.09,4.24 23.99,-36.07 -40.62,16.33 -41,32.57 -92.22,76.71l-91.05 67.16z"/>
   <path class="fil1" d="M1625.37 5834.69l91.85 5.09c-5.97,-18.81 -5.38,-20.89 -12.07,-36.53 -21.53,-3.51 -50.67,-12.62 -64.45,-22.76 -19.6,12.57 -10.96,-1.1 -17.87,22.75 -5.55,19.15 0.33,20.1 2.55,31.45z"/>
   <path class="fil3" d="M3698.61 3247.23l-5.97 -24.89 -36.72 -26.09 8.29 -38.74 32.81 -43.94c-58.46,31.61 -67.41,54.67 -58.41,98.98 16.4,10.1 30.07,21.28 40.36,35.22l19.65 -0.54z"/>
   <path class="fil2" d="M4235.2 3938.19c-10.64,-23.94 -31.41,-34.71 -52.19,-52.58 -10.27,-8.84 -16.04,-12.36 -26.94,-21 -27.66,-21.9 0.33,-8.05 -34.05,-19.97 5.33,16.93 0.74,18.7 17.87,36.42 11.99,12.4 15.17,8.41 28.79,17.73 37.97,25.98 3.3,41.22 66.52,39.4z"/>
   <path class="fil3" d="M1522.61 4217.01c42.05,-5.64 34.81,-18.53 57.96,-38.08 29.46,-24.88 30.34,-2.06 47.89,-49.07 -22,-1.28 -16.04,-16.91 -19,3.7 -32.47,18.38 -75.59,47.67 -86.84,83.45z"/>
   <path class="fil4" d="M3211.14 3338.88c58.26,-10.11 33.72,-13.28 58.4,-37.9 30.39,-30.32 36.02,5.35 42.37,-51.72 -35.11,11.66 -68.73,47.83 -87.54,68.75 -27.5,6.3 -1.57,-2.96 -13.24,20.87z"/>
   <path class="fil3" d="M3494.64 3077.42c30.74,6.85 31.42,-9.36 52.9,-27.41 8.52,-7.15 16.54,-9.75 23.15,-16.27 21.95,-21.65 10.93,-1.74 12.21,-27.7 -31.63,1.69 -32.07,8.94 -51.19,27.77 -9.08,8.94 -14.11,11.83 -20.96,18.42 -20,19.21 -8.63,3.18 -16.11,25.18z"/>
   <path class="fil4" d="M2333.06 2867.02l-7 -24c-32.04,-8.69 -44.76,-23.11 -67.09,-43.35 -27.94,-25.33 -22.44,-45.17 -70.85,-53.08l1.02 19.51c64.47,12.19 18.54,15.81 72.08,47.41 35.78,21.1 19.56,30.19 71.84,53.52z"/>
   <path class="fil4" d="M2188.91 2741.74c-9.56,-29.39 5.63,-3.52 -9.57,-20.03 -12.79,-13.9 -85.6,-43.72 -97.76,-90.46l-17.62 1.28 21.23 33.15c16.05,16.23 19.45,12.34 32.74,23.25 34.28,28.1 -14.31,10.59 70.98,52.81z"/>
   <path class="fil3" d="M1221.33 5518.79l12.53 -1.74 22.43 5.46c-14.38,-23.9 -21.12,-19.7 -42.27,-40.59 -26.87,-26.52 -16.88,-23.09 -57.69,-39.46 10.85,38 0.91,15.26 35.28,35.26 24.13,14.05 19.93,17.69 29.72,41.07z"/>
   <path class="fil3" d="M4516.09 2410.09c31.01,-3.41 61.2,-26.56 69.78,-50.56 -22.47,-8.11 -20.8,-2.46 -38.81,13.84 -13.27,12.01 -19.37,19.43 -30.97,36.72z"/>
   <path class="fil3" d="M678.93 4971.72l6.44 11.67 19.38 18.41c13.93,14.45 -0.24,7.17 23.83,18.66 -5.39,-16.04 -6.89,-28.28 -16.75,-41.72 -4.48,-6.11 -8.85,-9.33 -14.58,-14.61 -1.53,-1.42 -3.2,-3.07 -4.8,-4.49l-17.03 -14 3.5 26.08z"/>
   <path class="fil3" d="M1459.42 4272.69c23.81,-3.69 21.54,-8.03 37.14,-20.13 18.97,-14.72 19.54,-9.8 27.18,-36.89 -39.52,14.8 -46.23,23.43 -64.32,57.02z"/>
   <path class="fil4" d="M2983.03 3623.83l-22.04 -40.65 -30.05 -1.87c12,28.25 24.62,38.83 52.08,42.51z"/>
   <path class="fil4" d="M2063.96 2632.53l-118.68 -101.52c16.95,29.82 93.06,96.48 118.68,101.52z"/>
   <path class="fil2" d="M1394.31 4327.46l-9.18 17.25c14.46,-5.52 21.44,-8.81 30.89,-14.83 38.91,-24.84 18.83,1.67 23.81,-29.88 -25.78,8.41 -26.34,11.94 -45.52,27.46z"/>
   <path class="fil2" d="M678.93 4971.72l-3.5 -26.08c-9.1,-19.33 -9.85,-13.48 -21.69,-19.73l-1.33 34.89 26.52 10.93z"/>
   <path class="fil3" d="M4745.13 2208.62l22.33 -0.22 29.34 -39.9c-33,14.56 -28.86,8.41 -51.67,40.13z"/>
  </g>
 </g>
</svg>
