<?xml version="1.0" encoding="UTF-8"?>
<!DOCTYPE svg PUBLIC "-//W3C//DTD SVG 1.1//EN" "http://www.w3.org/Graphics/SVG/1.1/DTD/svg11.dtd">
<!-- Creator: CorelDRAW 2019 (64-Bit) -->
<svg xmlns="http://www.w3.org/2000/svg" xml:space="preserve" width="6.1in" height="6.3in" version="1.1" style="shape-rendering:geometricPrecision; text-rendering:geometricPrecision; image-rendering:optimizeQuality; fill-rule:evenodd; clip-rule:evenodd"
viewBox="0 0 6100 6300"
 xmlns:xlink="http://www.w3.org/1999/xlink">
 <defs>
  <style type="text/css">
   <![CDATA[
    .fil1 {fill:#5D6BB2}
    .fil3 {fill:#AB4791}
    .fil4 {fill:#D74669}
    .fil6 {fill:#F05F40}
    .fil5 {fill:#F3914C}
    .fil2 {fill:#FAC268}
    .fil0 {fill:#FDFDFD}
   ]]>
  </style>
 </defs>
 <g id="Layer_x0020_1">
  <metadata id="CorelCorpID_0Corel-Layer"/>
  <g id="_1904141294048">
   <path class="fil0" d="M4643.01 1681.39c27.41,23.57 40.49,48.91 56.15,75.31 62.54,105.4 101.83,229.15 117.15,351.81l1.69 463.09c-0.68,351.81 1.35,704.35 -0.71,1056.2l0.05 517.33c2.99,68.51 -8.07,139.09 -28.26,203.3 -21.63,68.8 -53.4,126.58 -66.92,163.19 -19.26,52.14 -99.65,160.82 -145.65,200.89l-29.11 28.78c-55.62,57.19 -20.96,37.71 -61.92,59.48l-9.75 5.3c-0.53,0.37 -13.53,12.13 -15.44,13.85 -38.46,34.82 -168.81,97.04 -227.98,117.16 -40.79,13.87 -39.22,18.64 -87.28,26.13 -213.9,33.32 -84.25,22.05 -318,22.16 -304.46,0.15 -611.76,-4.4 -914.96,1.28 -149.64,2.81 -305.61,2.83 -454.63,0.7 -54.93,-0.78 -391.25,14.65 -439.19,-15.27 -37.28,1.96 -105.52,-21.35 -145.65,-34.19 -174.31,-55.79 -305.97,-159.98 -418.98,-303.91 -15.31,-19.5 -24.15,-37.91 -36.27,-57.75 -46.1,-75.54 -123.87,-228.56 -121.55,-321.32 -28.06,-25.95 -12.91,-343.5 -12.87,-400.29l-2.41 -1247.92c0.85,-186.97 -7.93,-377.15 14.44,-562.84l59.41 -193.37c64.66,-129.37 71.2,-139.17 167.71,-250.23 31,-35.67 71.54,-70.21 110.15,-99.23 72.74,-54.69 183.95,-113.1 272.17,-137.74 27.16,-7.57 65.5,-19.39 84.53,-22.84 162.81,-29.63 1132.92,-11.85 1340.36,-13.26l684.13 2.21c2.31,0.35 3.91,0.8 6.18,1.18 2.22,0.37 3.85,0.83 6.08,1.2 121.55,20.24 58.39,-8.56 198.52,40.52 157.89,55.29 155.57,69.44 270.42,148.33 44.92,30.85 127.55,113.43 148.43,160.73l-0.04 0.03zm-3853.47 440.75c-7.85,216.84 2.13,440.17 -0.17,657.7l0.92 1298.42c2.93,277.13 20.62,326.28 95.5,556.74l21.73 48.28c76.89,149.49 133.16,249.39 257.76,376.85 15.14,15.5 27.96,30.75 42.83,43.63l195.79 156.47c5.47,3.49 7.04,4.15 13.53,8.19l13.26 8.44c47.05,29.74 135.04,69.66 145.29,87.07 48.88,-1.26 77.69,35.82 173.8,56.07 50.54,10.65 132.11,40.6 186.96,45.01 144.57,11.61 295.69,17.96 445.09,11.84l451.86 0.15c142.44,-7.89 621.19,-3.09 785.11,-0.68 139,2.04 519.37,14.49 648.94,-33.44 28.31,-10.46 52.42,-10.48 79.88,-21.41l70.61 -23.72c25.48,-8.99 39.61,-20.33 69.87,-29.47 53.38,-16.12 61.79,-26.25 99.02,-46.5 11.23,-6.09 21.47,-9.97 33.3,-17.21 35.83,-21.9 130.11,-76.45 161.6,-105.03 6.65,-6.03 9.94,-9.39 15.35,-14.1 13.14,-11.43 14.7,-11.38 26.3,-24.24 64.03,-71.04 29.87,-22.98 75.04,-62.09l95.4 -105.94c30.02,-22.61 61.81,-78.42 81.32,-113.57l87.29 -137.46c3.85,-8.79 4.93,-16.8 6.73,-21.88 6.88,-19.57 3.63,-19.94 23.32,-28.19l81.74 -248.47c24.7,-65.72 34.09,-230.86 34.16,-307.65 0.15,-225.88 -0.1,-452.27 -0.28,-678.05l0.83 -1009.8c0.07,-108.34 3.56,-227.64 -1.14,-334.65l-2.96 -108.55 -9.65 -25.9c-1.13,-5.1 -1.3,-13.27 -2.26,-19.54 -11.79,-76.06 -40.47,-172.8 -67.5,-246.62 -7.76,-21.17 -16.27,-48.76 -25.91,-68.08l-71.26 -136.81c-6.86,-10.22 -2.26,-2.65 -8.82,-12.91 -135.25,-211.39 -190.51,-266.72 -371.17,-403.4 -11.66,-13.57 -7.97,-8.92 -21.15,-19.72 -41.97,-34.41 -56.4,-30.55 -81.41,-48.88 -6.94,-5.08 -16.3,-13.59 -23.79,-18.72l-27.07 -15.88c-113,-50.56 -121.53,-58.43 -248.47,-97.89 -25.37,-7.89 -40.64,-16.7 -65.43,-21.6 -98.78,-19.56 -195.57,-34.83 -309.93,-34.89l-1716.78 0.16c-206.13,0.02 -343.19,-1.18 -537.07,67.04l-292.68 139.57c-36.57,22.06 -69.66,40.77 -103.6,69.66l-48.68 38.3c-15.88,11.35 -28.06,24.82 -41.85,37.76l-235.28 283.73c-53.7,81.46 -81.16,139.21 -118.17,228.31 -18.3,44.03 -52.79,153.19 -59.25,202.47l-19.91 113.61c-12.04,51.34 -2.92,58.39 -8.46,107.56l-0.03 -0.05z"/>
   <path class="fil1" d="M55.76 3649.05c14.12,-68.4 -3.14,-764.97 8.74,-808.47l4.3 -10.27c17.18,5.83 5.42,1.88 17.15,12.19l31.35 83.22c4.15,21.5 -4.19,19.01 0.43,30.02l8.52 10.55c8.85,7.39 0.91,2.71 13.81,7.48 0.22,-195.74 21.88,-87.82 21.83,-194.79 24.09,11.91 21.5,8.09 28.21,38.02l-0.61 19.2c-1.51,17.11 -11.44,-1.01 1.93,22.16l28.18 -115.41 57.78 21.8c-8.84,-37.62 -3.92,-47.08 0.06,-93.72 30.47,10.45 14.41,22.56 35.32,18.06 26.08,-5.63 10.98,-20.79 9.87,-29.62 -1.61,-12.83 -4.42,0.94 -0.09,-15.98 11.58,-45.17 29.51,-24.46 48.67,-22.78 -34.67,-30.87 -15.37,-18.43 -14.34,-64.91l15.57 28.85c30.7,-7.31 18.69,3.96 42.15,-7.44l-21.62 -42.6 21.57 -21.63c-19.94,-25.85 -11.51,-1.5 -21.62,-29.31 80.94,16.13 65.87,-10.3 107.94,-0.25 -10.6,-44.68 7.19,-41.44 8.8,-43.44 2.77,36.71 -5.63,13.76 12.87,21.75l-4.39 -23.14c-0.6,-1.41 -1.7,-3.27 -2.39,-4.69 -13.23,-26.13 -1.45,16.33 -14.77,-22.46 48.68,5.29 -1.64,-0.1 36.04,14.37 6.49,-27.3 6.11,-14.79 0,-42.65l37.83 -12.78c24.25,-12.54 5.58,12.27 22.28,-14.22 8.44,-13.38 5.08,-19.81 5.13,-38.28l28.43 35.75c0.03,-34.76 5.1,-29.39 7.48,-57.58 26.73,5.48 21.15,12.33 21.73,-21.52l15.5 -0.33c2.82,36.98 -5.93,13.64 13.01,21.68 2.69,-23.14 -0.28,-5.62 4.85,-16.67l11.41 -17.54c0.95,-1.16 2.54,-2.59 3.52,-3.72l10.33 -11.26c0.96,-1.13 2.28,-2.81 3.22,-3.96l19.04 -24.06c8.44,-16.55 5.39,-15.91 5.39,-38.26l15.54 0.28 -0.02 64.94c14.74,-25.63 13.41,-83.47 6.35,-115.68l21.48 -7.81c5.53,-49.16 -3.59,-56.22 8.46,-107.56l19.9 -113.61c6.46,-49.28 40.95,-158.44 59.25,-202.47 37.02,-89.1 64.48,-146.85 118.17,-228.31l235.28 -283.73c13.79,-12.94 25.97,-26.4 41.85,-37.76l48.68 -38.3c33.94,-28.89 67.04,-47.62 103.6,-69.66l292.68 -139.57c193.86,-68.21 330.94,-67.02 537.07,-67.04l1716.79 -0.17c114.35,0.07 211.14,15.35 309.93,34.89 24.8,4.9 40.06,13.72 65.43,21.6 126.94,39.45 135.47,47.33 248.47,97.89l27.07 15.88c7.5,5.13 16.85,13.64 23.79,18.72 25,18.33 39.44,14.47 81.41,48.88 13.17,10.8 9.48,6.13 21.15,19.72l5.83 -38.49c67.9,-0.88 26.37,4.44 47.62,15.87 16.21,8.72 24.95,5.45 35.95,14.67 13.57,11.36 -7.19,6.3 24.95,24.79l21.11 16.21c0.95,-26.74 -0.35,-17.64 7.56,-35.78 127.46,21.53 59.78,73.88 128.7,79.41 -7.46,24.69 -24.41,21.18 1.04,21.63 1.98,-53.71 17.07,-5.5 21.62,-65.11 56.32,0.46 45.81,33.16 115.85,20.96l28.59 -10.68c1.11,-2.73 3.94,-2.24 6.09,-2.89 0.28,35.8 0.71,29.67 14.52,50.21l1.71 -16.73c0.17,-2.44 1.43,-3.37 2.31,-4.96 20.65,4.19 20.98,5.45 45.85,2.65l47.71 -2.03c0.43,1.18 -0.15,4.59 0.2,6.83 30.69,-8.47 28.76,-20.8 39.32,14.3 28.24,-14.65 -16.3,-10.92 36,-21.72 17.73,21.05 8.96,-6.68 14.28,29.14 6.86,-37.36 -7.82,-11.21 21.65,-21.6 1.33,42.91 2.51,39.26 28.36,58 19.2,13.93 7.43,12.38 22.98,13.87 -22.28,-9.17 -13.21,1.02 -14.14,-35.84l39.11 35.92c33.03,0 28.61,-8.82 47.7,-6.98l61.62 7.94c36.86,16.22 -28.48,20.33 45.04,18.46 43.83,-1.11 29.69,9.04 29.97,-19.01l20.22 0.03 4.65 35.59c29.59,6.22 22.54,5.54 53.68,-0.03 5.39,26.43 7.88,11.73 0.13,35.94 22.76,-2.21 13.13,7.85 15.11,-21.69l20.77 0.13c2.24,32.78 -3.74,17.72 8.65,19.26l20.67 -8.43c1.17,-2.99 4.24,-2.68 6.61,-3.38l0.04 35.84c10.76,-25.33 28.52,-4.96 37.08,-2.71l32.94 -0.85c1.88,-0.61 3.96,-1.66 5.67,-2.31l19.06 5.93 20.77 -0.07c1.99,36.15 -12.86,17.05 99.68,15.8l-22.15 -142.54c-23.84,-115.58 -17.02,-81.34 -54.97,-191.59 -8.54,-24.79 -16.63,-40.21 -24.52,-62.32 -13.22,-37.1 -36.37,-82.26 -54.13,-111.46 -77.9,-128.06 -72.7,-134.66 -170.96,-239.98 -17.48,-18.74 -17.78,-28.26 -39.19,-47.17l-33.48 -31.28c-28.99,-36.6 -156.32,-128.87 -198.28,-156.58 -12,-7.91 -10.73,-8 -25.72,-17.07l-135.34 -74.21c-21.66,-11.88 -100.15,-41.53 -118.33,-46.68l-158.69 -43.86c-18.08,-4 -20.06,-3.11 -39.85,-6.1 -34.57,-5.23 -25.69,-11.11 -73.3,-11.93 -58.53,-0.99 -26,-6.98 -64.58,-10.9l-259.92 -0.43c-444.32,0.65 -889.78,3.87 -1334.23,1.16l-1666.3 0c-86.33,0.5 -254.56,-14.2 -326.49,4.7 -13.22,3.47 6.34,3.39 -27.56,6 -101.59,7.84 -142.63,17.94 -246.08,50.8 -25.35,8.06 -38.3,9.2 -59.68,18.09 -133.93,55.65 -265.15,123.8 -376.6,215.91 -79.03,65.32 -184.33,175.65 -238.83,259.09 -11.26,17.25 -23.38,26.46 -33.39,46.27l-89.58 162.35c-29.22,51.08 -46.7,135.24 -68.23,184.99 -14.1,32.59 -9.81,32.1 -16.3,71.77 -8.41,51.29 -11.55,31.85 -19.02,102.21 -1.3,12.13 -0.5,7.29 -2.99,17.84 -23.2,98.39 -7.04,230.9 -9.2,343.34 -4.25,221.12 -0.95,449.12 -0.19,670.84 0.77,223.61 0.98,447.24 1.35,670.86 0.37,216.38 8.01,453.29 -0.83,667.22l0.02 -0.01z"/>
   <path class="fil0" d="M2361.27 3104.45c0.19,-153.46 43.9,-283.3 123.41,-396.87 25.44,-36.35 45.57,-48.94 79.53,-87.42 49.2,-55.75 208.62,-117.31 291.93,-134.29 93.35,-19.01 124.85,-24.59 227.88,-24.96 221.64,-0.81 376.11,107.76 511.82,261.14 64.46,72.86 135.15,270.89 143.09,367.56 10.64,129.34 -21.91,276.93 -81.11,387.25 -5.8,10.82 -0.1,1.3 -7.66,12.84 -1.13,1.72 -4.65,6.33 -5.85,8.06l-75.71 105.83c-22.83,31.32 -78.1,77.01 -109.46,101.15l-133.09 74.88c-40.49,21.3 -84.46,32.03 -128.04,43.25 -60.17,15.48 -164.87,24.67 -235.58,14.77 -1.98,-0.28 -3.84,-0.61 -5.7,-0.98l-185.46 -58.7c-66.29,-29.04 -109,-58.05 -159.18,-100.61l-40.56 -38.46c-87.31,-88.52 -62.6,-72.4 -113.92,-145.45l-34.02 -68.15c-47.32,-94.11 -62.43,-212.84 -62.3,-320.84l-0.02 0zm-498.24 -525.61l-46.82 144.79c-0.55,1.5 -1.28,3.42 -1.85,4.9 -27.44,71.59 -32.16,147.37 -44.51,222.24 -7.64,46.4 -8.29,100.75 -7.94,154.04 1.26,192.19 -0.35,119.35 25.04,295.41 4.02,27.88 7.43,38.45 14.25,64.2l85.14 230.31c0.72,1.38 1.72,3.19 2.39,4.65l25.26 55.01c0.65,1.15 7.39,13.47 7.71,14.06l145.28 215.65 159.43 158.87c14.74,12.13 29.27,20.42 44.48,34.26l143.38 94.88c26,15.76 34.82,8.56 46.09,33.69 52.03,6.74 228.12,114.67 409.87,119.34 69.59,1.17 49.16,15.13 177.72,14.17 99.74,-0.74 256.56,-22.59 349.26,-42.94l359.44 -165.31c1.33,-0.9 2.96,-2.24 4.22,-3.19l82.14 -61.29c45.42,-38.59 56.14,-40.65 104.78,-90.46l56.36 -49.07 117.65 -158.53c0.93,-1.2 2.37,-2.74 3.34,-3.91l49.04 -80.81c6.06,-14.27 9.65,-19.47 17.08,-34.09 51.07,-100.68 39.16,-60.69 80.69,-187.1l28.44 -75.91c2.44,-33.72 7.08,-30.27 12.37,-54.09l12.18 -90.33c1.64,-42.83 8.95,-35.1 12.3,-64.93 2.33,-20.73 2.33,-56.88 3.06,-79.09 3.2,-95.68 -10.12,-263.52 -32.8,-349.09l-21.78 -80.92c-14.47,-44.18 -25.87,-72.85 -42.92,-115.56 -37.72,-94.58 -110.08,-224.23 -177.2,-305.89 -63.26,-76.94 -74.46,-93.99 -152.85,-164.64 -135.77,-122.38 -236.23,-175.92 -399.91,-241.93 -27.66,-11.17 -26.9,-13.35 -57.77,-21.23 -2.07,-0.53 -4,-0.83 -6.06,-1.38l-11.48 -3.41c-22.55,-7.89 -15.25,-10.56 -41.35,-14.25 -38.65,-4.96 -80.77,-19.09 -121.87,-24.77 -101.35,-13.99 -172.83,-15.62 -276.9,-12.78 -190.01,5.18 -226.93,32.61 -368.17,59.81 -12.04,2.31 -20.13,3.85 -29.69,7.53l-77.69 28.91c-40.29,11.21 -91.76,43.08 -144.26,66.04l-174.06 113.35c-1.17,0.95 -2.83,2.31 -3.97,3.26l-34.52 29.35c-72.7,61.01 -146.48,148.41 -200.08,225.48 -38,54.66 -58.38,112.27 -88.95,163.66l-13.02 19.07 0.02 -0.05z"/>
   <path class="fil2" d="M2833.65 5476.98c5.4,20.85 23.66,11.9 51.83,11.94 -7.41,19.84 -9.73,16.15 3.78,29.29 1.51,-6.13 -8.8,-23.78 19.97,-26.3 36.24,-3.19 4.49,-2.44 18.13,4.9 16.52,16 -0.22,34.31 -10.3,44.49 -32.58,32.86 -13.44,39.59 -22.58,64.85 -13.54,37.33 -4.92,2.64 -17.38,24.4 -9.07,15.87 -1.38,10.77 -4.95,26.77 -4.67,21.04 -19.41,29.13 -30.48,36.74 4.04,12.08 1.44,5.13 6.31,13.23l-14.22 15.63c8.54,17.13 9.17,16.74 -0.7,36.22l-27.39 24.28c2.04,19.78 12.7,15.02 27.83,26.06 -6.86,5.17 -4.04,3.92 -15.33,9.07 -1.56,0.71 -10.07,2.31 -12.4,2.86l27.91 19.3c-19.16,0 -32.83,-3.22 -35.87,-2.37l4.31 159.13c-0.87,54.84 -6.28,8.9 -18.16,42.86l21.35 7.2c-23.39,35.85 -21.11,1.11 -21.44,64.93 13.47,3.49 -8.94,-11.57 10.16,2.22 15.41,11.15 5.44,-8.44 3.99,7.87l-168.41 11.81c-31.26,0.12 -62.52,0.46 -93.8,0.63 -23.79,0.12 -59.66,-4.67 -79.38,8.22 163.13,8.21 341.54,-1.11 504.99,-1.01l1882.71 -0.67 213.2 -37.13c99.48,-25.14 176.42,-60.51 269.51,-100.73 48.08,-20.77 122.94,-67.07 166.67,-100.35l7.97 -5.96c1.2,-0.83 3.01,-1.91 4.25,-2.74 11.38,-7.63 5.18,-1.73 17.63,-11.66 13.17,-10.52 5.2,-7.08 19.11,-16.96 14.69,-10.43 16.22,-5.2 37.57,-26.93l14.57 -15.47c6.11,-5.54 23.81,-17.64 31.98,-24.37l151.09 -166.44c13.89,-15.53 0.12,2.89 13.82,-16.36 26.08,-36.65 36.1,-41.2 50.56,-71.78 3.01,-6.34 6.41,-13.31 9.23,-21.36 -45.78,-8.79 3.56,-37.88 -28.49,-16.8 -3.9,2.58 4.83,4.45 -16.94,11.87l-8.47 -43.1c-0.58,-0.88 -1.96,-2.61 -2.64,-3.49 -14.14,-18.36 0.46,-0.41 -17.57,-17.97l-48.59 -87.29c1.79,-34.43 -2.24,-14.32 5.41,-21.5 -17.57,1.81 -6.93,12.08 -35.78,21.6l-0.33 -71.59c6.61,36.12 1.26,13.81 -21.68,21.76 0.05,-63.3 12.43,-44.74 14.15,-45.84 -37.22,11.69 -33.66,-7.85 -36,-9.65 2.16,-4.06 -6.05,-8.74 21.57,-14.44 -8.52,-6.4 -3.99,-2.59 -13.11,-10.73 -0.96,-0.87 -2.61,-2.37 -3.6,-3.3l-28.8 -31.4c-0.4,2.37 -1.41,9.29 -2.15,10.37 -10.18,15.07 11.88,-1.3 -12.28,11.17l-8.36 -10.04c-1.18,-1.44 -2.8,-3.17 -4.02,-4.75 -1.84,-2.36 -9.14,-11.91 -9.9,-13.35 -14.25,-26.98 -4.09,32.99 -3.22,-20.37 0.55,-33.68 -5.78,0.24 -8.76,-59.04 -11.75,-7.53 -21.48,-7.84 -42.98,-7.89 4.1,-13.57 6.98,-21.07 7.41,-35.97 -3.16,31.67 -3.32,2.09 -31.17,13.94 -1.14,-1.66 -2.03,-4.3 -2.54,-5.48 -31.59,-72.35 -25.6,-39.16 -49.71,-61.59 -1.15,-1.08 -2.81,-2.49 -3.92,-3.72 -1.16,-1.3 -2.61,-2.87 -3.67,-4.32 -16.48,-22.28 -6.89,-20.68 -12.28,-40.06 -17.16,-1.07 -0.81,1.3 -14.79,12.98 -1.08,0.9 -4.56,5.63 -5.4,4.06 -0.93,-1.68 -3.67,3.41 -5.94,4.24 -6.67,-25.26 -13.81,-19.37 -15.08,-33.68l6.98 -15.82 -43.84 -21c-13.44,-15.29 -13.5,-21.63 -13.79,-36.89 -12.52,9.2 7.39,9.79 -16.5,7.79 -24.11,-2.01 -33.74,-23.69 -19.59,-43.68 -43.5,-13.78 -22.24,15.32 -37.96,-21.79 -0.88,2.24 -5.6,10.24 -6.86,11.11l-7.54 3.42c-39.59,2.53 8.77,0.37 -47.9,-43.01 -48.43,-37.05 6.63,18.43 -14.92,-15.05 -9.17,6.93 -5.22,7.48 -9.19,10.43 -6.78,5.04 2.46,3.66 -19.16,10.62 -0.15,-112.88 7.54,-43.63 21.4,-111.98 -19.67,8.26 -16.43,8.64 -23.32,28.19 -1.79,5.1 -2.86,13.11 -6.73,21.88l-87.28 137.46c-19.52,35.16 -51.31,90.96 -81.32,113.57l-95.4 105.95c-45.17,39.13 -11.04,-8.95 -75.04,62.09 -11.6,12.86 -13.16,12.83 -26.3,24.24 -5.42,4.7 -8.71,8.07 -15.35,14.1 -31.48,28.57 -125.76,83.13 -161.6,105.03 -11.83,7.23 -22.06,11.11 -33.29,17.21 -37.23,20.25 -45.62,30.4 -99.02,46.5 -30.27,9.14 -44.37,20.48 -69.88,29.47l-70.61 23.72c-27.48,10.91 -51.57,10.93 -79.88,21.41 -129.59,47.93 -509.94,35.48 -648.94,33.44 -163.93,-2.41 -642.67,-7.2 -785.11,0.68l0.01 -0.04z"/>
   <path class="fil3" d="M55.76 3649.05c-4.02,86.7 -13.59,1273.39 6.96,1359.51l30.7 177.33c4.24,17 16.89,44.37 23.85,61.65l55.06 146.87c6.96,12.41 10.37,16.15 16.83,27.56 33.19,58.58 82.37,155.02 126.5,205.91 35.94,41.44 160.54,193.12 208,211.33l32.03 -22.51c0.7,-17.88 2.61,-48.09 1.33,-65.04 -2.8,-36.98 -9.59,-18.62 -22.68,-53.65 1.1,-1.23 2.66,-4.9 3.07,-3.84 0.43,1.08 2.51,-3.09 3.09,-3.91l8.77 -12.56c0.75,-1.11 6.93,-10.77 8.71,-13.26l9.55 -12.19c14.22,-20.71 5.67,15.88 10.5,-30.71l6.65 -45.72c0.1,-0.59 0.28,-2.37 0.37,-2.93l1.59 -16.71c0.1,-0.88 0.61,-3.11 0.7,-4l-1.79 -23.38c-4.44,-43.03 -17.54,-30 5.75,-55.28 35.5,-38.53 36.95,2.86 36.79,-71.2 33.78,-2.18 21.78,-1.59 21.86,-47.31 -24.3,-11.91 22.25,21.6 -15.68,-1.61 -5.32,-3.26 -6,27.22 -5.97,-34.46l35.79 -17.84c-9.37,-17.26 -46.55,-3.82 0.08,-29.31 -48.83,-2.56 -19.04,5.33 -28.61,-20.87 19.01,-4.19 33.3,-3.57 36.22,-4.12 -0.09,-52.68 6.07,-83.87 -8.87,-104.17l-12.99 -43.28c57.62,12.13 2.64,17.17 43.35,21.71l-1.48 -84.58c-0.04,-20.04 3.97,-26.83 -5.2,-51.93l27.82 -9.37c1.78,-0.67 3.56,-1.51 5.37,-2.16l45.47 -10.9c-1.2,-49.47 -15.08,-38.88 14.34,-61.57 -11.81,-9.33 -21.87,-1.39 -14.89,-87.54 1.76,-21.9 -0.46,-30.1 16.83,-38.24 33.08,-15.57 10.15,-5.23 23.04,21.76l37.4 -38.66c0.85,-1.81 2.13,-4.62 2.84,-6.16 0.77,-1.64 1.61,-4.57 3.04,-6.48l25.7 15.2c3.69,-12.21 3.06,-11.28 7.43,-18.57 -14.27,-34.57 -24.47,26.48 -21.8,-96.84 16.83,-3.61 12.91,-2.62 26.58,-10.06 -74.86,-230.48 -92.57,-279.63 -95.5,-556.74l-0.92 -1298.42c2.3,-217.54 -7.69,-440.86 0.17,-657.7l-21.48 7.81c7.06,32.22 8.39,90.05 -6.34,115.68l0.02 -64.94 -15.54 -0.28c0,22.34 3.04,21.72 -5.4,38.26l-19.04 24.06c-0.95,1.14 -2.26,2.82 -3.22,3.96l-10.33 11.26c-0.98,1.13 -2.58,2.56 -3.52,3.72l-11.41 17.54c-5.13,11.05 -2.16,-6.5 -4.85,16.67 -18.94,-8.04 -10.2,15.3 -13.01,-21.69l-15.5 0.33c-0.58,33.84 5,27 -21.73,21.51 -2.37,28.19 -7.42,22.83 -7.48,57.59l-28.43 -35.75c-0.06,18.49 3.3,24.9 -5.13,38.28 -16.71,26.48 1.98,1.7 -22.28,14.22l-37.83 12.78c6.11,27.86 6.52,15.35 0,42.65 -37.69,-14.46 12.64,-9.09 -36.03,-14.37 13.31,38.79 1.54,-3.67 14.77,22.46 0.71,1.41 1.81,3.27 2.39,4.69l4.39 23.14c-18.51,-7.99 -10.1,14.99 -12.87,-21.75 -1.61,2.01 -19.39,-1.23 -8.8,43.44 -42.06,-10.05 -27.01,16.38 -107.94,0.25 10.1,27.81 1.68,3.46 21.62,29.31l-21.57 21.63 21.62 42.6c-23.45,11.39 -11.44,0.13 -42.15,7.44l-15.57 -28.86c-1.03,46.49 -20.33,34.06 14.34,64.91 -19.16,-1.7 -37.08,-22.4 -48.67,22.78 -4.33,16.93 -1.54,3.17 0.09,15.98 1.11,8.84 16.22,23.99 -9.87,29.63 -20.92,4.52 -4.85,-7.59 -35.32,-18.06 -3.97,46.63 -8.9,56.11 -0.07,93.72l-57.78 -21.8 -28.18 115.41c-13.37,-23.16 -3.44,-5.05 -1.93,-22.16l0.61 -19.2c-6.71,-29.93 -4.13,-26.12 -28.21,-38.02 0.05,106.98 -21.62,-0.95 -21.83,194.8 -12.89,-4.77 -4.96,-0.07 -13.81,-7.48l-8.52 -10.55c-4.61,-11.02 3.7,-8.52 -0.43,-30.02l-31.35 -83.22c-11.73,-10.31 0.03,-6.37 -17.15,-12.19l-4.3 10.27c-11.9,43.5 5.39,740.07 -8.74,808.47l0 0.05z"/>
   <path class="fil3" d="M1800.26 1647.33c62.15,-26.48 202.44,22.45 272.22,138.79 25.88,43.17 26.91,43.75 35.82,103.59 5.08,34.16 0.7,93.06 -9.91,130.54 -3.54,12.49 -43.43,74.86 -51.4,83.32 -47.47,50.36 -102.18,88.42 -174.66,100.03 -50.15,8.02 -89.83,-0.71 -129.24,-13.56 -62.8,-20.48 -87.41,-39.29 -127.04,-84.42 -36.6,-41.69 -58.38,-90.15 -62.88,-147.83 -10.42,-133.64 60.21,-241.89 159.06,-288.96 1.51,-0.71 3.35,-1.63 4.95,-2.28 26.3,-10.9 64.51,-11.3 83.09,-19.2l0 -0.01zm-504.47 2607.6l-4.87 -1114.41c-0.05,-58.88 -3.2,-129.7 0.73,-187.25 2.22,-32.52 6.15,-46.95 7.38,-87.47 2.28,-76.33 21.83,18.24 21.96,-74.48 42.55,-0.31 53.59,-4.12 57.72,-43.38l39.02 -0.37 26.08 -35.67c63.2,-66.11 47.51,-17.94 84.11,-53.15l10.12 -12.3c9.52,-13.96 4.31,-7.51 9.52,-21.11l47.19 -0.13c-0.19,-35.9 -2.28,-12.08 4.06,-14.49l7.07 0.03c23.72,-8.56 14.04,-4.4 16.74,-17.84 5.62,-27.9 -6.08,-33.35 -6.15,-33.48 17.81,0.19 3.82,3.61 14.64,-7.02 23.59,-23.17 -3.32,-15.2 53.5,-49.82 -2.77,15.32 14.19,40.34 21.07,46.25 17.66,15.17 -32.2,8.82 29.42,11.15 11.78,-3.09 12.63,-15.22 20.12,-28.44 8.64,-15.25 -5.44,2.56 7.67,-12.76 13.38,-15.67 -0.02,-1.48 15.52,-12.46l12.91 -8.54c53.97,-30.46 34.27,12.98 48.68,-24.74 -1.2,47.85 -13.93,34.69 13.44,80.09 8.85,14.69 6.33,-19.75 9.57,25.7l13.02 -19.07c30.59,-51.38 50.97,-109 88.95,-163.66 53.59,-77.09 127.37,-164.48 200.08,-225.48l34.52 -29.35c1.15,-0.95 2.81,-2.31 3.97,-3.26l174.06 -113.35c52.5,-22.96 103.96,-54.82 144.26,-66.04l77.69 -28.91c9.57,-3.67 17.66,-5.22 29.69,-7.53 141.24,-27.2 178.15,-54.63 368.18,-59.81 104.07,-2.84 175.56,-1.21 276.9,12.78 41.1,5.69 83.23,19.8 121.87,24.77 -37.01,-54.33 -34.06,-2.16 -49.29,-43.38 63.47,-28.15 9.81,24.61 61.81,15.2 43.66,-7.89 -3.07,-55.65 -4.13,-58.48 11.65,-4.87 -3.34,-0.05 16.98,-1.76l102.52 -2.09c143.44,1.88 15.23,-58.49 338.89,-55.09 67.35,0.71 9.26,-8.28 105.56,-21.88l52.4 -2.7c0.81,0.19 2.9,0.95 3.75,1.16l185.89 5.17c21.72,-2.41 17.46,0.27 27.56,-13.07l21.65 28.56c1.46,-1.31 3.57,-5.48 4.25,-4.06 1.7,3.51 3.41,-11.75 27.72,-13.69l186.78 0.25c10.25,-1.17 11.31,-3.32 13.82,-4.47l45.65 -24.5 0.8 -60.7c27.72,8.77 2.21,40.64 29.56,62.28l36.62 -3.11c0.56,-1.76 1.74,-4.4 2.36,-6.53 8.15,-28.18 -4.17,-11.66 5.88,-33.03l29.76 17.43c-20.89,-47.31 -103.5,-129.89 -148.43,-160.73 -114.85,-78.88 -112.51,-93.04 -270.43,-148.33 -140.13,-49.07 -76.97,-20.28 -198.51,-40.52 -2.22,-0.37 -3.84,-0.81 -6.08,-1.2 -2.26,-0.37 -3.87,-0.83 -6.18,-1.18l-684.14 -2.21c-207.43,1.39 -1177.54,-16.38 -1340.35,13.26 -19.02,3.45 -57.38,15.26 -84.53,22.84 -88.22,24.62 -199.43,83.05 -272.17,137.74 -38.61,29.02 -79.15,63.56 -110.15,99.23 -96.51,111.06 -103.06,120.86 -167.71,250.23l-59.41 193.37c-22.36,185.68 -13.59,375.87 -14.43,562.84l2.41 1247.92c-0.03,56.8 -15.17,374.34 12.87,400.29l0.05 -0.04z"/>
   <path class="fil4" d="M2361.27 3104.45c-0.13,108.01 14.98,226.71 62.3,320.84l34.02 68.15c51.32,73.05 26.63,56.94 113.92,145.46l40.56 38.46c50.17,42.55 92.89,71.57 159.18,100.61l185.46 58.7c1.86,0.37 3.72,0.7 5.7,0.98 70.7,9.88 175.43,0.71 235.58,-14.77 43.57,-11.23 87.56,-21.94 128.04,-43.25l133.09 -74.88c31.37,-24.14 86.64,-69.83 109.46,-101.15l75.71 -105.83c1.2,-1.72 4.7,-6.34 5.85,-8.06 7.56,-11.53 1.86,-2.03 7.66,-12.84 59.2,-110.33 91.74,-257.91 81.11,-387.25 -7.94,-96.67 -78.63,-294.71 -143.09,-367.56 -135.7,-153.36 -290.19,-261.94 -511.82,-261.13 -103.04,0.37 -134.54,5.93 -227.88,24.95 -83.31,16.98 -242.72,78.54 -291.93,134.29 -33.96,38.48 -54.08,51.07 -79.53,87.42 -79.51,113.57 -123.22,243.39 -123.41,396.87l0.02 -0.01z"/>
   <path class="fil4" d="M1295.79 4254.93c-2.33,92.76 75.44,245.78 121.55,321.32 12.09,19.84 20.95,38.24 36.27,57.75 113.01,143.96 244.67,248.13 418.98,303.91 40.14,12.84 108.37,36.15 145.65,34.19l8.19 -4.02c-7.59,-28.94 -5.38,-11.15 1.64,-21.85 -18.04,-0.15 -100.06,-7.72 -115.52,-16.81 8.74,-20.07 -5.15,-11.9 18.31,-15.76 38.52,-6.35 17.69,1.82 23.57,12.52 4,-16.61 3.14,-15.05 8.82,-28.11 1.66,1.18 4,1.11 4.92,3.6 3.32,9.19 38.08,11 47.9,11.02 20.35,0.03 41.6,-0.53 62.06,-0.81l0 -37.38c-38.48,-0.53 -75.21,24.64 -50.08,-36.05 -26.58,11.2 -16.76,11.48 -43.69,0l21.67 -14.14c0.81,-0.17 2.86,-0.58 3.75,-0.71 31.57,-5.08 25.17,0.83 37.65,1.61 0.67,0.06 2.47,0.2 3.13,0.17l11.05 -2.83c18.04,-4.52 -7.5,-3.02 16.52,-4.12 1.02,-57.37 0.89,-21.55 17.33,-47.93 12.24,-19.62 8.67,-23.22 4.54,-45.87 24.25,7.63 14.67,19.97 28.26,6.41 14.26,-14.22 4.1,0.59 0.62,-12.06 -0.33,-1.2 -1.39,-3.67 -1.83,-4.89l-5.2 -11.31c48.89,8.98 54.64,-28.56 51.07,-65.44 -0.06,-0.59 -21.08,-6.21 3.24,-31.37 12,-12.41 -5.14,-4.19 12.62,-5.66 26.18,-2.18 -7.13,-1.6 22.43,8.62l8.37 -17.99c11.5,-20.19 3.57,3.17 1.76,-19.02 -1.28,-15.54 -22.74,-5.81 9.59,-27.63 26.28,-17.72 28.21,6.93 28.21,6.94 0.85,-44.04 -10.61,-33.76 28.31,-35.96 -33.71,-8.5 -13.57,6.3 -28,-20.98l50.17 -19.27c1.53,-1.2 4.34,-4.32 4.98,-3.01 0.64,1.26 3.82,-2.34 4.62,-3.26 0.77,-0.88 3.16,-2.52 4,-3.7 0.81,-1.17 2.44,-2.91 3.2,-4.31 7.11,-13.2 4.57,-2.56 4.83,-24.57l20.15 -0.67 -27.98 -8.34c18.62,-95.18 -11.36,-35.39 84.24,-58.83l17.35 -1.51c-21.72,-35.65 -21.76,-5.25 -21.96,-60.24l57.32 -0.77c-11.26,-25.13 -20.09,-17.93 -46.09,-33.69l-143.37 -94.88c-15.2,-13.84 -29.72,-22.13 -44.48,-34.26l-159.43 -158.87 -145.28 -215.65c-0.31,-0.58 -7.06,-12.89 -7.71,-14.06l-25.25 -55.01c-0.68,-1.44 -1.66,-3.26 -2.39,-4.65l-85.14 -230.31c-6.83,-25.75 -10.24,-36.33 -14.25,-64.2 -25.41,-176.05 -23.78,-103.24 -25.04,-295.41 -0.35,-53.3 0.28,-107.65 7.94,-154.04 12.34,-74.86 17.06,-150.65 44.51,-222.24 0.56,-1.48 1.3,-3.41 1.85,-4.9l46.82 -144.79c-3.24,-45.45 -0.73,-11.02 -9.57,-25.7 -27.38,-45.41 -14.65,-32.25 -13.44,-80.09 -14.4,37.73 5.3,-5.72 -48.68,24.74l-12.91 8.54c-15.54,10.98 -2.15,-3.2 -15.52,12.46 -13.11,15.32 0.96,-2.49 -7.67,12.76 -7.5,13.22 -8.34,25.35 -20.12,28.44 -61.62,-2.33 -11.78,4.04 -29.42,-11.15 -6.88,-5.91 -23.84,-30.93 -21.07,-46.25 -56.83,34.62 -29.93,26.65 -53.5,49.82 -10.82,10.64 3.17,7.21 -14.64,7.03 0.07,0.13 11.78,5.58 6.15,33.47 -2.71,13.44 6.98,9.29 -16.74,17.85l-7.08 -0.04c-6.33,2.43 -4.22,-21.4 -4.06,14.49l-47.19 0.13c-5.22,13.6 0,7.16 -9.52,21.11l-10.12 12.3c-36.6,35.2 -20.92,-12.96 -84.11,53.14l-26.09 35.67 -39.02 0.37c-4.12,39.26 -15.17,43.06 -57.71,43.38 -0.13,92.72 -19.67,-1.84 -21.96,74.48 -1.21,40.52 -5.15,54.94 -7.38,87.47 -3.94,57.54 -0.78,128.38 -0.73,187.25l4.87 1114.41 -0.03 0.01z"/>
   <path class="fil4" d="M5305.06 2004.81l2.96 108.55c1.82,0.95 21.5,1687.33 12.34,1839.91 19.47,-2.34 10.48,-26.07 10.48,-48.18 0,-53.23 -6.45,-34.59 22.11,-50.46 -0.5,-1.46 -5.5,-11.82 -5.9,-13.26l-1.79 -11.51c-2.37,-28.76 14.82,-67.41 15.6,-107.86l19.92 -0.31c-0.06,26.55 4.25,27.5 -7.76,43.59 21.33,2.89 13.22,-2.24 21.87,14.09l2.06 -35.67 19.81 0.05c1.39,18.03 2.96,13.46 4.53,17.6 0.56,1.48 1.36,3.72 2.04,5.3l29.47 48.7c1.3,-8.24 -1.05,-14.49 -0.95,-15.33 1.43,-12.28 -1.36,-10 5.36,-20.25 23.89,15.69 17.16,1.02 17.35,43.44 27.51,-20.48 21.78,3.61 47.58,-7.63 0.98,1.54 1.64,2.67 1.9,5.18 0.24,2.33 1.41,4.04 1.75,4.82l13.84 16.5c0.5,0.31 2.41,1.2 2.91,1.56 25.37,18.52 -9.3,5.8 18.57,21.02 22.98,12.56 -12.36,-3.11 38.39,0.61l10 0.15c1.76,-0.24 20.92,-5.78 30.54,-5.91l-7.51 10.45c-27.14,38.67 21.05,10.08 29.59,68.76 0.12,-0.08 6.96,-17.82 35.32,-1.33 8.34,4.85 7.04,5.42 11.88,11.31 7.07,8.62 4.67,5.32 10.61,18.11 11.3,-21.88 -11.43,-8.99 25.85,-13.87 76.95,69.51 15.19,28.73 36.07,71.49 14.43,-28.81 -7.98,-22.33 45.87,-21.1 -0.04,14.37 -0.22,11.05 -2.56,23.38l-4.04 15.1c-4.27,26.3 0.81,-2.31 8.43,26.65 3.2,-23.69 -2.26,-21.78 63.53,-21.85 -10.19,27.48 8.09,19.91 -43.48,20.02 37.88,7.74 43.84,-3.72 43.81,51.77 29.72,0.02 28.28,-11.67 48.36,-5.47 1.63,0.5 5.98,3.26 7.57,3.9l37.08 9.42c-0.67,1.84 -3.07,2.07 -3.64,4.64 -1.93,8.74 -17.36,5.53 -17.46,31.23 24.95,-16.9 8.36,-3.38 37.66,0.1 -16.46,-23.96 -7.66,-14.14 7.01,-35.97l8.94 19.44c0.45,1.85 1.35,14.95 1.45,19.67l2.69 46.65 23.38 0.03 -0.85 -508.99c-0.65,-226.84 -16.46,-1492.76 -2.34,-1533.66 -17.97,-9.22 -19.37,-13.94 -47.59,-14.47l14.33 -28.94c-21.56,6.68 -17.09,7.21 -47.83,7.24 -4.77,-14.57 10.63,-19.37 11.75,-21.5 -26.68,-0.27 -43.85,-5.7 -48.55,-6.86 -0.96,-0.25 -2.98,-0.89 -3.84,-1.08 -0.73,-0.15 -2.68,-0.43 -3.34,-0.55 -38.76,-6.74 -11.41,-17.9 -37.15,-23.67 -30.02,-6.74 19.19,4.24 -36.79,10.17 -10.33,-34.64 -22.09,-28.51 -69.65,-28.51 -5.48,-16.73 3.61,0.3 5.42,-15 2.92,-24.77 -29.34,-26.31 -34.26,-28.44 -10.58,20.61 8.34,-0.33 0,21.6 -51.62,-10.7 -12,-22.8 -57.7,-25.08l-45.65 -3.97c-74.11,16.83 -57.77,-1.28 -63.33,-9.14 -25.14,-35.44 -30,-1.21 -33.3,-8.77 -0.68,-1.57 -2.96,2.39 -4.52,3.56l-9.32 -35.99c-2.37,55.14 5.31,10.22 -12.55,29.2 -0.48,-38.89 2.15,-28.48 -16.55,-21.5l-11.79 6.46c-2.19,-72.58 -21.93,4.67 -38.55,-50.15 -0.12,26.3 3.52,28.28 4.34,44.43 1.99,39.34 16.06,22.76 -21.26,27.01 -14.31,-19.44 -9.87,-46.3 -9.97,-71.16 -17.96,0.15 -13.33,-0.2 -27.81,11.81l-8.18 9.57c-2.15,-27.75 -5.13,-18.24 -6.46,-27.65l-24.62 -51.88 0.1 79.43c-62.27,-7.24 -2.49,-3.99 -35.97,-21.56 -7.53,50.69 -4.98,-4.82 -13.11,35.04 -2.66,13.06 -1.46,27.73 -4.52,45.74l-0.02 0.02z"/>
   <path class="fil5" d="M2870.23 4425.14c8.5,13.76 -10.37,19.6 67.09,24.89 24.12,1.64 47.81,4.61 69.25,7.17 98.55,11.78 63.83,-13.96 79.46,53.87l-50.61 3.34c-19.08,11.05 -15.23,28.7 -15.26,41.04 -45.52,0.86 -47.02,-11.94 -49.93,22.36 -1.5,-1.54 -3.14,-3.89 -4.12,-4.96 -0.92,-1.02 -2.96,-3.44 -4.02,-4.57 -0.95,-1.03 -2.79,-3.07 -3.72,-4.04 -8.92,-9.29 2.93,-1.53 -10.07,-8.39 2.09,19.62 2.21,13.91 3.99,26.91 2.57,18.87 -4.79,2.76 3.72,22.06 -9.92,5.81 -13.54,-1.93 -23.14,5.57 -9.19,7.17 10.83,-11.75 -7.57,17.13l-13.61 -16.3c-4.65,-5.96 -3.48,-5.42 -8.04,-11.23 -16.45,27.63 10.53,16.09 -26.46,21.65 -0.4,34.3 0.06,13.89 12.96,41.83 -69.44,18.24 -28.06,22.12 -63.37,8.67l-0.1 35.32c-26.15,0.31 -35.62,-4.8 -41.17,17.38l-1.3 12.8c-0.28,1.68 -1.01,6.49 -1.51,8.07l-8 13.69c-13.7,11.81 -9.69,1.54 -27.75,11.36 -10.43,45.19 11.7,26.61 -21.56,59.36 -71.91,70.8 -31.48,15.19 -66.72,77.85l-23.59 24.64c-1,0.43 -3.22,0.83 -4.22,1.18 -16.98,5.96 -26.12,-11.57 -13.69,40.89 -30.74,-12.43 -11.51,-2.76 -27.93,0.93 -47.5,10.68 -359.09,9.62 -421.37,9.52 -62.63,-0.1 -96.23,-16.45 -141.5,-17.04l-8.19 4.02c47.91,29.91 384.26,14.47 439.18,15.27 149.03,2.13 305.01,2.11 454.63,-0.7 303.2,-5.69 610.5,-1.11 914.96,-1.28 233.76,-0.12 104.1,11.17 318,-22.16 48.08,-7.5 46.5,-12.26 87.29,-26.13 59.16,-20.12 189.52,-82.34 227.97,-117.16 1.91,-1.72 14.9,-13.48 15.44,-13.85l9.75 -5.3c40.95,-21.76 6.31,-2.3 61.92,-59.48l29.11 -28.77c46,-40.07 126.38,-148.76 145.65,-200.89 13.54,-36.62 45.31,-94.39 66.92,-163.2 20.19,-64.21 31.25,-134.78 28.26,-203.3 -45.77,-3.51 -14.97,-3.66 -59.81,-0.25 -0.68,-1.21 -0.93,-3.39 -1.18,-4 -0.31,-0.8 -12.22,-46 -78.5,-36.6 -25.8,3.66 2.15,-3.02 -28.52,18.62l-27.65 -21.69 -17.44 21.94c-3.27,-42.58 1.23,-13.32 -19.01,-20.52l-30.12 -8.64c-0.61,-0.05 -2.71,-0.15 -3.35,-0.19l-72.24 0.81c-7.87,-2.99 -14.62,-11.16 -18.96,-15.3 -0.18,0.37 -6.59,12.59 -6.59,12.59l-6.63 9.12c-1.02,-1.35 -2.11,-3.59 -2.69,-4.31 -24.12,-30.04 -61.02,-17.59 -76.66,-45.17 -8.67,15.15 -5.5,12.26 -5.57,35.72l-17.44 -0.28c-1.96,-22.15 -3.14,-22.18 -13.06,-35.44 -25.19,29.14 -11.76,13.78 -79.35,13.79l-1.54 9.16c-10.55,18.43 9.19,3.94 -13.79,12.03 -6.33,-13.16 -6.92,-23.56 -13.53,-34.91 -8.47,16.78 -1.88,19.3 -16.37,35.63 -3.35,-41.07 3.62,-8.67 -11.96,-24.21 -0.94,-0.95 -2.89,-2.18 -3.87,-2.98 -47.94,-38.51 13.35,4.77 -16.31,-8.76 7.26,26.2 6.43,7.85 -0.31,35.93 -19.66,-7.54 -14.15,-6.21 -21.91,-21.94 -7.56,55.74 1.39,2.51 -24.61,27.83l-5.62 7.87c-23.99,-32.25 -24.24,-44.36 -65.66,-9.26 -33.94,28.77 -24.5,3.35 -26.61,45.37 -1.38,-1.64 -2.37,-4.4 -3.13,-5.62l-13.54 -17.74c-12.96,-6.81 2.99,-0.35 -8.82,-0.52 -0.41,0 -3.07,1.58 -3.39,0.46 -0.31,-1.16 -2.39,0.95 -3.52,0.56 0.1,-30.25 3.11,-59.68 6.06,-87.29l-56.35 49.08c-48.64,49.81 -59.36,51.87 -104.78,90.46l-82.14 61.29c-1.26,0.95 -2.89,2.3 -4.22,3.19l-359.44 165.31c-92.7,20.35 -249.52,42.2 -349.27,42.94 -128.56,0.96 -108.11,-13.01 -177.71,-14.17l0.06 0.04z"/>
   <path class="fil4" d="M3396.22 1899.91c26.1,3.69 18.81,6.37 41.35,14.25l11.48 3.41c2.04,0.56 3.99,0.86 6.06,1.38 30.87,7.88 30.12,10.07 57.77,21.23 163.68,66 264.13,119.56 399.9,241.93 78.39,70.66 89.58,87.69 152.85,164.64 67.12,81.66 139.47,211.31 177.2,305.89 17.04,42.71 28.44,71.39 42.91,115.56l21.78 80.92c22.68,85.56 36,253.39 32.8,349.08 -0.73,22.21 -0.73,58.39 -3.06,79.1 -3.36,29.81 -10.65,22.09 -12.3,64.93l-12.18 90.33c-5.3,23.81 -9.94,20.37 -12.37,54.09l26.89 -1.75 0.67 56.95c18.61,-12.86 27.91,-4.8 37.56,14.1 2.98,-20.87 2.86,-16.85 24.12,-35.79l19.17 20.09c10.43,12.08 1.36,9.67 14.52,15.72 -12.13,-16.33 -7.05,-9.57 -7.63,-35.97 16.46,6.13 11.25,7.04 15.73,10.09 10.89,7.41 -0.86,18.79 5.88,4.22l41.78 -14.32c-4.79,27.17 -6.22,13.33 0.22,35.87 12.11,-5.6 6.4,9.69 8.06,-21.87 19.13,2.4 8.33,1.3 17.54,7.57 0.93,0.63 2.86,2.15 3.75,2.84 0.78,0.6 2.11,2.26 2.83,2.87 0.65,0.55 1.73,2.26 2.33,2.8l27.26 27.51c6.21,-12.26 -0.53,-8.89 11.6,-14.62 46.25,-21.88 -7.57,7.67 35.5,-0.86l95.51 -3.64c0.13,0 26.2,-1.98 32.88,-1.98 -0.75,2.09 -3.36,2.41 -3.89,5.4l-8.59 12.22c-9.29,20.95 -7.29,-17.1 3.76,14.22 5.3,15.04 -24.46,10.25 10.77,11.31 1.26,-35.54 -2.39,-7.18 7.32,-20.45l16.92 -26.25c11.86,-20.24 -9.97,-8.28 17.78,-18.98 20.93,26.61 11.11,26.09 16.93,78.97 5.38,49.09 -3.45,34.92 -1.23,58.51l6.94 -6.83c0.46,-0.83 2.28,-2.89 2.79,-4 9.26,-20.27 1.43,-38.09 5.05,-58.24 0,-0.07 -13.36,5.93 9.67,-24.46 11.75,16.5 4.74,34.59 16.48,49.81 2.06,-351.83 0.03,-704.39 0.71,-1056.2l-1.69 -463.09c-15.32,-122.66 -54.61,-246.41 -117.15,-351.81 -15.67,-26.4 -28.73,-51.74 -56.15,-75.31l-29.76 -17.43c-10.06,21.38 2.26,4.85 -5.88,33.03 -0.61,2.13 -1.79,4.77 -2.36,6.53l-36.61 3.11c-27.35,-21.65 -1.85,-53.53 -29.56,-62.28l-0.8 60.7 -45.65 24.5c-2.51,1.17 -3.59,3.3 -13.82,4.47l-186.79 -0.25c-24.31,1.93 -26.02,17.2 -27.71,13.69 -0.68,-1.41 -2.8,2.74 -4.25,4.06l-21.65 -28.56c-10.12,13.34 -5.85,10.67 -27.56,13.07l-185.89 -5.17c-0.87,-0.22 -2.96,-0.96 -3.76,-1.17l-52.4 2.71c-96.31,13.61 -38.21,22.58 -105.56,21.88 -323.63,-3.41 -195.43,56.97 -338.89,55.09l-102.52 2.09c-20.31,1.7 -5.35,-3.11 -16.98,1.76 1.08,2.83 47.81,50.59 4.13,58.48 -52,9.41 1.68,-43.35 -61.8,-15.2 15.23,41.22 12.28,-10.95 49.29,43.38l-0.04 0.07z"/>
   <path class="fil4" d="M523.67 5839.2c17.64,30.83 109.13,83.68 143.41,107.54l259.97 123.31c112.76,38.15 186.62,58.23 312.7,63.13l23.16 1.36 212.54 -6.65c7.06,-31.02 8.21,-35.57 29.04,-15.35l6.58 -43.71c11.15,-91.71 -15.98,-3.91 1.86,-83.58l1.13 -16c-0.19,-13.09 5.97,-13.11 -7.97,-30.74 -7.5,-9.47 -14.43,-13.85 -22.73,-20.82 2.16,-1.23 18.57,-2.22 25.91,-15.94l2.16 -6.98c0.15,-0.67 0.16,-2.76 0.25,-3.42 0.08,-0.65 -0.09,-2.73 -0.06,-3.39l0.74 -16.98c0.05,-0.67 0.27,-2.78 0.31,-3.42l0.5 -82.32c-0.19,-1.23 -1.02,-3.41 -1.21,-4.64l0.83 -37.7c9.19,-70.17 0.43,-40.27 4.37,-79.41 5.63,-55.97 -1.79,-14.69 23.57,-48.78l-11.72 -4.12c-9.22,-5.83 -1.17,17.56 -9.87,-10.3 22.09,-19.14 9.24,-12.53 35.9,-6.73 -8.95,-24.69 -13.93,-7.06 -14.2,-58.55l-10.19 4.93c-0.65,0.25 -3.39,1.51 -4.09,1.72 -14.04,4.67 5.45,5.1 -7.38,0.9 0.68,-39.34 -5.5,-44.77 6.58,-65.19 11.96,-20.25 30.09,-14.07 43.61,-35.2l1.03 -7.3c0.03,-0.45 0.28,-2.86 0.31,-3.42l0.12 -18.34c-0.19,-0.65 -0.87,-2.56 -1.13,-3.22 -14.3,-36.3 -10.43,9.8 -14.55,-33.21 10.33,-12.51 0.8,-6.58 20.8,-12.76 -10.25,-17.41 -98.24,-57.34 -145.28,-87.07l-13.26 -8.44c-6.46,-4.04 -8.06,-4.7 -13.53,-8.19l-195.79 -156.47c-14.85,-12.87 -27.68,-28.13 -42.83,-43.63 -124.6,-127.46 -180.87,-227.37 -257.76,-376.85l-21.73 -48.28c-13.67,7.41 -9.75,6.43 -26.58,10.05 -2.68,123.32 7.54,62.27 21.79,96.85 -4.37,7.29 -3.73,6.36 -7.42,18.57l-25.7 -15.2c-1.43,1.91 -2.28,4.83 -3.04,6.48 -0.72,1.56 -2,4.35 -2.84,6.16l-37.4 38.67c-12.89,-26.98 10.02,-37.31 -23.04,-21.76 -17.3,8.15 -15.05,16.35 -16.83,38.24 -6.98,86.12 3.07,78.19 14.89,87.54 -29.42,22.7 -15.53,12.09 -14.33,61.57l-45.47 10.9c-1.81,0.65 -3.59,1.5 -5.36,2.16l-27.83 9.37c9.17,25.1 5.17,31.9 5.2,51.93l1.48 84.58c-40.7,-4.53 14.27,-9.6 -43.35,-21.72l12.99 43.28c14.93,20.3 8.77,51.5 8.87,104.17 -2.93,0.53 -17.21,-0.06 -36.22,4.12 9.57,26.2 -20.22,18.31 28.61,20.87 -46.62,25.48 -9.45,12.03 -0.09,29.31l-35.78 17.85c-0.04,61.67 0.65,31.2 5.96,34.46 37.93,23.2 -8.62,-10.3 15.69,1.61 -0.09,45.72 11.91,45.13 -21.87,47.32 0.16,74.08 -1.3,32.68 -36.79,71.2 -23.28,25.27 -10.18,12.24 -5.75,55.28l1.79 23.37c-0.08,0.9 -0.59,3.13 -0.7,4l-1.59 16.71c-0.09,0.55 -0.25,2.33 -0.37,2.92l-6.65 45.72c-4.83,46.59 3.72,10 -10.5,30.72l-9.55 12.19c-1.78,2.49 -7.96,12.15 -8.7,13.26l-8.77 12.56c-0.58,0.8 -2.66,4.98 -3.09,3.91 -0.41,-1.08 -2,2.61 -3.07,3.84 13.11,35.02 19.87,16.67 22.68,53.65 1.28,16.93 -0.63,47.17 -1.33,65.04l-32.03 22.51 -0.02 -0.05z"/>
   <path class="fil3" d="M4748.48 1091.56c180.66,136.69 235.89,192.02 371.17,403.4 6.56,10.25 1.96,2.67 8.82,12.91l71.26 136.81c9.65,19.32 18.18,46.92 25.91,68.08 27.02,73.81 55.69,170.56 67.5,246.61 0.98,6.27 1.13,14.44 2.26,19.54l9.65 25.9c3.06,-18.03 1.85,-32.68 4.52,-45.74 8.12,-39.85 5.58,15.63 13.11,-35.04 33.48,17.57 -26.3,14.3 35.97,21.56l-0.1 -79.43 24.62 51.88c1.33,9.41 4.31,-0.1 6.46,27.65l8.18 -9.57c14.49,-12.01 9.84,-11.66 27.81,-11.81 0.12,24.85 -4.33,51.72 9.97,71.16 37.33,-4.25 23.26,12.33 21.26,-27.01 -0.83,-16.13 -4.45,-18.13 -4.33,-44.43 16.61,54.82 36.35,-22.43 38.54,50.15l11.79 -6.46c18.69,-6.98 16.07,-17.39 16.55,21.5 17.85,-18.99 10.16,25.93 12.54,-29.2l9.32 35.99c1.56,-1.17 3.84,-5.14 4.52,-3.56 3.29,7.57 8.15,-26.67 33.29,8.77 5.57,7.85 -10.78,25.96 63.33,9.14l45.66 3.97c45.7,2.28 6.09,14.39 57.7,25.08 8.34,-21.93 -10.59,-0.99 0,-21.59 4.92,2.12 37.2,3.67 34.25,28.44 -1.81,15.3 -10.9,-1.72 -5.41,15 47.54,0 59.29,-6.13 69.65,28.51 55.97,-5.93 6.76,-16.89 36.78,-10.17 25.72,5.78 -1.63,16.93 37.15,23.67 0.67,0.12 2.61,0.4 3.34,0.55 0.86,0.19 2.87,0.83 3.84,1.08 4.7,1.16 21.87,6.58 48.55,6.86 -1.11,2.13 -16.53,6.95 -11.75,21.5 30.74,-0.03 26.25,-0.58 47.83,-7.24l-14.34 28.94c28.22,0.53 29.62,5.25 47.6,14.47 -14.12,40.92 1.69,1306.81 2.34,1533.65l0.85 509 -0.56 704.88 0.21 76.36 1.68 -1816.74c-1.54,-607.46 8.37,-1223.11 -4.42,-1826.89 -112.54,1.24 -97.69,20.35 -99.68,-15.8l-20.77 0.07 -19.05 -5.93c-1.7,0.65 -3.79,1.71 -5.67,2.31l-32.94 0.85c-8.57,-2.28 -26.33,-22.65 -37.08,2.7l-0.03 -35.83c-2.37,0.7 -5.43,0.38 -6.61,3.37l-20.67 8.43c-12.4,-1.53 -6.41,13.53 -8.65,-19.26l-20.77 -0.13c-2,29.54 7.66,19.47 -15.12,21.68 7.74,-24.21 5.25,-9.5 -0.13,-35.93 -31.13,5.56 -24.09,6.24 -53.68,0.03l-4.65 -35.59 -20.22 -0.03c-0.28,28.05 13.85,17.9 -29.97,19.01 -73.53,1.88 -8.19,-2.24 -45.04,-18.46l-61.62 -7.94c-19.08,-1.85 -14.67,6.98 -47.69,6.98l-39.11 -35.91c0.93,36.85 -8.13,26.67 14.14,35.83 -15.55,-1.5 -3.79,0.06 -22.98,-13.87 -25.85,-18.74 -27.03,-15.08 -28.36,-58 -29.47,10.4 -14.79,-15.75 -21.65,21.6 -5.31,-35.81 3.45,-8.09 -14.27,-29.14 -52.3,10.8 -7.76,7.06 -36,21.72 -10.56,-35.11 -8.64,-22.78 -39.32,-14.31 -0.37,-2.24 0.24,-5.65 -0.2,-6.83l-47.72 2.03c-24.85,2.79 -25.2,1.53 -45.85,-2.66 -0.89,1.6 -2.16,2.52 -2.31,4.96l-1.72 16.73c-13.81,-20.53 -14.24,-14.4 -14.52,-50.21 -2.16,0.65 -4.96,0.17 -6.08,2.89l-28.59 10.68c-70.04,12.18 -59.53,-20.5 -115.84,-20.96 -4.55,59.59 -19.64,11.39 -21.62,65.11 -25.45,-0.46 -8.5,3.06 -1.05,-21.63 -68.91,-5.54 -1.24,-57.88 -128.7,-79.41 -7.91,18.15 -6.61,9.04 -7.56,35.79l-21.11 -16.22c-32.16,-18.49 -11.38,-13.42 -24.95,-24.79 -11.02,-9.22 -19.74,-5.95 -35.96,-14.67 -21.25,-11.43 20.28,-16.74 -47.61,-15.87l-5.83 38.49 -0.05 -0.03z"/>
   <path class="fil6" d="M1262.93 6134.53c57.2,7.61 488.79,1.17 580.37,0.4 88.75,-0.73 539.98,7.32 573.76,-18.46 12.41,-10.2 -4.85,-23.16 11.1,-67.59 0.65,-1.81 1.75,-3.67 2.39,-5.39 0.59,-1.61 1.79,-3.51 2.31,-5.05 11.74,-34.72 -12.18,-12.36 -4,-34.87 0.4,-1.13 8.24,-7.36 9.83,-10.25 -34.82,-20.42 -4.53,-63.31 1.94,-96.41 3.84,-19.57 0.22,-12.3 3.69,-29.44l2.3 -8.65c0.27,-1.11 0.93,-3.2 1.18,-4.32 4.19,-18.41 21.02,-60.7 34.08,-66.64 -17.71,-8.57 -13.51,-1.38 -21.36,-24.8 19.52,-0.45 24.42,-1.14 35.65,-7.41l7.44 -121.37c3.59,-7.84 3.42,-7.57 3.42,-17.94l-2.28 -18.18c-0.5,-0.76 -1.93,-2.49 -2.56,-3.29 -0.81,-1 -2.74,-2.81 -3.64,-3.78l19.82 -9.99c-3.49,-38.98 -9.39,-3.89 -1.9,-36.15 10.19,-43.81 1.28,1.72 16.58,-28.76 -16.65,-8.21 -10.74,-0.1 -14.67,-21.08 -5.45,31.78 -2.81,10.35 -11.39,21.13l-7.57 -15.47c-10.7,-16.15 16.8,-2.86 -65.14,-11.53 -14.92,-1.57 -37.41,-0.25 -52.42,-12.43 -149.41,6.12 -300.53,-0.25 -445.1,-11.84 -54.82,-4.41 -136.41,-34.37 -186.96,-45.01 -96.11,-20.25 -124.93,-57.32 -173.8,-56.07 -20,6.18 -10.46,0.25 -20.8,12.76 4.12,43.01 0.25,-3.09 14.56,33.21 0.27,0.68 0.95,2.59 1.13,3.22l-0.12 18.34c-0.05,0.55 -0.28,2.98 -0.31,3.42l-1.02 7.29c-13.51,21.13 -31.63,14.95 -43.61,35.2 -12.06,20.43 -5.88,25.85 -6.58,65.19 12.83,4.19 -6.67,3.75 7.38,-0.9 0.7,-0.24 3.44,-1.5 4.09,-1.72l10.19 -4.93c0.28,51.5 5.25,33.87 14.21,58.55 -26.67,-5.78 -13.79,-12.4 -35.91,6.73 8.71,27.87 0.65,4.47 9.87,10.3l11.72 4.12c-25.37,34.09 -17.94,-7.2 -23.57,48.77 -3.94,39.14 4.82,9.24 -4.37,79.41l-0.83 37.7c0.22,1.23 1.03,3.39 1.21,4.63l-0.5 82.32c-0.06,0.65 -0.27,2.76 -0.31,3.42l-0.73 16.98c-0.04,0.65 0.12,2.73 0.05,3.39 -0.07,0.67 -0.1,2.76 -0.25,3.42l-2.16 6.98c-7.35,13.72 -23.76,14.72 -25.92,15.95 8.29,6.96 15.24,11.35 22.73,20.82 13.94,17.63 7.78,17.66 7.97,30.74l-1.13 16c-17.84,79.68 9.29,-8.12 -1.85,83.59l-6.58 43.71c-20.83,-20.22 -21.96,-15.67 -29.04,15.35l-212.54 6.65 -0.04 0.01z"/>
   <path class="fil6" d="M5320.36 3953.3c-3.2,73.07 5.13,151.65 1.59,224.75 -1.83,37.57 -9.45,117.34 -0.73,150.55 9.6,36.53 9.84,12.58 19.07,39.91l9.59 -7.48c45.91,-33.54 18.98,31.2 34.14,64.43 22.8,-8.36 2.21,3.67 11.6,-8.96l3.91 -12.09c15.57,6.4 1.81,1.8 11.36,8.79 11.65,8.5 0.81,6.22 18.56,12.58l1.43 -43.46c18.59,7.72 23.23,46.52 24.98,65.54 17.94,-6.61 6.28,-3.39 14.56,-9.67 40.46,-30.83 -19.11,2.74 13.29,-11.26 1.78,11.35 -1.48,31.2 29.22,28.34 2.34,-0.22 10.3,-5.2 14.37,-7.01 -15,52.48 30.58,49.72 40.47,58.36 12,10.46 -19.06,-13.89 5.43,6.88 18.81,15.93 53.43,24.9 67.75,44.59 18.46,25.39 24.21,53.36 25.47,55.37 17.35,-7.69 17.1,0.3 48.4,-13.69 -1.17,13.19 -1.9,8.67 -4.15,14.52l-9.5 21.07c21.22,7.16 10.95,6.24 31.43,25.98 19.57,18.87 12.74,6.08 26.42,31.6 18,-6.43 6.28,-3.26 14.5,-9.54 40.82,-31.1 -19.54,3.56 13.44,-11.5 3.72,39.66 -2.09,6.55 8.62,26.96l5.75 8.76c0.8,1.38 2,3.07 2.81,4.49 0.81,1.44 1.84,3.24 2.64,4.7 21.85,41 -4.95,39.93 38.06,26.93 -0.06,25.52 -0.85,30.49 13.69,51.56 39.09,56.64 29.26,-19.79 30.15,49.42 51.22,-18.92 -39.39,22.98 18.56,-13.14 7.39,-4.61 -0.06,-6.59 17.07,-8.37 -7.53,23.85 -8,16.46 -7.19,49.89 52.1,27.93 41.63,25.32 45.79,52.81 4.71,31.12 2.09,13.29 18.8,29.26l8.7 10.63c1.05,1.38 4.47,7.08 6.03,8.9 9.57,-12.28 14.59,12.89 3.45,-29.74 19.02,1.94 17.1,3.64 34.62,7.23 0.25,-4.57 0.38,-17.36 1.96,-21.6 8.24,-22.19 -6.31,1.64 9.41,-13.61l0.56 -704.88 -23.38 -0.03 -2.69 -46.65c-0.1,-4.72 -1,-17.81 -1.45,-19.67l-8.94 -19.44c-14.67,21.81 -23.47,12 -7.01,35.97 -29.31,-3.47 -12.71,-16.99 -37.66,-0.1 0.1,-25.7 15.54,-22.49 17.46,-31.23 0.56,-2.56 2.98,-2.79 3.64,-4.64l-37.08 -9.42c-1.6,-0.65 -5.95,-3.42 -7.57,-3.91 -20.09,-6.19 -18.64,5.48 -48.36,5.47 0.03,-55.49 -5.91,-44.03 -43.81,-51.77 51.57,-0.11 33.29,7.46 43.48,-20.02 -65.78,0.07 -60.33,-1.85 -63.53,21.85 -7.61,-28.96 -12.71,-0.35 -8.43,-26.65l4.04 -15.11c2.36,-12.33 2.52,-8.98 2.56,-23.37 -53.85,-1.23 -31.44,-7.71 -45.87,21.1 -20.89,-42.76 40.89,-1.97 -36.07,-71.49 -37.26,4.9 -14.54,-8 -25.85,13.87 -5.94,-12.79 -3.54,-9.48 -10.61,-18.11 -4.83,-5.9 -3.56,-6.46 -11.88,-11.31 -28.36,-16.52 -35.2,1.24 -35.32,1.33 -8.54,-58.68 -56.73,-30.09 -29.59,-68.76l7.51 -10.45c-9.6,0.13 -28.76,5.69 -30.54,5.91l-10 -0.15c-50.74,-3.72 -15.4,11.94 -38.39,-0.61 -27.88,-15.24 6.8,-2.49 -18.57,-21.02 -0.5,-0.35 -2.41,-1.24 -2.91,-1.56l-13.84 -16.5c-0.31,-0.8 -1.51,-2.49 -1.75,-4.82 -0.25,-2.49 -0.89,-3.63 -1.9,-5.18 -25.81,11.25 -20.07,-12.84 -47.58,7.63 -0.19,-42.43 6.55,-27.76 -17.35,-43.44 -6.73,10.25 -3.94,7.97 -5.36,20.25 -0.1,0.85 2.22,7.09 0.95,15.33l-29.47 -48.7c-0.68,-1.57 -1.48,-3.84 -2.04,-5.3 -1.56,-4.13 -3.14,0.45 -4.53,-17.59l-19.81 -0.05 -2.06 35.67c-8.64,-16.33 -0.53,-11.18 -21.87,-14.09 12.01,-16.1 7.69,-17.05 7.76,-43.59l-19.92 0.31c-0.78,40.46 -17.97,79.1 -15.6,107.86l1.79 11.51c0.4,1.43 5.39,11.8 5.9,13.26 -28.56,15.87 -22.09,-2.77 -22.11,50.46 0,22.11 8.99,45.85 -10.48,48.18l0.02 -0.02z"/>
   <path class="fil5" d="M5192.72 4692.02c-13.85,68.35 -21.54,-0.9 -21.4,111.98 21.6,-6.98 12.37,-5.58 19.16,-10.61 3.97,-2.96 0.04,-3.51 9.19,-10.43 21.55,33.5 -33.51,-22 14.92,15.05 56.67,43.38 8.31,45.54 47.9,43.01l7.54 -3.42c1.26,-0.88 5.98,-8.87 6.86,-11.11 15.72,37.1 -5.54,8.03 37.96,21.8 -14.15,19.97 -4.52,41.67 19.59,43.68 23.89,1.97 3.97,1.41 16.5,-7.79 0.28,15.27 0.35,21.6 13.79,36.88l43.84 21 -6.98 15.81c1.3,14.31 8.43,8.43 15.09,33.68 2.28,-0.83 5.04,-5.91 5.94,-4.24 0.85,1.56 4.31,-3.16 5.39,-4.06 13.97,-11.68 -2.37,-14.02 14.79,-12.98 5.38,19.37 -4.19,17.78 12.28,40.06 1.07,1.44 2.52,3.02 3.67,4.32 1.11,1.23 2.78,2.65 3.92,3.72 24.12,22.41 18.13,-10.77 49.71,61.59 0.52,1.18 1.39,3.82 2.54,5.48 27.86,-11.85 28.01,17.72 31.17,-13.94 -0.43,14.89 -3.3,22.4 -7.41,35.97 21.48,0.05 31.23,0.37 42.98,7.89 2.99,59.28 9.3,25.37 8.76,59.04 -0.88,53.38 -11.05,-6.61 3.22,20.37 0.77,1.44 8.06,11 9.91,13.36 1.23,1.56 2.84,3.29 4.02,4.75l8.36 10.03c24.17,-12.46 2.09,3.91 12.28,-11.17 0.73,-1.08 1.76,-7.99 2.15,-10.37l28.79 31.4c1,0.93 2.65,2.44 3.61,3.3 9.12,8.16 4.58,4.35 13.11,10.74 -27.61,5.68 -19.42,10.37 -21.56,14.43 2.34,1.8 -1.21,21.35 36,9.66 -1.71,1.11 -14.1,-17.46 -14.15,45.83 22.94,-7.96 28.31,14.36 21.68,-21.76l0.33 71.59c28.86,-9.5 18.21,-19.79 35.78,-21.6 -7.66,7.17 -3.62,-12.93 -5.41,21.5l48.59 87.29c18.04,17.56 3.44,-0.38 17.57,17.97 0.68,0.88 2.06,2.61 2.64,3.49l8.47 43.09c21.78,-7.41 13.06,-9.29 16.94,-11.86 32.03,-21.08 -17.31,8 28.49,16.8l64.49 -113.5c23.04,-42.55 86.61,-211.34 94.68,-263.74 9.45,-61.28 18.89,-17.66 23.14,-108.44 1.6,-34.02 -5.36,-23.31 12.53,-44.26l-0.22 -76.36c-15.72,15.25 -1.17,-8.59 -9.41,13.6 -1.56,4.24 -1.71,17.03 -1.96,21.6 -17.54,-3.57 -15.6,-5.28 -34.62,-7.23 11.13,42.63 6.11,17.44 -3.45,29.74 -1.56,-1.83 -4.98,-7.53 -6.03,-8.91l-8.7 -10.63c-16.71,-15.94 -14.09,1.88 -18.81,-29.26 -4.17,-27.5 6.31,-24.89 -45.78,-52.82 -0.81,-33.42 -0.33,-26.03 7.19,-49.89 -17.13,1.76 -9.69,3.76 -17.08,8.37 -57.95,36.12 32.67,-5.76 -18.56,13.14 -0.9,-69.22 8.94,7.2 -30.15,-49.43 -14.55,-21.07 -13.76,-26.03 -13.69,-51.56 -43.01,12.99 -16.22,14.07 -38.06,-26.93 -0.78,-1.48 -1.82,-3.27 -2.64,-4.7 -0.8,-1.41 -1.99,-3.09 -2.8,-4.49l-5.75 -8.76c-10.7,-20.42 -4.89,12.7 -8.62,-26.96 -32.98,15.05 27.38,-19.6 -13.44,11.5 -8.22,6.27 3.49,3.09 -14.5,9.54 -13.66,-25.52 -6.83,-12.73 -26.42,-31.6 -20.47,-19.74 -10.22,-18.81 -31.44,-25.99l9.5 -21.07c2.26,-5.85 2.99,-1.35 4.15,-14.52 -31.3,13.97 -31.05,6 -48.39,13.69 -1.28,-2.01 -7.01,-29.99 -25.47,-55.37 -14.32,-19.69 -48.94,-28.66 -67.75,-44.59 -24.49,-20.77 6.56,3.59 -5.44,-6.88 -9.88,-8.64 -55.47,-5.88 -40.46,-58.36 -4.07,1.81 -12.03,6.78 -14.37,7.01 -30.7,2.86 -27.46,-16.99 -29.22,-28.34 -32.4,14 27.16,-19.57 -13.29,11.26 -8.28,6.3 3.41,3.07 -14.56,9.67 -1.74,-19.02 -6.38,-57.81 -24.98,-65.54l-1.43 43.46c-17.73,-6.34 -6.91,-4.07 -18.56,-12.57 -9.57,-6.98 4.19,-2.37 -11.36,-8.79l-3.91 12.09c-9.37,12.62 11.2,0.59 -11.6,8.95 -15.17,-33.23 11.78,-97.96 -34.14,-64.43l-9.59 7.48c-9.24,-27.31 -9.45,-3.38 -19.07,-39.91 -8.74,-33.21 -1.11,-112.98 0.73,-150.55 3.56,-73.08 -4.8,-151.68 -1.6,-224.75 9.16,-152.6 -10.52,-1838.97 -12.34,-1839.91 4.69,107.01 1.2,226.31 1.15,334.65l-0.83 1009.8c0.19,225.8 0.43,452.17 0.28,678.06 -0.06,76.79 -9.45,241.93 -34.16,307.65l-81.74 248.47 0.03 0.06z"/>
   <path class="fil6" d="M2026.41 4968.09c45.27,0.59 78.86,16.95 141.5,17.04 62.28,0.1 373.87,1.15 421.37,-9.52 16.42,-3.69 -2.81,-13.37 27.93,-0.93 -12.43,-52.46 -3.29,-34.92 13.69,-40.89 1,-0.35 3.22,-0.74 4.22,-1.18l23.59 -24.64c35.24,-62.67 -5.17,-7.05 66.72,-77.85 33.26,-32.74 11.13,-14.19 21.56,-59.36 18.06,-9.82 14.06,0.46 27.75,-11.36l8 -13.69c0.5,-1.56 1.21,-6.4 1.51,-8.07l1.3 -12.8c5.54,-22.16 15,-17.06 41.17,-17.38l0.1 -35.32c35.3,13.44 -6.07,9.59 63.37,-8.67 -12.89,-27.93 -13.36,-7.54 -12.96,-41.83 37,-5.57 10.02,6 26.46,-21.65 4.55,5.81 3.41,5.26 8.04,11.23l13.61 16.3c18.41,-28.89 -1.61,-9.95 7.57,-17.13 9.6,-7.5 13.2,0.25 23.14,-5.57 -8.5,-19.32 -1.15,-3.2 -3.72,-22.06 -1.76,-13.01 -1.87,-7.3 -3.99,-26.92 13.01,6.86 1.15,-0.92 10.07,8.39 0.93,0.96 2.77,3.01 3.72,4.04 1.05,1.14 3.11,3.56 4.02,4.56 0.96,1.08 2.61,3.42 4.12,4.96 2.89,-34.29 4.4,-21.48 49.93,-22.36 0.02,-12.34 -3.82,-30 15.26,-41.04l50.61 -3.34c-15.63,-67.83 19.09,-42.09 -79.46,-53.88 -21.42,-2.56 -45.11,-5.52 -69.25,-7.16 -77.44,-5.3 -58.58,-11.15 -67.09,-24.89 -181.76,-4.67 -357.84,-112.59 -409.87,-119.33l-57.31 0.76c0.19,54.98 0.25,24.59 21.96,60.24l-17.34 1.51c-95.61,23.44 -65.63,-36.35 -84.25,58.83l27.98 8.34 -20.15 0.67c-0.27,22.03 2.26,11.36 -4.83,24.57 -0.76,1.39 -2.39,3.16 -3.2,4.3 -0.83,1.18 -3.22,2.83 -4,3.7 -0.8,0.92 -3.99,4.52 -4.62,3.26 -0.65,-1.31 -3.46,1.81 -4.98,3.01l-50.18 19.27c14.43,27.28 -5.72,12.49 28,20.98 -38.93,2.21 -27.46,-8.07 -28.31,35.97 0,-0.02 -1.93,-24.67 -28.21,-6.95 -32.31,21.81 -10.86,12.11 -9.59,27.63 1.82,22.19 9.73,-1.15 -1.76,19.02l-8.37 18c-29.57,-10.22 3.74,-10.8 -22.43,-8.62 -17.76,1.48 -0.63,-6.74 -12.62,5.67 -24.34,25.15 -3.3,30.77 -3.24,31.37 3.59,36.88 -2.16,74.41 -51.07,65.44l5.2 11.31c0.43,1.2 1.5,3.67 1.83,4.89 3.48,12.66 13.66,-2.18 -0.61,12.06 -13.59,13.56 -4,1.21 -28.26,-6.41 4.15,22.63 7.71,26.25 -4.53,45.87 -16.46,26.39 -16.33,-9.44 -17.33,47.93 -24.03,1.08 1.51,-0.4 -16.52,4.12l-11.05 2.82c-0.65,0.04 -2.46,-0.12 -3.13,-0.16 -12.48,-0.78 -6.1,-6.71 -37.65,-1.61 -0.9,0.15 -2.94,0.55 -3.76,0.71l-21.66 14.14c26.93,11.48 17.13,11.2 43.69,0 -25.14,60.67 11.59,35.5 50.07,36.05l0 37.38c-20.45,0.28 -41.72,0.83 -62.05,0.81 -9.82,0 -44.58,-1.81 -47.9,-11.02 -0.91,-2.51 -3.26,-2.43 -4.92,-3.6 -5.7,13.06 -4.83,11.51 -8.82,28.11 -5.88,-10.7 14.95,-18.87 -23.57,-12.53 -23.45,3.87 -9.57,-4.3 -18.31,15.76 15.45,9.09 97.47,16.65 115.52,16.81 -7.03,10.7 -9.24,-7.1 -1.64,21.85l-0.05 -0.01z"/>
   <path class="fil6" d="M4004.15 4027.04c-2.98,27.6 -5.98,57.02 -6.06,87.29 1.13,0.37 3.2,-1.74 3.52,-0.56 0.31,1.13 2.98,-0.46 3.39,-0.46 11.79,0.17 -4.15,-6.3 8.82,0.52l13.54 17.74c0.74,1.21 1.76,3.97 3.13,5.62 2.13,-42.03 -7.31,-16.59 26.61,-45.37 41.42,-35.12 41.65,-23.01 65.66,9.26l5.62 -7.87c26,-25.32 17.05,27.91 24.61,-27.83 7.78,15.73 2.26,14.41 21.91,21.94 6.74,-28.08 7.57,-9.73 0.31,-35.93 29.69,13.52 -31.63,-29.76 16.31,8.76 0.98,0.8 2.92,2.03 3.87,2.98 15.59,15.54 8.62,-16.86 11.96,24.21 14.5,-16.33 7.89,-18.86 16.37,-35.63 6.61,11.35 7.19,21.75 13.52,34.91 22.98,-8.09 3.24,6.4 13.79,-12.03l1.54 -9.16c67.59,0 54.16,15.35 79.35,-13.79 9.91,13.26 11.1,13.27 13.06,35.44l17.44 0.28c0.06,-23.46 -3.11,-20.57 5.56,-35.72 15.63,27.56 52.53,15.13 76.66,45.17 0.58,0.71 1.68,2.96 2.69,4.31l6.62 -9.12c0,0 6.41,-12.22 6.59,-12.59 4.34,4.13 11.08,12.31 18.96,15.3l72.24 -0.81c0.65,0.04 2.74,0.15 3.35,0.19l30.12 8.64c20.22,7.19 15.72,-22.06 19.01,20.52l17.44 -21.94 27.65 21.69c30.67,-21.65 2.73,-14.95 28.52,-18.62 66.27,-9.42 78.2,35.8 78.5,36.6 0.25,0.61 0.5,2.79 1.18,4 44.84,-3.42 14.04,-3.26 59.81,0.25l-0.05 -517.33c-11.75,-15.22 -4.74,-33.32 -16.48,-49.81 -23.02,30.39 -9.67,24.41 -9.67,24.46 -3.63,20.13 4.22,37.96 -5.05,58.24 -0.5,1.1 -2.31,3.16 -2.79,4l-6.95 6.83c-2.24,-23.59 6.61,-9.42 1.23,-58.52 -5.8,-52.86 4.02,-52.33 -16.93,-78.97 -27.73,10.7 -5.91,-1.26 -17.78,18.98l-16.91 26.25c-9.72,13.27 -6.08,-15.08 -7.33,20.45 -35.22,-1.07 -5.47,3.72 -10.76,-11.31 -11.05,-31.32 -13.04,6.73 -3.76,-14.22l8.59 -12.22c0.53,-2.99 3.14,-3.32 3.89,-5.4 -6.68,0.02 -32.73,1.98 -32.88,1.98l-95.51 3.64c-43.07,8.52 10.75,-21.02 -35.5,0.86 -12.13,5.73 -5.38,2.36 -11.59,14.62l-27.26 -27.51c-0.59,-0.55 -1.68,-2.26 -2.33,-2.81 -0.71,-0.61 -2.04,-2.28 -2.83,-2.87 -0.91,-0.71 -2.83,-2.21 -3.75,-2.84 -9.22,-6.27 1.56,-5.18 -17.54,-7.57 -1.68,31.54 4.06,16.28 -8.06,21.87 -6.46,-22.55 -5.02,-8.71 -0.22,-35.87l-41.78 14.31c-6.76,14.59 5,3.19 -5.88,-4.22 -4.49,-3.04 0.73,-3.97 -15.73,-10.09 0.58,26.4 -4.5,19.63 7.63,35.97 -13.17,-6.06 -4.09,-3.64 -14.52,-15.72l-19.17 -20.09c-21.26,18.95 -21.17,14.92 -24.12,35.78 -9.64,-18.89 -18.94,-26.96 -37.57,-14.1l-0.67 -56.95 -26.9 1.74 -28.44 75.91c-41.56,126.41 -29.63,86.43 -80.7,187.1 -7.42,14.62 -10.99,19.82 -17.07,34.09l-49.04 80.81c-0.95,1.17 -2.41,2.73 -3.34,3.91l-117.66 158.53 0.01 -0.06z"/>
   <path class="fil5" d="M1262.93 6134.53l-23.16 -1.36c33.72,26.8 243.16,9.63 300.58,9.63 100.94,0 202.04,0 302.96,0.24 199.73,0.46 415.96,-7.59 613.07,0.16 19.72,-12.89 55.59,-8.09 79.38,-8.22 31.29,-0.17 62.54,-0.5 93.8,-0.63l168.41 -11.81c1.44,-16.31 11.41,3.27 -3.99,-7.87 -19.1,-13.81 3.3,1.26 -10.16,-2.22 0.33,-63.81 -1.94,-29.07 21.44,-64.92l-21.35 -7.21c11.88,-33.94 17.29,11.98 18.16,-42.86l-4.31 -159.13c3.04,-0.86 16.71,2.37 35.87,2.37l-27.91 -19.3c2.34,-0.55 10.83,-2.15 12.4,-2.86 11.31,-5.15 8.49,-3.88 15.33,-9.07 -15.14,-11.07 -25.78,-6.28 -27.83,-26.06l27.39 -24.28c9.87,-19.47 9.24,-19.07 0.7,-36.22l14.22 -15.63c-4.87,-8.09 -2.28,-1.15 -6.31,-13.23 11.08,-7.63 25.81,-15.72 30.48,-36.74 3.57,-16 -4.12,-10.9 4.95,-26.77 12.44,-21.75 3.84,12.94 17.38,-24.4 9.16,-25.24 -10,-31.98 22.58,-64.85 10.1,-10.19 26.83,-28.49 10.3,-44.49 -13.64,-7.34 18.12,-8.09 -18.13,-4.9 -28.79,2.52 -18.47,20.17 -19.97,26.3 -13.51,-13.14 -11.18,-9.45 -3.78,-29.29 -28.19,-0.05 -46.45,8.92 -51.83,-11.94l-451.86 -0.15c15,12.18 37.5,10.87 52.42,12.43 81.94,8.67 54.44,-4.62 65.14,11.53l7.57 15.47c8.59,-10.8 5.95,10.63 11.4,-21.13 3.94,20.98 -1.96,12.87 14.67,21.08 -15.3,30.49 -6.38,-15.05 -16.58,28.76 -7.49,32.27 -1.59,-2.82 1.9,36.15l-19.82 9.99c0.9,0.95 2.83,2.77 3.64,3.77 0.65,0.8 2.06,2.53 2.56,3.29l2.28 18.18c0,10.37 0.16,10.1 -3.42,17.94l-7.44 121.37c-11.23,6.26 -16.13,6.96 -35.65,7.41 7.85,23.42 3.66,16.25 21.36,24.8 -13.07,5.94 -29.89,48.23 -34.08,66.64 -0.25,1.11 -0.91,3.2 -1.18,4.31l-2.3 8.65c-3.47,17.13 0.13,9.85 -3.69,29.44 -6.46,33.1 -36.76,75.99 -1.94,96.41 -1.58,2.89 -9.42,9.12 -9.84,10.25 -8.19,22.52 15.73,0.15 4,34.87 -0.52,1.53 -1.71,3.42 -2.31,5.05 -0.65,1.73 -1.74,3.59 -2.39,5.4 -15.94,44.43 1.31,57.38 -11.1,67.59 -33.78,25.78 -485,17.72 -573.75,18.46 -91.57,0.77 -523.17,7.21 -580.37,-0.4l0.08 0.01z"/>
   <path class="fil0" d="M1800.26 1647.33c-18.57,7.91 -56.79,8.31 -83.09,19.2 -1.6,0.67 -3.44,1.56 -4.95,2.28 -98.85,47.07 -169.48,155.31 -159.06,288.96 4.5,57.68 26.28,106.14 62.88,147.83 39.63,45.13 64.24,63.93 127.04,84.42 39.41,12.86 79.07,21.59 129.24,13.56 72.48,-11.61 127.19,-49.66 174.66,-100.03 7.97,-8.46 47.86,-70.82 51.4,-83.31 10.6,-37.48 14.98,-96.38 9.91,-130.54 -8.91,-59.84 -9.94,-60.43 -35.82,-103.59 -69.8,-116.36 -210.07,-165.29 -272.22,-138.79l0 0.02z"/>
  </g>
 </g>
</svg>
