<?xml version="1.0" encoding="UTF-8"?>
<!DOCTYPE svg PUBLIC "-//W3C//DTD SVG 1.1//EN" "http://www.w3.org/Graphics/SVG/1.1/DTD/svg11.dtd">
<!-- Creator: CorelDRAW 2019 (64-Bit) -->
<svg xmlns="http://www.w3.org/2000/svg" xml:space="preserve" width="6.1in" height="6.3in" version="1.1" style="shape-rendering:geometricPrecision; text-rendering:geometricPrecision; image-rendering:optimizeQuality; fill-rule:evenodd; clip-rule:evenodd"
viewBox="0 0 6100 6300"
 xmlns:xlink="http://www.w3.org/1999/xlink">
 <defs>
  <style type="text/css">
   <![CDATA[
    .str2 {stroke:#FEFEFE;stroke-width:10.41;stroke-miterlimit:2.61313}
    .str1 {stroke:#838789;stroke-width:3;stroke-miterlimit:2.61313}
    .str0 {stroke:black;stroke-width:3;stroke-miterlimit:2.61313}
    .fil9 {fill:#E33439}
    .fil3 {fill:#D9D8DA}
    .fil12 {fill:#BA3538}
    .fil2 {fill:#C7C8CA}
    .fil5 {fill:#9CA0A2}
    .fil4 {fill:#989B9E}
    .fil10 {fill:#848486}
    .fil8 {fill:#838789}
    .fil11 {fill:#6F7174}
    .fil13 {fill:#6F7073}
    .fil7 {fill:#56585A}
    .fil6 {fill:#3C3E3F}
    .fil0 {fill:#282828}
    .fil1 {fill:#373B3D}
    .fil14 {fill:#FEFEFE;fill-rule:nonzero}
   ]]>
  </style>
 </defs>
 <g id="Layer_x0020_1">
  <metadata id="CorelCorpID_0Corel-Layer"/>
  <g id="_1904144480464">
   <path class="fil0" d="M5044.67 5510.88c63.68,-53.48 121.46,-169.17 223.57,-153.03l4.44 -8.97c-94.37,-62.74 -197.17,-112.24 -296.25,-171.39 -289.12,-172.63 -600.96,-341.07 -893.19,-515.85 -98.32,-58.8 -199.2,-117.88 -297.58,-172.28 -189.69,-104.88 -410.11,-243.36 -595.35,-342.7l-893.37 -513.48c-201.19,-118.26 -393.38,-226.14 -595.15,-343.88 -199.21,-116.26 -396.69,-228.8 -595.41,-344.16l-447.73 -260.22c-116.02,-68.98 -49.54,-30.75 -143.38,-83.16 -50.49,19.75 -145.23,85.91 -151.05,135.26 16.08,21.35 248.66,153.39 292.96,179.52 96.81,57.11 193.09,114.42 289.95,174.49l583.16 347.87c195.87,113.33 388.84,238.02 583.4,349.74 96.71,55.53 194.41,120.11 290.04,172.39 98.54,53.87 194.66,112.91 289.95,171.54 286.22,176.1 586.2,351.77 876.37,524.6 287.86,171.44 590.57,348.19 873.24,521.85 51.48,31.63 96.82,54.83 146.76,86.76 135.6,86.69 321.22,178.15 432.72,260.78l21.91 -15.65z"/>
   <path class="fil1" d="M347.93 2962.13c-0.45,-22.29 -19.67,-29.77 -22.57,-51.71 13.26,-5.7 -3.84,-10.55 36.8,16.94l255.57 155.17c96.05,60.51 193.18,119.25 289.11,177.37 194.48,117.83 383.22,237.33 578.24,356.01 383.34,233.31 778.26,483.21 1160.43,710.65 197.3,117.42 387.01,242.89 581.48,360.13 387.39,233.54 774.71,476.43 1160.18,711.87 195.81,119.6 383.54,230.2 576.18,356.58 6.87,-12.86 6.29,-14.85 14.32,-29.65 -15.39,-20.44 15.21,-113.9 35.76,-139.06 -0.48,-15.18 1.25,-19.58 11.74,-36.67 3.66,-5.96 6.98,-9.69 11.01,-16.65 8.96,-15.48 5.91,-6.29 8.51,-22.27l-21.91 15.65c-111.5,-82.63 -297.11,-174.08 -432.72,-260.78 -49.94,-31.93 -95.28,-55.13 -146.76,-86.76 -282.66,-173.66 -585.38,-350.4 -873.24,-521.85 -290.17,-172.83 -590.15,-348.5 -876.37,-524.6 -95.3,-58.63 -191.42,-117.67 -289.95,-171.54 -95.63,-52.28 -193.33,-116.86 -290.04,-172.39 -194.56,-111.71 -387.53,-236.41 -583.4,-349.74l-583.16 -347.87c-96.86,-60.07 -193.13,-117.37 -289.95,-174.49 -44.3,-26.13 -276.88,-158.17 -292.96,-179.52 -30.78,38.7 -28.73,72.76 -50.3,103.23 3.18,47.86 -14,72.02 34.02,121.89z"/>
   <path class="fil0" d="M1218.06 3505.25c8.14,1.65 5.64,0.65 15.09,4.79l1435.11 884.52c114.02,69.51 389.48,235.43 485.41,304.03 55.62,26.71 264.94,162.31 340.61,207.48l571.38 352.09c38.96,24.61 72.7,44.44 112.11,69.91 20.94,13.54 36.69,22.85 57.87,35.31l285.46 177.4c78.18,48.4 150,91.24 228.01,139.63l229.17 145.21 13.65 -6.6c-15.53,-26.85 -13.44,-44.97 -28.59,-63.85 -192.63,-126.38 -380.36,-236.98 -576.18,-356.58 -385.46,-235.45 -772.78,-478.33 -1160.18,-711.87 -194.46,-117.24 -384.17,-242.72 -581.48,-360.13 -382.17,-227.44 -777.09,-477.35 -1160.43,-710.65 -195.01,-118.69 -383.76,-238.18 -578.24,-356.01 -95.93,-58.12 -193.06,-116.86 -289.11,-177.37l-255.57 -155.17c-40.63,-27.49 -23.54,-22.64 -36.8,-16.94 2.9,21.94 22.12,29.42 22.57,51.71l653.54 406.62c37.9,23.57 71,41.51 109.09,65.56 33.53,21.18 74.71,43.19 107.51,70.94z"/>
   <path class="fil2" d="M5678.48 5961.71c30.76,-41.74 12.74,-51.35 88.31,-129.17 85.21,-87.73 98,-64.38 144.32,-95.57 9.09,-4.18 1.66,0.19 8.53,-4.18l3.72 -5.44c-45.03,-33.8 -242.67,-139.27 -327.56,-192.77 -48.29,-30.43 -115.28,-73.26 -164.34,-94.76 -48.25,-21.14 -98.47,-58.48 -123.36,-69.86 -28.01,-12.8 -18.8,2.06 -39.88,-12.12 -102.11,-16.13 -159.89,99.55 -223.57,153.03 -2.6,15.98 0.46,6.78 -8.51,22.27 -4.03,6.96 -7.35,10.69 -11.01,16.65 -10.49,17.09 -12.23,21.49 -11.74,36.67 24.89,-26.22 5.89,-27.67 37.12,-47.44l160.29 97.11c64.56,37.44 449.38,261.08 478.17,292.68l-10.5 32.89z"/>
   <path class="fil3" d="M5626.63 6119c2.66,-34.54 27.4,-118.35 51.85,-157.29l10.5 -32.89c-28.79,-31.6 -413.61,-255.24 -478.17,-292.68l-160.29 -97.11c-31.23,19.76 -12.24,21.21 -37.12,47.44 -20.54,25.16 -51.15,118.62 -35.76,139.06 4.29,51.15 18.62,50.74 62.39,76.7 30.17,17.89 53.21,32.59 81.59,49.61 119.07,71.41 391.4,247.01 492.76,300.68 5.21,-15.69 1.62,-16.22 12.24,-33.51z"/>
   <path class="fil4" d="M5680.94 6253.44c36.93,12.77 61.46,2.74 104.84,-19.29 31.69,-16.09 85.2,-64.63 97.09,-85.95l-30.37 -42.64c36.68,-30.91 88.01,-131.79 102.54,-170.35 10.56,-28 2.76,-20.15 6.74,-43.93 3.67,-21.9 12.93,-20.96 14.81,-46.31 0.9,-12.08 1.46,-32.78 0.7,-44.94 -1.27,-20.47 -7.31,-32.6 -28.9,-49.54 -12.16,-8.3 -3.46,-2.31 -16.17,-6.26 -12.78,-3.97 -4.15,1.46 -21.11,-7.26 -46.31,31.19 -59.11,7.84 -144.32,95.57 -75.57,77.83 -57.56,87.43 -88.31,129.17 -24.45,38.94 -49.19,122.75 -51.85,157.29 6.67,27.86 -2.61,43.29 6.35,73.56 9.61,32.45 25.48,40.56 47.96,60.88z"/>
   <path class="fil3" d="M347.93 2962.13c-48.01,-49.87 -30.83,-74.03 -34.02,-121.89 -9.46,-35.38 59.95,-119.55 76.83,-151.05 -30.83,-26.61 -225.05,-61.98 -277.78,-99.31l-17.65 -12.5 -10.62 24.82c-0.31,2.06 -0.97,4.57 -1.91,7.47 -9.47,29.61 -46.69,100.56 -27.22,152.96 16.71,44.97 165.49,125.65 218.22,156.81 57.75,34.15 51.28,52.03 74.15,42.69z"/>
   <path class="fil2" d="M314.11 2865.1c14.57,-40.58 19.32,-89.39 50.1,-128.09 5.82,-49.35 94.22,-106.66 144.7,-126.41l6.35 -8.85 -209.6 -117.94c-45.28,-26.41 -63.5,-36.15 -116.28,1.06 -32.25,22.73 -94.07,92.52 -101.62,110.17l30.01 17.14c54.66,20.69 193.46,92.99 232.34,126.54 -16.88,31.51 -45.46,91.03 -36,126.4z"/>
   <path class="fil2" d="M5680.94 6253.44c-22.48,-20.32 -38.35,-28.43 -47.96,-60.88 -8.96,-30.27 0.32,-45.7 -6.35,-73.56 -10.63,17.29 -7.04,17.82 -12.24,33.51 -101.36,-53.67 -373.69,-229.26 -492.76,-300.68 -28.38,-17.02 -51.43,-31.72 -81.59,-49.61 -43.77,-25.96 -58.1,-25.56 -62.39,-76.7 -8.03,14.79 -7.45,16.78 -14.32,29.65 15.15,18.89 13.06,37 28.59,63.85l-13.65 6.6 351.79 216.81c16.09,10.44 24.62,15.79 40.88,24.75 17.12,9.44 27.05,17.17 44.37,26.32 32.44,17.13 57.22,33.61 88.55,53.76l132.21 84.31c19.6,14.72 23.59,22.04 44.87,21.87z"/>
   <path class="fil5" d="M5994.98 5939.84c-1.8,-19.42 5.69,-28.09 9.35,-48.94 3.53,-20.1 4.08,-29.63 3.28,-51.97 -1.1,-30.91 -17.02,-94.72 -59.21,-88.43 21.58,16.94 27.63,29.07 28.9,49.54 0.76,12.17 0.2,32.86 -0.7,44.94 -1.88,25.34 -11.15,24.41 -14.81,46.31 -3.98,23.78 3.82,15.93 -6.74,43.93 -14.54,38.56 -65.86,139.44 -102.54,170.35l30.37 42.64c22.09,-18.71 57.28,-78.09 69.55,-100.85 20.46,-37.95 34.78,-64.72 42.55,-107.52z"/>
   <path class="fil0" d="M3544.06 1348.23l-31.2 4.42c-28.37,-1.13 -63.95,-3.77 -91.76,1.61 -3.34,25.03 75.7,654.89 80.72,699.36 26.48,234.49 60.06,473.72 74.49,711.58 7.24,119.33 16.2,245.04 28.85,362.56 18.99,176.52 36.42,553.06 44.14,741.83l13.46 381.58c22.35,8.19 40.86,5.55 66.23,4.15 27.27,-6.72 259.44,-129.63 305,-152.75 205.73,-104.4 461.9,-189.61 695.2,-230.85 68.54,-12.11 132.99,-19.35 203.46,-25.57 77.26,-6.82 155.55,1.19 233.55,-3.48 8.46,-19.8 22.87,-37.22 26.36,-62.57l10.94 -85.06c0,-71.1 10.58,-124.85 16.15,-191.5 25.96,-310.56 83.48,-619.45 125.46,-926.73 16.74,-122.54 44.87,-234.52 64.84,-359.17l66.24 -352.53c22.72,-112.57 77.84,-430.58 106,-527.4l91.73 -436.98c4.67,-28.18 9.63,-66.93 16.4,-92.01l-10.65 -13.76c-49.8,136.48 -252.24,239.61 -381.38,295.61 -154.44,66.97 -335.87,115.44 -515.13,154.94 -369.39,81.41 -553.64,80.37 -909.17,100.45 -107.93,6.09 -227.46,-7.28 -329.92,2.28z"/>
   <path class="fil6 str0" d="M2548.73 2954.25c85.17,374.91 188.66,757.24 272.31,1136.29 -38.74,-4.41 -196.08,-96 -237.78,-118.48 -74.7,-40.28 -46.44,-22.38 -60.45,-118.04 -7.61,-51.92 -13.18,-106.4 -19.34,-158.21 -16.73,-140.71 -236.74,-1832.13 -228.05,-1882.17 26.12,57.07 54.63,212.58 70.93,285.6 20.85,93.48 41.29,194.05 65.84,284.92 50.28,186.11 93.59,381.05 136.53,570.09zm-166.65 1008.53c32.65,38.94 130.05,60.53 156.84,95.69 76.96,17.41 164.19,57.52 243.73,80.31 84.36,24.17 179.73,45.75 268.83,61.31 204.13,35.64 397.76,45.15 611.26,51.08l-13.46 -381.58c-7.72,-188.77 -25.15,-565.31 -44.14,-741.83 -12.65,-117.52 -21.61,-243.23 -28.85,-362.56 -14.43,-237.86 -48.01,-477.09 -74.49,-711.58 -5.02,-44.47 -84.06,-674.33 -80.72,-699.36 27.81,-5.37 63.4,-2.73 91.76,-1.61l31.2 -4.42c-126.62,-4.46 -264.05,-13.61 -392.59,-23.06 -61.04,-4.48 -124.42,-11.33 -184.06,-19.64 -57.2,-7.98 -116.06,-21.54 -174.5,-22.98 -67.09,0.83 -173.17,-35.49 -237.59,-51.76 -147.8,-37.33 -194.15,-42.87 -335.11,-94.12 -145.41,-52.87 -201.22,-94.9 -293.89,-130.55 26.93,115.98 48.42,240.64 72.02,357.11 75.07,370.38 137.13,703.82 203.82,1078.51 63,353.95 118.59,762.76 157.8,1124.86 14.02,129.42 19.12,262.54 33.33,391.9 -6.3,5.96 10.95,6.59 -11.22,4.28z"/>
   <path class="fil7" d="M2864.96 105.76c-67.11,0 -349.4,61.61 -404.45,78.52 -119.01,36.57 -255.92,69.9 -364.69,122.14 -29.85,14.34 -52.78,23.81 -82.02,38.38 -28.74,14.33 -51.26,26.68 -77.82,42.58 -57.25,34.28 -92.47,60.57 -138.99,107.05 -43.06,43.03 -73.45,80.46 -93.52,147.27 -16.66,55.48 -1.92,103.56 13.04,155.67 5.4,18.79 6.19,33.8 18.67,46.47l-0.47 -20.33c10.04,7.91 31.04,39.26 40.44,51.42 43.53,56.26 132.93,98.9 151.17,131.19 92.67,35.65 148.48,77.69 293.89,130.55 140.96,51.25 187.31,56.8 335.11,94.12 64.42,16.27 170.5,52.59 237.59,51.76 -18.37,-13.93 -45.3,-12.8 -71.17,-20.12 1.18,-0.89 3.17,-3.28 3.89,-2.07 0.72,1.2 2.96,-1.57 3.98,-1.9 24.31,-7.78 129.55,-5.76 154.89,-5.88 169.19,-0.8 347,3.75 513.62,-14.81 429.92,-47.9 761.48,-81.96 1158.02,-245.72 438.65,-181.16 577.52,-479.91 129.82,-719.33 -407.04,-217.68 -706.05,-242.22 -1178.48,-215.09 -112.24,6.45 -221.6,5.98 -332.87,19.05 -54.07,6.35 -105.3,9.24 -158.98,14.61 -31.57,3.16 -129.4,27.53 -150.67,14.48z"/>
   <path class="fil0" d="M2418.96 5141.23c-5.46,12.16 1.01,3.97 -9.68,11.96 -28,20.94 -256.19,82.19 -288.41,84.82 24.68,-2.15 64.49,-12.24 83.54,-2.08 211.23,-5.3 787.28,-161.08 980.87,-222.85 677.55,-216.18 1183.44,-457.2 1944.91,-468.73 189.13,-2.87 405.01,-8.33 589.33,12.61 66.13,7.52 231.28,19.33 289.39,2.8 47.12,-13.41 48.82,-52.92 29.49,-96.22 -17.52,-39.25 -33.42,-61.26 -49.2,-101.57 -24.72,-19.14 -52.33,-59.9 -76.39,-86.63 -214.1,-237.8 -458.58,-339.28 -808.99,-324.69 -657.81,27.39 -1346.45,381.33 -1859.35,723.63 -129.29,86.3 -253.46,177.14 -393.69,255.48 -91.82,51.29 -339.69,189.03 -431.82,211.46z"/>
   <path class="fil6" d="M1435.23 4588.74c-12.74,79.11 -67.92,171.74 -49.79,313.35 15.09,117.85 74.92,179.13 142.73,229.37 149.08,110.47 391.16,124.21 616.6,112.89 27.75,3.21 41.49,4.76 59.65,-8.42 -19.05,-10.16 -58.86,-0.07 -83.54,2.08 32.22,-2.63 260.41,-63.88 288.41,-84.82 10.69,-7.99 4.21,0.2 9.68,-11.96l-10.06 -8.68c68.3,-21.3 166.01,-80.68 221.29,-114.49 70.64,-43.2 134.61,-84.73 200.99,-128.6 32.27,-21.33 357.69,-250.91 377.36,-281.43l-376.4 -73.59c-81.39,-16.16 -268.16,-68.13 -329.74,-114.3 -71.98,-17.34 -200.7,-123.61 -233.85,-170.19 -69.33,-97.42 -71.06,-181.03 -75.45,-320.67 -81.91,37.53 -160.63,69.68 -241.07,112.16 -175.43,92.65 -370.23,250.5 -460.61,429.22 -9.11,18.02 -51.34,113.13 -56.19,118.07z"/>
   <path class="fil8 str1" d="M2864.96 105.76c21.28,13.05 119.11,-11.32 150.67,-14.48 53.68,-5.36 104.92,-8.26 158.98,-14.61 111.26,-13.06 220.63,-12.6 332.87,-19.05 472.43,-27.13 771.44,-2.59 1178.48,215.09 447.69,239.42 308.83,538.17 -129.82,719.33 -396.54,163.77 -728.1,197.83 -1158.02,245.72 -166.62,18.57 -344.43,14.01 -513.62,14.81 -25.35,0.12 -130.58,-1.9 -154.89,5.88 -1.02,0.33 -3.26,3.11 -3.98,1.9 -0.72,-1.21 -2.71,1.19 -3.89,2.07 25.87,7.32 52.8,6.19 71.17,20.12 58.43,1.44 117.3,15 174.5,22.98 59.64,8.31 123.02,15.16 184.06,19.64 128.54,9.45 265.97,18.6 392.59,23.06 102.46,-9.56 222,3.81 329.92,-2.28 355.53,-20.08 539.78,-19.04 909.17,-100.45 179.26,-39.5 360.69,-87.97 515.13,-154.94 129.15,-56 331.58,-159.13 381.38,-295.61l10.65 13.76c50.91,-123.66 -1.27,-239.33 -92.81,-327.48l-64.24 -50.92c-249.99,-176.5 -650.69,-271.96 -951.16,-320.88 -92.68,-15.08 -316.19,-47.85 -409.87,-50.79 -95.08,-2.99 -104.4,-10.48 -219.85,-10.48 -215.54,0 -466.17,-20.88 -672.23,8.29 -69.4,9.82 -148.66,3.13 -214.81,15.51 -68.95,12.9 -137.67,17.04 -200.39,33.78z"/>
   <path class="fil0" d="M1735.18 843.85c-4.74,27.68 61.26,301.71 71.41,350.3l223.14 1048.89c18.16,125.03 45.29,239.69 62.76,361.25 39.31,273.52 74.87,475.96 96.19,751.83 2.19,28.42 8.74,64.48 10.04,94.66 1.26,29.39 5.65,70.32 9.07,95.61l11.9 204.62c5.59,9.07 15.22,52.22 23.07,69.17 10.89,23.49 21.33,39.62 37.05,57.26 26.68,29.94 59.53,67.93 102.26,85.33 22.17,2.31 4.91,1.68 11.22,-4.28 -14.21,-129.36 -19.31,-262.48 -33.33,-391.9 -39.21,-362.1 -94.81,-770.91 -157.8,-1124.86 -66.69,-374.69 -128.75,-708.13 -203.82,-1078.51 -23.61,-116.46 -45.09,-241.13 -72.02,-357.11 -18.24,-32.29 -107.65,-74.93 -151.17,-131.19 -9.4,-12.16 -30.41,-43.5 -40.44,-51.42l0.47 20.33z"/>
   <path class="fil9" d="M2502.4 4420.13c61.59,46.17 248.35,98.14 329.74,114.3l376.4 73.59c26.73,-7.16 216.09,-150.11 257.48,-178.02l262.95 -174.69c-25.37,1.4 -43.88,4.04 -66.23,-4.15 -213.5,-5.93 -407.13,-15.44 -611.26,-51.08 -89.09,-15.56 -184.47,-37.15 -268.83,-61.31 -79.54,-22.79 -166.78,-62.9 -243.73,-80.31 -33.78,-6.23 -53.98,-21.04 -80.72,-35.1 -21.17,-11.14 -54.53,-34.12 -70.99,-39.32 -0.96,0.85 -2.19,2.14 -2.72,2.76l-24.54 54.54c-27.44,105.99 -10.13,107.06 10.84,195.16 18.47,77.6 4.88,23.59 52.41,104.63 26.45,45.11 65.58,51.46 79.21,78.99z"/>
   <path class="fil10" d="M3728.97 4255.31l-262.95 174.69c-41.39,27.91 -230.75,170.85 -257.48,178.02 -19.67,30.52 -345.09,260.1 -377.36,281.43 -66.38,43.87 -130.35,85.4 -200.99,128.6 -55.28,33.81 -152.99,93.2 -221.29,114.49l10.06 8.68c92.13,-22.43 340,-160.17 431.82,-211.46 140.23,-78.34 264.4,-169.19 393.69,-255.48 512.89,-342.3 1201.54,-696.24 1859.35,-723.63 350.41,-14.6 594.89,86.89 808.99,324.69 24.06,26.73 51.67,67.49 76.39,86.63l-1.86 -10.86c0.76,-29.5 -4.99,-5.94 -30.07,-57.57 -55.54,-114.35 -207.28,-250.61 -313.76,-314.41 -68.75,-41.2 -168.37,-80.21 -259.9,-101.29l-149.86 -28.13c-27.15,-6.6 -24.7,-13.49 -24.95,-64.04 -0.15,-31.58 -5.31,-52.58 -5.31,-90.64l-10.94 85.06c-3.49,25.35 -17.91,42.77 -26.36,62.57 -78,4.67 -156.29,-3.34 -233.55,3.48 -70.47,6.22 -134.92,13.46 -203.46,25.57 -233.31,41.24 -489.48,126.45 -695.2,230.85 -45.56,23.11 -277.74,146.03 -305,152.75z"/>
   <path class="fil8" d="M2821.05 4090.54c-83.65,-379.05 -187.15,-761.39 -272.31,-1136.29 -42.94,-189.04 -86.25,-383.98 -136.53,-570.09 -24.55,-90.87 -44.98,-191.44 -65.84,-284.92 -16.29,-73.02 -44.81,-228.53 -70.93,-285.6 -8.69,50.04 211.31,1741.46 228.05,1882.17 6.16,51.81 11.73,106.29 19.34,158.21 14,95.67 -14.25,77.77 60.45,118.04 41.7,22.48 199.04,114.07 237.78,118.48z"/>
   <path class="fil11" d="M1371.68 5104.29c27.45,14.96 37.21,37.87 60.18,55.5 66.79,51.23 176.69,84.34 265.08,95.93 67.45,8.83 345.98,16.92 426.37,-1.56 20.16,-4.63 11.71,-0.56 21.47,-9.8 -225.44,11.33 -467.52,-2.41 -616.6,-112.89 -67.81,-50.24 -127.64,-111.52 -142.73,-229.37 -18.13,-141.61 37.05,-234.24 49.79,-313.35l-37.41 -2.04 41.8 -101.32c42.63,-85.28 85.93,-156.33 148.2,-227.46 87.84,-100.34 189.06,-160.19 296.65,-225.14 53.5,-32.3 78.49,-27.96 78.73,-63.83 33.77,0 43.71,3.28 68.39,-8.5 48.81,-23.28 106.99,-54.31 162.57,-54.31l1.76 -36.61c-32.49,6.22 -72.98,22.48 -104.08,34.41l-193.2 84.24c-157.44,78.72 -283.51,160.4 -397.31,298.91 -131.13,159.6 -313.19,565.79 -145.48,797.06l15.82 20.16z"/>
   <path class="fil12" d="M2195.92 3869.51l-1.76 36.61 -1.06 23.15c4.39,139.64 6.12,223.25 75.45,320.67 33.15,46.58 161.87,152.85 233.85,170.19 -13.63,-27.53 -52.76,-33.88 -79.21,-78.99 -47.52,-81.04 -33.94,-27.03 -52.41,-104.63 -20.97,-88.1 -38.28,-89.17 -10.84,-195.16l24.54 -54.54c0.53,-0.62 1.76,-1.91 2.72,-2.76 16.46,5.2 49.83,28.18 70.99,39.32 26.73,14.06 46.93,28.87 80.72,35.1 -26.79,-35.16 -124.19,-56.74 -156.84,-95.69 -42.74,-17.41 -75.58,-55.4 -102.26,-85.33 -15.72,-17.64 -26.16,-33.77 -37.05,-57.26 -7.85,-16.95 -17.47,-60.1 -23.07,-69.17 -15.63,17.15 -23.48,97.26 -23.78,118.5z"/>
   <path class="fil13" d="M1435.23 4588.74c4.85,-4.94 47.08,-100.06 56.19,-118.07 90.38,-178.72 285.19,-336.57 460.61,-429.22 80.44,-42.48 159.16,-74.63 241.07,-112.16l1.06 -23.15c-55.58,0 -113.77,31.03 -162.57,54.31 -24.68,11.78 -34.62,8.5 -68.39,8.5 -0.24,35.87 -25.23,31.54 -78.73,63.83 -107.59,64.95 -208.81,124.8 -296.65,225.14 -62.27,71.13 -105.57,142.18 -148.2,227.46l-41.8 101.32 37.41 2.04z"/>
   <path class="fil14 str2" d="M3417.44 2767.46c155.41,-135.48 298.76,-312.85 348.2,-506.93 24.81,-99.5 5.9,-249.59 -128.76,-210.82 -151.11,43.52 -215.28,248.32 -248.8,379.49l-100.11 406.33c-241.4,129.46 -411.52,84.47 -488.71,-14.82 -79.99,-103.35 -73.72,-278.52 28.22,-419.66 137.98,-190.41 408.95,-189.04 383.4,71.07 -8.16,89.84 -89.04,174.7 -194.38,219.61 16.37,56.85 62.98,49.92 92.22,22.05 65.97,-57.88 111.55,-147.15 118.64,-235.07 23.51,-317.85 -323.51,-279.5 -467.09,-108.54 -135.26,160.46 -148.53,361.95 -24.66,488.3 87.44,89.86 302.26,138.18 548.56,-2.41 -20.81,74.04 -42.47,145.09 -70.35,211.44 -224.41,-30.98 -387.31,-0.27 -477.55,108.34 -96.63,120.18 -44.04,218.45 45.83,237.94 100.13,21.39 241.41,-22.53 334.26,-110.83 46.74,-45.86 82.15,-91.7 114.13,-138.18l81.09 17.16 544.96 120.14c328.64,72.25 1005.93,162.39 1147.91,-160.41 26.18,-61 31.39,-127.31 15.43,-194.01 -6.92,-35.28 -42.08,-78.61 -93.76,-44.29 54.68,71.75 65.75,149.57 48.57,219.33 -97.61,369.97 -901.99,147.93 -1206.06,65.36 -133.53,-36.08 -274.31,-63.59 -393.92,-90.72l-87.94 -18.43c53.7,-94.85 98.4,-198.45 130.68,-311.44l0 0zm107.44 -476.5c20.35,-86.87 60.99,-187.69 107.99,-215.8 120.69,-70.39 102.45,108.22 82.5,185.25 -49.66,187.66 -146.63,351.68 -291.37,479.23l100.87 -448.69zm-440.86 995.38c-70.41,81.85 -165.48,128.66 -259.85,99.13 -85.61,-27.2 -127.71,-117.15 -72.06,-199.6 59.28,-86.74 191.46,-77.81 421.67,-32.31 -25.13,47.74 -54.56,91.86 -89.76,132.78zm930.06 -849.46c31.42,-9.05 41.99,33.28 24.38,101.54 -26.11,95.01 -87.13,164.43 -172.8,210.16 5.51,-25.89 12.08,-53.7 20.15,-81.95 33.55,-119.83 87.88,-218.11 128.28,-229.74zm-254.08 304.85c-21.3,145.47 59.47,217.81 139.89,215.71 114.84,-0.66 193.84,-63.92 256.54,-150.02 54.81,-74.11 86.72,-154.59 109,-240.39 2.97,-12.2 -9.66,-16.66 -13.69,-2.54 -23.35,87.73 -59.98,163.09 -107.11,230.12 -61.43,79.26 -150.69,140.61 -226.24,120.23 -47.72,-13.8 -63.45,-74.08 -55.05,-146.17 119.65,-57.13 252.92,-145.73 280.52,-241.17 31.87,-103.15 -42.2,-135.29 -122.99,-112.03 -143.63,41.36 -239.79,185.7 -260.89,326.26zm944.02 -198.91c-32.64,145.49 24.76,187.3 68.15,174.8 86.78,-24.99 186.56,-173.61 235.36,-364.27 4.46,-12.63 -8.16,-17.09 -13.69,-2.54 -22.06,92.22 -68.04,191.33 -112.2,246.17 -47.35,60.62 -109.47,120.63 -83.38,14.29l53.83 -240.71c34.13,-145.93 -24.76,-187.29 -68.15,-174.8 -56.85,16.37 -120.21,94.56 -162.83,171.64l-7.89 11.99c4.93,-95.39 -40.25,-122.89 -77.65,-112.12 -55.36,15.94 -120.21,94.56 -162.82,171.64 16.5,-89 -44.06,-102.35 -85.94,-90.28l-90.93 398.83c-22.46,102.06 39.59,114.98 82.98,102.48l71.43 -308.97c17.63,-56.93 45.97,-110.45 73.69,-149.21 56.51,-79.46 111.19,-114.65 88.94,-17.51l-68.67 301.69c-23.96,102.49 39.59,114.98 84.47,102.06l69.51 -310.04c19.13,-57.35 46.4,-108.95 74.12,-147.72 58.01,-79.89 109.69,-114.22 87.44,-17.08l-55.75 239.65z"/>
  </g>
 </g>
</svg>
