<?xml version="1.0" encoding="UTF-8"?>
<!DOCTYPE svg PUBLIC "-//W3C//DTD SVG 1.1//EN" "http://www.w3.org/Graphics/SVG/1.1/DTD/svg11.dtd">
<!-- Creator: CorelDRAW 2019 (64-Bit) -->
<svg xmlns="http://www.w3.org/2000/svg" xml:space="preserve" width="6.1in" height="6.3in" version="1.1" style="shape-rendering:geometricPrecision; text-rendering:geometricPrecision; image-rendering:optimizeQuality; fill-rule:evenodd; clip-rule:evenodd"
viewBox="0 0 6100 6300"
 xmlns:xlink="http://www.w3.org/1999/xlink">
 <defs>
  <style type="text/css">
   <![CDATA[
    .fil0 {fill:#15950C}
    .fil1 {fill:#F7F7F7}
   ]]>
  </style>
   <clipPath id="id0">
    <rect x="-111.23" y="-11.23" width="6322.46" height="6322.46"/>
   </clipPath>
 </defs>
 <g id="Layer_x0020_1">
  <metadata id="CorelCorpID_0Corel-Layer"/>
  <g style="clip-path:url(#id0)">
   <image id="whatsapp.png" x="-111.23" y="-11.23" width="6322.46" height="6322.46" xlink:href="whatsapp_Images\whatsapp_ImgID1.png"/>
  </g>
  <path class="fil0" d="M2090.02 1807.61c57.84,-13.29 122.13,-6.48 182.35,-7.96 76.89,-1.89 99.43,19.4 128.27,65.11 39.53,62.67 82.4,187.06 114.7,264.51 37.43,89.78 74.13,180.96 111.16,268.12 17.9,42.13 49.2,91.05 31.54,145.58 -14.64,45.19 -43.24,93.12 -67.32,122.48 -16.41,20 -27.07,32.27 -42.95,51.85l-89.85 99.68c-12.92,14.64 -29.07,39 -29.48,67.44 -1.32,93.37 260.29,404.33 358.84,496.69 15.95,14.95 30.94,34.17 47.43,47.27 35.56,28.26 65.94,55.3 104.4,85.43 118.64,92.91 338.52,220.91 486.98,272.01 66.68,22.95 103.13,-5.72 130.07,-41.08l170.66 -208.83c105.71,-133.7 73.78,-148.57 365.33,-11.78 87.01,40.82 170.05,81.65 255.79,123.64 154.19,75.5 197.3,72.26 194.68,185.05 -2.32,99.58 -30.46,226.71 -73.57,299.99 -69.48,118.1 -288.41,255.73 -470.7,287.79 -237.31,41.74 -425.43,-35.06 -625.84,-107.31 -278.59,-100.44 -522.18,-217.58 -736.03,-402.06l-101.37 -88.19c-56.57,-50.22 -185.06,-173.63 -237.16,-237.01 -167.46,-203.69 -399.72,-491.54 -499.04,-733.8 -125.51,-306.15 -131.68,-607.74 79.89,-879.9 34.8,-44.76 59.05,-64.54 90.37,-99.12 26.39,-29.14 68.28,-53.54 120.87,-65.62zm-1246.57 3586.01c69.61,-14.43 175.65,-55.16 244.22,-77.85 78.89,-26.11 157.96,-50.57 239.31,-76.79 82.02,-26.43 163.43,-51.94 244.31,-78.33 40.09,-13.07 79.17,-25.13 119.49,-38.05 68.89,-22.07 58.92,-33.42 116.56,3.24 255.49,162.49 573.22,294.69 931.74,345.34 558.48,78.91 1096.82,-33.78 1562.13,-305.19 64.81,-37.8 132.8,-81.33 190.92,-125.12 32.21,-24.27 60.7,-45.04 90.19,-67.8 63.72,-49.15 239.49,-211.53 289.29,-273.39 12.59,-15.63 22.76,-23.59 36.04,-39.72 23.62,-28.68 47.55,-56.95 70.96,-87.14 303.88,-391.8 492.39,-859.86 509.61,-1397.37 12.31,-384.03 -66.52,-759.11 -208.91,-1066.07 -122.17,-263.39 -206.54,-377.04 -371.55,-583.19 -40.67,-50.82 -107.86,-113.9 -153.85,-162.27 -28.21,-29.67 -56.14,-49.28 -85.99,-78.37 -23.42,-22.84 -57.24,-49.44 -85.8,-72.25 -469.81,-375.23 -1073.77,-567.12 -1702.02,-514.49 -1413.01,118.38 -2423.24,1444.88 -2152.5,2857.15 69.38,361.9 212.81,648.88 379.86,898.04 38.23,57.02 37.95,37.21 13.24,110.87l-199.26 591.35c-18.15,53.78 -72.18,190.71 -78,237.38z"/>
  <path class="fil1" d="M843.45 5393.62c5.82,-46.67 59.85,-183.59 78,-237.38l199.26 -591.35c24.71,-73.66 24.99,-53.85 -13.24,-110.87 -167.05,-249.16 -310.48,-536.15 -379.86,-898.04 -270.74,-1412.27 739.49,-2738.76 2152.5,-2857.15 628.25,-52.63 1232.21,139.26 1702.02,514.49 28.56,22.81 62.38,49.41 85.8,72.25 29.85,29.1 57.78,48.7 85.99,78.37 46,48.37 113.18,111.45 153.85,162.27 165.01,206.15 249.37,319.8 371.55,583.19 142.38,306.96 221.22,682.04 208.91,1066.07 -17.22,537.5 -205.73,1005.57 -509.61,1397.37 -23.41,30.19 -47.34,58.46 -70.96,87.14 -13.28,16.13 -23.46,24.08 -36.04,39.72 -49.8,61.86 -225.56,224.24 -289.29,273.39 -29.5,22.76 -57.98,43.53 -90.19,67.8 -58.12,43.79 -126.11,87.32 -190.92,125.12 -465.31,271.41 -1003.65,384.1 -1562.13,305.19 -358.51,-50.65 -676.25,-182.85 -931.74,-345.34 -57.64,-36.67 -47.67,-25.31 -116.56,-3.24 -40.32,12.92 -79.39,24.97 -119.49,38.05 -80.89,26.39 -162.3,51.9 -244.31,78.33 -81.36,26.22 -160.43,50.69 -239.31,76.79 -68.56,22.69 -174.61,63.41 -244.22,77.85zm1549.02 -5078.1c-47.98,-11.9 -370.12,112.44 -414.66,131.09 -208.55,87.36 -524.36,268.45 -690.15,416.29 -50.3,44.85 -101.18,81.7 -148.63,129.56 -13.02,13.13 -21.68,22.37 -35.33,34.22l-34.51 35.03c-8.36,8.85 -8.76,8.21 -16.56,15.06 -5.32,4.67 -1.91,0.87 -10.03,8.94 -289.04,287.19 -537,697.33 -664.62,1080.38 -272.54,818.04 -162.41,1633.44 184.03,2276.96 86.71,161.06 80.37,91.05 -24.42,405.31l-414.89 1254.23c32.57,-0.72 33.58,-10.05 61.81,-12.65 32.71,-23.66 1255.51,-406.22 1453.55,-470.31 66.65,-21.57 66.85,-28.65 93.26,-3.87 131.13,93.12 572.11,239.36 730.17,272.39 345.73,72.24 578.66,84.41 923.06,55.84 144.63,-12 296.41,-43.66 424.16,-75.31 238.39,-59.06 510.16,-172.06 717.12,-294.48 29.47,-17.43 53,-29.46 79.5,-46.94l77.09 -49.37c21.61,-13.39 131.5,-83.28 141.51,-108.7 11.73,-17.26 26.15,-24.54 45.57,-39.46 15.57,-11.96 29.11,-23.13 42.12,-33.76l162.57 -147.09c74.56,-71.02 155.91,-158.75 221.9,-239.6 227.37,-278.56 427.45,-627.43 534.54,-1008.23 580.42,-2063.85 -1142.7,-3948.29 -3180.25,-3635.74 -87.82,13.47 -174.04,38.54 -257.91,50.21z"/>
  <path class="fil1" d="M2090.02 1807.61c-52.6,12.09 -94.48,36.48 -120.87,65.62 -31.32,34.58 -55.58,54.35 -90.37,99.12 -211.57,272.17 -205.4,573.75 -79.89,879.9 99.32,242.26 331.57,530.11 499.04,733.8 52.1,63.37 180.59,186.79 237.16,237.01l101.37 88.19c213.85,184.48 457.44,301.62 736.03,402.06 200.42,72.25 388.53,149.05 625.84,107.31 182.3,-32.06 401.22,-169.69 470.7,-287.79 43.12,-73.28 71.25,-200.41 73.57,-299.99 2.63,-112.79 -40.49,-109.55 -194.68,-185.05 -85.74,-41.98 -168.78,-82.82 -255.79,-123.64 -291.56,-136.79 -259.63,-121.92 -365.33,11.78l-170.66 208.83c-26.93,35.36 -63.39,64.03 -130.07,41.08 -148.46,-51.1 -368.34,-179.1 -486.98,-272.01 -38.46,-30.13 -68.84,-57.17 -104.4,-85.43 -16.49,-13.11 -31.48,-32.32 -47.43,-47.27 -98.55,-92.36 -360.16,-403.32 -358.84,-496.69 0.41,-28.44 16.56,-52.8 29.48,-67.44l89.85 -99.68c15.88,-19.58 26.54,-31.85 42.95,-51.85 24.09,-29.36 52.69,-77.29 67.32,-122.48 17.67,-54.54 -13.64,-103.46 -31.54,-145.58 -37.02,-87.16 -73.72,-178.35 -111.16,-268.12 -32.3,-77.44 -75.17,-201.84 -114.7,-264.51 -28.83,-45.71 -51.38,-67 -128.27,-65.11 -60.22,1.48 -124.5,-5.33 -182.35,7.96z"/>
 </g>
</svg>
